<svg xmlns="http://www.w3.org/2000/svg" width="78.433" height="80" viewBox="0 0 78.433 80">
  <g id="Group_100" data-name="Group 100" transform="translate(-416 -1143)">
    <g id="project-management" transform="translate(416 1143)">
      <g id="Group_110" data-name="Group 110" transform="translate(59.915 40.061)">
        <g id="Group_109" data-name="Group 109">
          <path id="Path_21" data-name="Path 21" d="M356.851,233.9a1.373,1.373,0,0,0-2.458.63l-.762,5.343a1.342,1.342,0,0,1-.071.2,24.689,24.689,0,0,0,3.358-6.086Z" transform="translate(-353.559 -233.346)" fill="#2e2e2e"/>
        </g>
      </g>
      <g id="Group_112" data-name="Group 112" transform="translate(15.428 7.232)">
        <g id="Group_111" data-name="Group 111">
          <path id="Path_22" data-name="Path 22" d="M137.624,82.65a1.522,1.522,0,0,1-.194-.012l-8.158-1.166a1.373,1.373,0,0,1-1.165-1.554h0l.762-5.343a1.373,1.373,0,0,0-2.182-1.292l-4.318,3.237a1.373,1.373,0,0,1-1.923-.275h0L115.5,69.652a1.373,1.373,0,0,1,.275-1.923l4.317-3.237a1.373,1.373,0,0,0-.63-2.458l-5.343-.764a1.373,1.373,0,0,1-1.166-1.553v0l1.166-8.157a1.373,1.373,0,0,1,1.553-1.166h0l5.343.764a1.365,1.365,0,0,0,1.373-.661,1.345,1.345,0,0,0-.082-1.524l-3.234-4.315a1.373,1.373,0,0,1,.275-1.923l.779-.584a25.183,25.183,0,0,0-3.782.1,24.721,24.721,0,0,0-10.523,45.383,7.875,7.875,0,0,1,3.725,6.6v5.55a4.12,4.12,0,0,0,4.12,4.12h10.987a4.12,4.12,0,0,0,4.12-4.12V94.344a8.091,8.091,0,0,1,3.8-6.76,24.886,24.886,0,0,0,5.731-5.137A1.372,1.372,0,0,1,137.624,82.65ZM120.534,99.78h-2.747V95.66h2.747Zm-2.747-6.867a8.768,8.768,0,0,0-5.631-8.186,19.228,19.228,0,0,1-3.243-34.179l1.457,2.324a16.481,16.481,0,0,0,2.777,29.3,11.491,11.491,0,0,1,7.386,10.741Z" transform="translate(-94.426 -42.12)" fill="#2e2e2e"/>
        </g>
      </g>
      <g id="Group_114" data-name="Group 114" transform="translate(34.669 75.88)">
        <g id="Group_113" data-name="Group 113">
          <path id="Path_23" data-name="Path 23" d="M206.5,441.987v1.373a2.747,2.747,0,0,0,2.747,2.747h5.494a2.747,2.747,0,0,0,2.747-2.747v-1.373Z" transform="translate(-206.503 -441.987)" fill="#2e2e2e"/>
        </g>
      </g>
      <g id="Group_116" data-name="Group 116" transform="translate(1.344 35.584)">
        <g id="Group_115" data-name="Group 115">
          <path id="Path_24" data-name="Path 24" d="M37.129,225.588a25.987,25.987,0,0,1-2.347-1.715,8.224,8.224,0,1,1-8.305-11.949,26.155,26.155,0,0,1-1.088-4.657l-.24,1.143a2.747,2.747,0,0,1-4.245,1.7l-2.857-1.961-2.5,2.5,1.967,2.859a2.747,2.747,0,0,1-1.7,4.247l-3.424.721v3.263l3.424.721A2.747,2.747,0,0,1,17.51,226.7l-1.965,2.844,2.5,2.5,2.854-1.967a2.747,2.747,0,0,1,4.247,1.7l.72,3.429h3.265l.72-3.424a2.747,2.747,0,0,1,4.247-1.7l2.853,1.961L39.9,229.1A6.7,6.7,0,0,0,37.129,225.588Z" transform="translate(-12.391 -207.267)" fill="#2e2e2e"/>
        </g>
      </g>
      <g id="Group_118" data-name="Group 118" transform="translate(34.669 70.386)">
        <g id="Group_117" data-name="Group 117">
          <rect id="Rectangle_30" data-name="Rectangle 30" width="10.987" height="2.747" fill="#2e2e2e"/>
        </g>
      </g>
      <g id="Group_120" data-name="Group 120" transform="translate(36.866 3.274)">
        <g id="Group_119" data-name="Group 119">
          <path id="Path_25" data-name="Path 25" d="M256.892,39.47A4.12,4.12,0,0,1,255,32.1l3.218-2.414-3.3-4.395L251.707,27.7a4.12,4.12,0,0,1-6.553-3.873l.569-3.983-5.437-.776-.569,3.983a4.12,4.12,0,0,1-7.375,1.888l-2.414-3.223-4.395,3.3,2.413,3.218a4.12,4.12,0,0,1-3.88,6.551l-3.983-.569-.78,5.439,3.983.569a4.12,4.12,0,0,1,1.888,7.375l-3.217,2.414,3.3,4.395,3.218-2.413a4.12,4.12,0,0,1,6.551,3.88l-.569,3.983,5.45.78.569-3.983a4.12,4.12,0,0,1,7.375-1.888l2.414,3.217,4.395-3.3-2.421-3.223a4.12,4.12,0,0,1,3.874-6.551l3.983.569.776-5.437Zm-16.8,8.615a8.24,8.24,0,1,1,8.24-8.24A8.24,8.24,0,0,1,240.091,48.086Z" transform="translate(-219.303 -19.067)" fill="#2e2e2e"/>
        </g>
      </g>
      <g id="Group_122" data-name="Group 122" transform="translate(66.257 51.158)">
        <g id="Group_121" data-name="Group 121">
          <rect id="Rectangle_31" data-name="Rectangle 31" width="9.614" height="2.747" fill="#2e2e2e"/>
        </g>
      </g>
      <g id="Group_124" data-name="Group 124" transform="translate(64.005 58.343)">
        <g id="Group_123" data-name="Group 123" transform="translate(0 0)">
          <rect id="Rectangle_32" data-name="Rectangle 32" width="2.747" height="10.726" transform="matrix(0.64, -0.768, 0.768, 0.64, 0, 2.11)" fill="#2e2e2e"/>
        </g>
      </g>
      <g id="Group_126" data-name="Group 126" transform="translate(58.017 62.146)">
        <g id="Group_125" data-name="Group 125">
          <rect id="Rectangle_33" data-name="Rectangle 33" width="2.747" height="9.614" fill="#2e2e2e"/>
        </g>
      </g>
      <g id="Group_128" data-name="Group 128" transform="translate(0 20.984)">
        <g id="Group_127" data-name="Group 127" transform="translate(0 0)">
          <rect id="Rectangle_34" data-name="Rectangle 34" width="11.325" height="2.745" transform="translate(0 2.746) rotate(-14.035)" fill="#2e2e2e"/>
        </g>
      </g>
      <g id="Group_130" data-name="Group 130" transform="translate(2.281 7.467)">
        <g id="Group_129" data-name="Group 129" transform="translate(0 0)">
          <rect id="Rectangle_35" data-name="Rectangle 35" width="2.745" height="11.814" transform="matrix(0.581, -0.814, 0.814, 0.581, 0, 2.234)" fill="#2e2e2e"/>
        </g>
      </g>
      <g id="Group_132" data-name="Group 132" transform="translate(14.049 0)">
        <g id="Group_131" data-name="Group 131" transform="translate(0 0)">
          <rect id="Rectangle_36" data-name="Rectangle 36" width="2.747" height="11.34" transform="matrix(0.969, -0.248, 0.248, 0.969, 0, 0.68)" fill="#2e2e2e"/>
        </g>
      </g>
    </g>
  </g>
</svg>
