<svg xmlns="http://www.w3.org/2000/svg" width="81.899" height="80" viewBox="0 0 81.899 80">
  <g id="cup-of-drink" transform="translate(0 -3.813)">
    <path id="Path_14" data-name="Path 14" d="M99.424,31.006a1.534,1.534,0,0,0,.868.266h0a1.548,1.548,0,0,0,1.484-1.979c-.89-3.9-.468-7.036,1.253-9.329a12.38,12.38,0,0,0,2.4-9.276,9.762,9.762,0,0,0-4.277-6.614,1.57,1.57,0,0,0-1.743.008,1.54,1.54,0,0,0-.628,1.626c.961,4.1.087,6.7-2.1,10.64a12.6,12.6,0,0,0-1.569,7.764A9.7,9.7,0,0,0,99.424,31.006Z" transform="translate(-71.36)" fill="#2e2e2e"/>
    <path id="Path_15" data-name="Path 15" d="M152.948,44.96a1.441,1.441,0,0,0,.818.253h0a1.454,1.454,0,0,0,1.4-1.856c-.675-2.966-.359-5.346.938-7.075a9.918,9.918,0,0,0,1.924-7.433,7.87,7.87,0,0,0-3.447-5.33,1.453,1.453,0,0,0-2.229,1.537c.732,3.123.061,5.111-1.619,8.134a10.082,10.082,0,0,0-1.254,6.217A7.811,7.811,0,0,0,152.948,44.96Z" transform="translate(-112.206 -14.616)" fill="#2e2e2e"/>
    <path id="Path_16" data-name="Path 16" d="M80.584,127.836a5,5,0,0,0-3.878-1.759H69.573a5.465,5.465,0,0,0-1.023-3.774,3.362,3.362,0,0,0-2.656-1.16H4.08a3.811,3.811,0,0,0-3.047,1.281,5.47,5.47,0,0,0-.95,4.267c1.7,10.46,5.381,19.963,10.358,26.756a31.655,31.655,0,0,0,12.9,10.731H6.121a3.879,3.879,0,0,0,0,7.758H63.468a3.879,3.879,0,1,0,0-7.758H46.34a30.042,30.042,0,0,0,10.854-8.152,26.516,26.516,0,0,0,15.66-7.483c4.791-4.5,8.056-10.24,8.959-15.753A6.305,6.305,0,0,0,80.584,127.836ZM63.533,146.251a66.054,66.054,0,0,0,4.559-12.707h5.884A24,24,0,0,1,63.533,146.251Z" transform="translate(0 -88.124)" fill="#2e2e2e"/>
  </g>
</svg>
