<svg xmlns="http://www.w3.org/2000/svg" width="45.333" height="80" viewBox="0 0 45.333 80">
  <g id="flash" transform="translate(-110.933)">
    <g id="Group_91" data-name="Group 91" transform="translate(110.933)">
      <path id="Path_17" data-name="Path 17" d="M156.142,27.437a1.333,1.333,0,0,0-1.208-.771h-15.8l15.593-24.62A1.334,1.334,0,0,0,153.6,0H132.267a1.335,1.335,0,0,0-1.193.737l-20,40a1.334,1.334,0,0,0,1.193,1.929h13.711l-14.94,35.483a1.334,1.334,0,0,0,2.249,1.377L155.954,28.86A1.335,1.335,0,0,0,156.142,27.437Z" transform="translate(-110.933 0)" fill="#2e2e2e"/>
    </g>
  </g>
</svg>
