<svg xmlns="http://www.w3.org/2000/svg" width="67.491" height="80" viewBox="0 0 67.491 80">
  <g id="businessman" transform="translate(-37.758 0)">
    <g id="Group_133" data-name="Group 133" transform="translate(37.758 0)">
      <path id="Path_34" data-name="Path 34" d="M137.355,33.919c.729,4.737,4.389,10.767,10.4,12.887a11.4,11.4,0,0,0,7.636-.017c5.913-2.137,9.69-8.15,10.435-12.87.8-.066,1.839-1.176,2.965-5.168,1.54-5.45-.1-6.261-1.491-6.129a14.444,14.444,0,0,0,.6-2.236c2.352-14.129-4.6-14.609-4.6-14.609A10.729,10.729,0,0,0,159.1,1.884a14.154,14.154,0,0,0-8.6-1.822,12.836,12.836,0,0,0-3.429.646h0A15.066,15.066,0,0,0,143.3,2.646a19.8,19.8,0,0,0-3.876,3.213,15.731,15.731,0,0,0-4.191,7.354,15.968,15.968,0,0,0,.033,7.189h0a13.965,13.965,0,0,0,.6,2.236c-1.391-.133-3.031.679-1.491,6.129C135.516,32.743,136.56,33.853,137.355,33.919Z" transform="translate(-117.851 0)" fill="#2e2e2e"/>
      <path id="Path_35" data-name="Path 35" d="M98.821,281.464a52.535,52.535,0,0,1-15.338-6.99l-5.367,16.978-1.01,3.2-.017-.05-.878,2.716-2.832-8.034c6.957-9.707-1.408-9.607-1.872-9.591-.464-.017-8.829-.116-1.872,9.591L66.8,297.316l-.878-2.716-.017.05-1.01-3.2-5.383-16.978a52.535,52.535,0,0,1-15.338,6.99c-6.311,1.607-6.609,8.895-6.361,12.489,0,0,.364,4.886.729,7.04,0,0,12.324,8,32.962,8.017,20.639,0,32.962-8.017,32.962-8.017.364-2.153.729-7.04.729-7.04C105.43,290.359,105.132,283.071,98.821,281.464Z" transform="translate(-37.758 -229.01)" fill="#2e2e2e"/>
    </g>
  </g>
</svg>
