<svg xmlns="http://www.w3.org/2000/svg" width="80" height="80" viewBox="0 0 80 80">
  <g id="Group_100" data-name="Group 100" transform="translate(-415 -1143)">
    <g id="start-up-dark" transform="translate(415 1143)">
      <path id="Path_26" data-name="Path 26" d="M73.4,289.009a2.346,2.346,0,0,0,.437,2.709l.573.573c1.656-1.962,3.586-4.092,5.927-6.432.165-.165.336-.245.5-.4l-3.687-3.688C75.006,285.65,73.756,288.3,73.4,289.009Zm0,0" transform="translate(-61.72 -237.747)" fill="#2e2e2e"/>
      <path id="Path_27" data-name="Path 27" d="M169.312,390.064c-2.346,2.346-4.47,4.28-6.422,5.937l.776.776a2.343,2.343,0,0,0,2.729.427c1.214-.626,3.123-1.524,7.176-3.781l-3.861-3.861C169.558,389.729,169.478,389.9,169.312,390.064Zm0,0" transform="translate(-137.439 -328.694)" fill="#2e2e2e"/>
      <path id="Path_28" data-name="Path 28" d="M80.9,312.026c-1.694-1.694-6.457-.175-8.694,2.062-7.485,7.485-10.866,12.792-12.384,15.926a2.344,2.344,0,0,0,3.134,3.13c3.063-1.487,8.306-4.852,15.88-12.426,2.46-2.462,3.674-7.081,2.067-8.69Zm0,0" transform="translate(-50.278 -262.661)" fill="#2e2e2e"/>
      <path id="Path_29" data-name="Path 29" d="M7.316,169.4.687,176.026a2.344,2.344,0,0,0,2.264,3.922c3.583-.961,6.735-1.367,8.858-.822a125.767,125.767,0,0,1,9.7-14.8C19.523,163.05,12.954,163.759,7.316,169.4Zm0,0" transform="translate(-0.001 -138.193)" fill="#2e2e2e"/>
      <path id="Path_30" data-name="Path 30" d="M246.93,397.414a2.339,2.339,0,0,0,2.711-.435l6.63-6.629c5.132-5.134,6.036-11.757,4.871-13.857a133.776,133.776,0,0,1-14.813,9.628c.327,1.844.109,3.633-.663,8.857A2.339,2.339,0,0,0,246.93,397.414Zm0,0" transform="translate(-207.259 -317.665)" fill="#2e2e2e"/>
      <path id="Path_31" data-name="Path 31" d="M286.7,139.365a7.031,7.031,0,1,0,9.944,0A7.039,7.039,0,0,0,286.7,139.365Zm0,0" transform="translate(-240.168 -115.854)" fill="#2e2e2e"/>
      <path id="Path_32" data-name="Path 32" d="M407.046,2.287A2.34,2.34,0,0,0,404.883.126a46.334,46.334,0,0,0-17.11,1.993A19.677,19.677,0,0,0,393.6,13.568a19.615,19.615,0,0,0,11.672,5.82A48.47,48.47,0,0,0,407.046,2.287Zm0,0" transform="translate(-327.184 -0.001)" fill="#2e2e2e"/>
      <path id="Path_33" data-name="Path 33" d="M159.579,37.128A24.623,24.623,0,0,1,152.533,24c-14.074,5.772-27.547,18.377-38.193,36.085l5.289,5.289c3.614-1.467,8-1.855,10.784.927s2.391,7.172.925,10.781l5.463,5.463c13.624-8.211,29.486-21.147,36.231-38.359A24.5,24.5,0,0,1,159.579,37.128Zm-3.315,19.887a11.719,11.719,0,1,1,0-16.573A11.733,11.733,0,0,1,156.264,57.016Zm0,0" transform="translate(-96.474 -20.247)" fill="#2e2e2e"/>
    </g>
  </g>
</svg>
