<svg xmlns="http://www.w3.org/2000/svg" width="134.432" height="30" viewBox="0 0 134.432 30">
  <g id="original-wordmark" transform="translate(-2.13 -50.198)">
    <path id="Path_44" data-name="Path 44" d="M40.53,80.192V50.78h1.6v4.627a6.049,6.049,0,0,0,.521-.652A7.907,7.907,0,0,1,49.86,50.28c3.638-.109,6.593,1.238,8.33,4.475a14.38,14.38,0,0,1,.348,13.185c-1.618,3.628-5.615,5.43-9.894,4.768a8,8,0,0,1-6.386-4.214v11.7Zm1.6-19.007c.141,1.434.2,2.455.358,3.454.63,3.932,2.954,6.267,6.6,6.69a7.5,7.5,0,0,0,8.243-4.768,12.783,12.783,0,0,0-.282-10.513,7.353,7.353,0,0,0-7.744-4.279,7.157,7.157,0,0,0-6.4,5.289,36.278,36.278,0,0,0-.782,4.127Z" transform="translate(3.306 0.007)" fill="#2e2e2e"/>
    <path id="Path_45" data-name="Path 45" d="M89.9,65.184a8.6,8.6,0,0,1-8.406,7.6c-6.69.337-9.829-4.105-10.329-9.232a14.793,14.793,0,0,1,1.3-8.146,9.091,9.091,0,0,1,9.46-5.072,8.689,8.689,0,0,1,7.711,6.614,44.626,44.626,0,0,1,.749,4.887H72.809c-.326,4.648,2.172,8.385,5.713,9.286,4.41,1.086,8.178-.825,9.547-5.018C88.373,65.032,88.927,64.88,89.9,65.184Zm-17.1-4.833H88.525c-.1-4.953-3.182-8.537-7.364-8.591C76.426,51.684,73.015,55.138,72.809,60.351Z" transform="translate(5.934 0.004)" fill="#2e2e2e"/>
    <path id="Path_46" data-name="Path 46" d="M91.39,65.3h1.542a6.18,6.18,0,0,0,3.628,5.322,9.482,9.482,0,0,0,8.233-.217,3.7,3.7,0,0,0,2.172-3.638,3.356,3.356,0,0,0-2.259-3.356c-1.694-.63-3.5-.978-5.224-1.531a38.285,38.285,0,0,1-5.257-1.922c-2.78-1.358-2.954-6.647.2-8.319a11.089,11.089,0,0,1,10.6-.163,5.583,5.583,0,0,1,2.824,5.691h-1.325c0-.065-.119-.119-.119-.185-.163-4.225-3.7-5.528-7.5-5.159a9.96,9.96,0,0,0-3.258.988,3.478,3.478,0,0,0,.282,6.321c1.673.608,3.421,1,5.137,1.477,1.379.38,2.813.63,4.149,1.086a4.9,4.9,0,0,1,3.367,4.42,5.224,5.224,0,0,1-2.813,5.43c-3.628,2.053-9.6,1.51-12.262-1.086A7.244,7.244,0,0,1,91.39,65.3Z" transform="translate(7.685 0)" fill="#2e2e2e"/>
    <path id="Path_47" data-name="Path 47" d="M126.512,57.159h-1.444a3.582,3.582,0,0,0-.1-.532,4.725,4.725,0,0,0-3.845-4.54,9.482,9.482,0,0,0-6.093.293,3.7,3.7,0,0,0-2.683,3.53,3.41,3.41,0,0,0,2.607,3.432c2.172.673,4.4,1.086,6.6,1.694a18.463,18.463,0,0,1,2.107.641,5.43,5.43,0,0,1,.293,10.112,12.088,12.088,0,0,1-9.775.1,6.777,6.777,0,0,1-4.084-6.582h1.412a7.918,7.918,0,0,0,12.056,5.039,3.877,3.877,0,0,0,2.085-3.628,3.356,3.356,0,0,0-2.292-3.334c-1.694-.63-3.5-.967-5.224-1.521a38.48,38.48,0,0,1-5.289-1.9c-2.715-1.336-2.932-6.582.163-8.254a10.937,10.937,0,0,1,10.774-.119A5.68,5.68,0,0,1,126.512,57.159Z" transform="translate(9.295 0.003)" fill="#2e2e2e"/>
    <path id="Path_48" data-name="Path 48" d="M39.6,72.223a2.487,2.487,0,0,1-3.085-1.173c-1.77-2.65-3.725-5.181-5.6-7.766L30.1,62.2c-2.237,3-4.475,5.876-6.517,8.863a2.389,2.389,0,0,1-2.932,1.151l8.4-11.263L21.236,50.772a2.6,2.6,0,0,1,3.1,1.086c1.814,2.65,3.823,5.181,5.821,7.863,2.009-2.661,4-5.2,5.854-7.831A2.335,2.335,0,0,1,38.918,50.8l-3.03,4.019c-1.358,1.792-2.694,3.595-4.105,5.344a1.086,1.086,0,0,0,0,1.618C34.378,65.228,36.952,68.682,39.6,72.223Z" transform="translate(1.594 0.036)" fill="#2e2e2e"/>
    <path id="Path_49" data-name="Path 49" d="M71.708,50.66v1.521a7.874,7.874,0,0,0-8.385,8.135V72.262H61.77V50.747h1.521v4.41C65.169,51.942,68.069,50.747,71.708,50.66Z" transform="translate(5.135 0.04)" fill="#2e2e2e"/>
    <path id="Path_50" data-name="Path 50" d="M2.13,60.844c.228-1.086.369-2.27.684-3.378,1.879-6.679,9.536-9.46,14.8-5.322,3.085,2.422,3.856,5.854,3.7,9.721H3.944c-.282,6.908,4.7,11.078,11.078,8.949a6.614,6.614,0,0,0,4.2-4.681c.337-1.086.88-1.271,1.912-.956a8.819,8.819,0,0,1-4.214,6.441A10.209,10.209,0,0,1,5.03,70.1,10.7,10.7,0,0,1,2.358,63.82a5.2,5.2,0,0,0-.217-1.086Q2.13,61.767,2.13,60.844Zm1.836-.467H19.681c-.1-5.007-3.258-8.558-7.472-8.591-4.692-.065-8.048,3.41-8.254,8.569Z" transform="translate(0 0)" fill="#2e2e2e"/>
  </g>
</svg>
