<svg xmlns="http://www.w3.org/2000/svg" width="70.001" height="70" viewBox="0 0 70.001 70">
  <path id="git-original" d="M69.563,32.766,39,2.2a4.509,4.509,0,0,0-6.375,0L26.278,8.551,34.329,16.6a5.353,5.353,0,0,1,6.78,6.825l7.759,7.759a5.357,5.357,0,1,1-3.213,3.024l-7.235-7.235V46.017a5.354,5.354,0,1,1-4.41-.156V26.641A5.368,5.368,0,0,1,31.1,19.606L23.16,11.669,2.2,32.624A4.51,4.51,0,0,0,2.2,39L32.767,69.563a4.51,4.51,0,0,0,6.376,0l30.42-30.42a4.511,4.511,0,0,0,0-6.378Z" transform="translate(-0.883 -0.884)" fill="#222"/>
</svg>
