<svg xmlns="http://www.w3.org/2000/svg" width="70" height="70" viewBox="0 0 70 70">
  <path id="javascript-plain" d="M2,1V71H72V1ZM39.027,60.647a8.277,8.277,0,0,1-5.291,4.145,12.727,12.727,0,0,1-9.369-1.153A10.537,10.537,0,0,1,20.5,59.214l5.331-3.265a3.374,3.374,0,0,1,.374.6,5.629,5.629,0,0,0,2.419,2.512c1.132.386,3.618.633,4.578-1.359.586-1.014.4-4.272.4-7.876,0-5.664.026-11.305.026-16.905h6.557c0,6.16.034,11.994,0,18.005.014,3.685.334,6.97-1.159,9.722Zm27.2-1.852c-2.279,7.8-14.987,8.049-20.065,2.9a11.848,11.848,0,0,1-2.386-3.245c2.7-1.552,2.7-1.552,5.324-3.072,1.426,2.192,2.745,3.4,5.118,3.891,3.219.393,6.457-.713,5.731-4.132-.746-2.792-6.591-3.471-10.569-6.457a9.178,9.178,0,0,1-1.666-13.068,9.368,9.368,0,0,1,4.971-2.932l2.065-.267c3.965-.08,6.444.967,8.263,3a13.087,13.087,0,0,1,1.692,2.265C62.6,39.023,62.6,39.01,59.577,40.969a4.882,4.882,0,0,0-2.852-2.645c-1.76-.533-3.978.046-4.439,1.906a3.619,3.619,0,0,0,.127,2.052c.713,1.626,3.105,2.332,5.251,3.319,6.177,2.505,8.263,5.192,8.776,8.389a9.617,9.617,0,0,1-.213,4.805Z" transform="translate(-2 -1)" fill="#2e2e2e"/>
</svg>
