<svg xmlns="http://www.w3.org/2000/svg" width="98.663" height="50" viewBox="0 0 98.663 50">
  <path id="php-plain" d="M52.237,33.039c-27.244,0-49.331,11.193-49.331,25s22.087,25,49.331,25,49.331-11.193,49.331-25S79.481,33.039,52.237,33.039ZM39.4,62.91a9.644,9.644,0,0,1-3.924,2.024,19.324,19.324,0,0,1-5.5.372H24.928l-1.4,8.075h-5.9l5.261-27.454H34.231c3.411,0,5.9.981,7.463,2.771s2.034,4.331,1.411,7.539a11.875,11.875,0,0,1-3.7,6.672Zm17.208,2.4,2.326-11.644c.265-1.363.168-2.376-.291-2.871a4.059,4.059,0,0,0-2.935-.828H51.033L48.021,65.306H42.172L47.432,38.66h5.849l-1.4,7.267h5.211c3.279,0,5.54.658,6.784,1.8S65.5,50.438,65,53L62.55,65.306ZM89.117,56.28a11.762,11.762,0,0,1-3.7,6.629,9.649,9.649,0,0,1-3.924,2.024,19.328,19.328,0,0,1-5.5.372H70.942l-1.4,8.075h-5.9l5.26-27.454H80.245c3.411,0,5.9.981,7.462,2.771S89.74,53.073,89.117,56.28ZM78.011,49.964H73.973l-2.2,11.3h3.587c2.376,0,4.147-.234,5.31-1.13a6.835,6.835,0,0,0,2.356-4.377c.391-2.011.213-3.58-.533-4.407S80.251,49.964,78.011,49.964ZM32,49.964H27.958l-2.2,11.3h3.586c2.376,0,4.147-.234,5.311-1.13a6.834,6.834,0,0,0,2.355-4.377c.391-2.011.213-3.58-.533-4.407S34.237,49.964,32,49.964Z" transform="translate(-2.906 -33.039)" fill="#222"/>
</svg>
