<svg xmlns="http://www.w3.org/2000/svg" width="93.595" height="70" viewBox="0 0 93.595 70">
  <path id="sass-original" d="M1.219,46.189A4.128,4.128,0,0,0,1.46,47.4,14.823,14.823,0,0,0,4.672,53.17a38.07,38.07,0,0,0,7.122,6.249c2.227,1.6,4.5,3.167,6.737,4.756.384.273.747.587,1.164.921-.359.194-.657.365-.967.522a51.75,51.75,0,0,0-8.408,5.208,17.2,17.2,0,0,0-4.18,4.23c-1.733,2.737-2.347,5.654-1.055,8.767A5.175,5.175,0,0,0,6.849,86.1a2.608,2.608,0,0,0,.866.447c.789.186,1.592.307,2.391.454h2.261A14.067,14.067,0,0,0,19.2,84.5a14.994,14.994,0,0,0,6.311-9.01,15.9,15.9,0,0,0-.093-8.314c-.074-.256-.167-.508-.264-.756s-.211-.49-.345-.8l5.126-2.948.077.066c-.093.3-.192.609-.277.917a20.759,20.759,0,0,0-.868,6.8,13.042,13.042,0,0,0,2.282,6.818,3.306,3.306,0,0,0,5.176.056,11.938,11.938,0,0,0,1.185-1.873c.836-1.726,1.609-3.482,2.408-5.226l.139-.319c-.057.826-.124,1.551-.155,2.277a8.68,8.68,0,0,0,.406,3.34,2.306,2.306,0,0,0,1.953,1.734,2.455,2.455,0,0,0,1.831-.668A7.741,7.741,0,0,0,46.1,74.2c1.417-2.6,2.872-5.189,4.157-7.857,1.39-2.886,2.6-5.856,3.9-8.79l.213-.52c.3,1.2.517,2.371.909,3.482A32.908,32.908,0,0,0,56.9,64.29a1.128,1.128,0,0,1-.145,1.437c-1.682,2.028-3.334,4.08-4.989,6.13a13.77,13.77,0,0,0-1.035,1.407,2.759,2.759,0,0,0-.358,1.017,1.3,1.3,0,0,0,1.031,1.469,7.2,7.2,0,0,0,2.019.144,11.824,11.824,0,0,0,6.258-2.353,6.561,6.561,0,0,0,2.59-7.083,16.454,16.454,0,0,0-.706-2.292.846.846,0,0,1,.092-.893,72.943,72.943,0,0,0,5.085-8.624,1.777,1.777,0,0,1,.228-.359,22.4,22.4,0,0,0,2.571,7.3c-.68.655-1.353,1.249-1.962,1.9A13.125,13.125,0,0,0,64.47,68.41a5.808,5.808,0,0,0-.345,2.538,2.139,2.139,0,0,0,2.641,1.941,12,12,0,0,0,7.165-4.417,5.807,5.807,0,0,0,.82-5.3c-.14-.513-.306-1.018-.485-1.606.709-.22,1.4-.484,2.115-.647a18.745,18.745,0,0,1,10.96.641,8.271,8.271,0,0,1,4.775,4.153,4.791,4.791,0,0,1-1.828,6.5,4.072,4.072,0,0,0-.658.451.648.648,0,0,0-.153.5c.016.092.258.206.4.205a3.634,3.634,0,0,0,2.021-.836A6.224,6.224,0,0,0,94.767,68.2l.047-.14-.057-1.215c-.023-.07.017-.139.012-.192a9.528,9.528,0,0,0-3.886-6.477A14.175,14.175,0,0,0,82.5,57.348a18.935,18.935,0,0,0-7.279,1.12c-.669.242-1.331.529-2,.8-.09-.163-.187-.32-.267-.482A13.624,13.624,0,0,1,71.235,54.4a9.816,9.816,0,0,1-.019-3.439c.263-1.1.606-2.172.929-3.252a.792.792,0,0,0-.482-1.118,2.128,2.128,0,0,0-.586-.192,9.024,9.024,0,0,0-3.855.286,1.1,1.1,0,0,0-.871.876c-.057.284-.172.556-.253.836A20.92,20.92,0,0,1,65,51.862c-1.337,2.784-2.864,5.463-4.427,8.123-.169.287-.347.569-.561.917A12.016,12.016,0,0,1,58.7,57.516a10.391,10.391,0,0,1-.019-4.084c.253-1.011.583-2,.887-3a.7.7,0,0,0-.352-.973,2.069,2.069,0,0,0-.707-.274,8.68,8.68,0,0,0-3.991.327,1.078,1.078,0,0,0-.741.81A31.25,31.25,0,0,1,52.6,53.985c-2.068,4.741-4.2,9.458-6.321,14.173-.444.985-.963,1.935-1.463,2.894a6.719,6.719,0,0,1-.47.685.559.559,0,0,1-.175-.356,9.816,9.816,0,0,1,.047-1.816c.35-1.773.752-3.536,1.176-5.292.35-1.451.758-2.888,1.147-4.329a1.359,1.359,0,0,0-.214-1.339,2,2,0,0,0-2.52-.3l-.319.18.062-.514a8.013,8.013,0,0,0-.12-3.287,2.616,2.616,0,0,0-2.748-2.09,5.9,5.9,0,0,0-1.948.37,14.731,14.731,0,0,0-6.177,4.9,1.932,1.932,0,0,1-.564.488c-2.157,1.2-4.32,2.377-6.482,3.562L23.1,63.225c-.646-.616-1.232-1.255-1.9-1.8-2.033-1.658-4.1-3.275-6.146-4.914a24.222,24.222,0,0,1-4.917-4.89,8.754,8.754,0,0,1-1.707-4.767,11.189,11.189,0,0,1,1.709-6.234,23.913,23.913,0,0,1,5.674-6.207,52.562,52.562,0,0,1,7.461-4.949,56.276,56.276,0,0,1,11.441-5.05,31.624,31.624,0,0,1,12.647-1.438,12.994,12.994,0,0,1,4.866,1.413,5.02,5.02,0,0,1,2.555,2.77,6.927,6.927,0,0,1,.121,3.879,14.809,14.809,0,0,1-3.873,6.746,26.172,26.172,0,0,1-10.7,6.777,29.429,29.429,0,0,1-7.279,1.553A13.708,13.708,0,0,1,27.1,45.4a7.743,7.743,0,0,1-3.279-2.227c-.16-.186-.364-.388-.661-.214a.565.565,0,0,0-.245.73,7.149,7.149,0,0,0,.568,1.37,7.8,7.8,0,0,0,2.6,2.459,12.7,12.7,0,0,0,6.456,1.772,32.477,32.477,0,0,0,10.178-1.3,24.971,24.971,0,0,0,12.214-7.368,18.761,18.761,0,0,0,5.159-10.749,10.4,10.4,0,0,0-.972-5.922,10.7,10.7,0,0,0-4.67-4.566A19.772,19.772,0,0,0,45.251,17H42.038A33.257,33.257,0,0,0,30.75,19.441a77.545,77.545,0,0,0-8.1,3.506A52.379,52.379,0,0,0,7.206,34a23.061,23.061,0,0,0-5.094,8.043c-.311.9-.606,1.863-.828,2.792M22.037,71.686a11.848,11.848,0,0,1-4.217,8.2A9.593,9.593,0,0,1,13,82.3a3.541,3.541,0,0,1-2.008-.14,2.049,2.049,0,0,1-1.154-2.1,7.589,7.589,0,0,1,1.134-3.866A13.819,13.819,0,0,1,14.5,72.311a54.161,54.161,0,0,1,6.909-4.655l.181-.075a12.126,12.126,0,0,1,.445,4.105ZM40.791,57.24a25.08,25.08,0,0,1-.7,3.153,92.939,92.939,0,0,1-3.938,10.416,17.968,17.968,0,0,1-1.024,1.8,1.259,1.259,0,0,1-.211.249c-.431.426-.839.4-1.057-.154a11.737,11.737,0,0,1-.543-2.025,10.729,10.729,0,0,1-.1-1.414A17.724,17.724,0,0,1,36,60.038a8.629,8.629,0,0,1,2.682-3.022,4.674,4.674,0,0,1,1.189-.526c.634-.178,1.023.115.918.75Zm12.8,16.3,4.6-5.37C58.376,70.166,54.987,74.147,53.586,73.541Zm14.688-3.613c-.325.186-.679.321-1.012.493-.3.158-.406,0-.414-.264a1.778,1.778,0,0,1,.069-.537,11.56,11.56,0,0,1,3.464-5.58l.119-.061a4.926,4.926,0,0,1-2.226,5.95Z" transform="translate(-1.219 -17)" fill="#222" fill-rule="evenodd"/>
</svg>
