<svg xmlns="http://www.w3.org/2000/svg" width="60.136" height="70" viewBox="0 0 60.136 70">
  <g id="database" transform="translate(-4.1)">
    <path id="Path_54" data-name="Path 54" d="M37.3,34.1q-1.57.049-3.134.051c-1.045,0-2.1-.017-3.144-.051C22.2,33.856,15.16,32.609,10.094,30.83A24.58,24.58,0,0,1,4.1,28V39.306c3.423,3.573,14.907,6.869,30.068,6.869s26.645-3.3,30.068-6.869V28a24.639,24.639,0,0,1-6.044,2.847C53.129,32.617,46.108,33.857,37.3,34.1Z" transform="translate(0 5.676)" fill="#222"/>
    <path id="Path_55" data-name="Path 55" d="M4.1,14.889V26.195c3.173,3.312,13.27,6.386,26.8,6.817.138,0,.28.006.42.01.392.011.783.022,1.181.028q.824.014,1.663.014t1.663-.013c.4-.006.789-.017,1.181-.028l.42-.01c13.534-.432,23.631-3.506,26.8-6.817V14.889c-5.854,4.021-18.229,6.147-30.068,6.147S9.955,18.91,4.1,14.889Z" transform="translate(0 3.018)" fill="#222"/>
    <path id="Path_56" data-name="Path 56" d="M64.074,10.274C62.725,5.1,52.347,0,34.168,0,16.035,0,5.668,5.076,4.277,10.235a1.167,1.167,0,0,0-.177.589V13.6c3.412,3.561,14.814,6.848,30.068,6.848S60.825,17.159,64.236,13.6V10.825A1.107,1.107,0,0,0,64.074,10.274Z" fill="#222"/>
    <path id="Path_57" data-name="Path 57" d="M4.1,41v9.864a1.131,1.131,0,0,0,.141.542c1.42,5.887,14.128,10.282,29.927,10.282,15.763,0,28.451-4.377,29.918-10.242a1.2,1.2,0,0,0,.15-.582V41c-4.973,3.5-15.221,6.253-30.068,6.253S9.072,44.5,4.1,41Z" transform="translate(0 8.312)" fill="#222"/>
  </g>
</svg>
