<svg id="strapi" xmlns="http://www.w3.org/2000/svg" width="66.16" height="70" viewBox="0 0 66.16 70">
  <path id="Path_96" data-name="Path 96" d="M30.122,0,0,17.562v7.79l12.835,7.7,10.777-5.871V20.349l22.82-13.1,16.035,9.236-.019,18.466L40.463,47.612,33.1,44.889,23.3,51.14,23.551,66.1,30.3,70,60.667,52.695v-10.4l-3.414,1.838v6.612L30.306,66.021l-3.338-1.927L26.786,53.1l6.324-4.226L40.732,51.6,66.16,36.934l-.242-22.55L46.436,3.265,20.162,18.351v6.825l-7.286,3.874L3.45,23.4V19.544l26.591-15.5L35.623,7.6,39,5.656ZM48.088,18.373,42.432,21.8l.144,6.613,5.8,3.182,5.655-3.431-.144-6.613-5.8-3.182Zm.065,2.987,3.18,1.744.079,3.626-3.1,1.881-3.179-1.744-.079-3.626,3.1-1.881Zm-29.1,15.086L18.282,35a.653.653,0,0,0-.882-.273l-5.012,2.644a.653.653,0,0,0-.273.883l.766,1.452a.653.653,0,0,0,.882.273l5.011-2.645a.653.653,0,0,0,.273-.883m2.9,4.405L21.18,39.4a.653.653,0,0,0-.907-.259l-8.452,4.942a.653.653,0,0,0-.248.869l.765,1.451a.653.653,0,0,0,.907.259L21.7,41.72a.653.653,0,0,0,.248-.869m.789,2.981L12.8,49.544a.653.653,0,0,0-.252.871l.766,1.451a.653.653,0,0,0,.9.262l9.937-5.711a.653.653,0,0,0,.252-.871l-.766-1.451a.653.653,0,0,0-.9-.261" fill="#2e2e2e"/>
</svg>
