<svg xmlns="http://www.w3.org/2000/svg" width="69.78" height="70" viewBox="0 0 69.78 70">
  <path id="wordpress-plain" d="M36.828,71.6A34.944,34.944,0,0,0,71.665,36.595c0-19-15.513-34.655-34.046-34.986C18.155,1.261,1.89,17.055,1.885,36.208A34.966,34.966,0,0,0,36.828,71.6ZM36.771,3.3C55.255,3.3,69.982,18.315,69.977,37.163c-.006,17.794-15.124,32.68-33.192,32.684A33.272,33.272,0,0,1,36.771,3.3ZM22.821,20.865c.3,1.007-.544,1.358-1.443,1.428l-2.991.228c3.626,10.8,7.2,21.447,10.855,32.339a5.5,5.5,0,0,0,.415-.687c2.008-6,4.026-12,5.983-18.013a3.107,3.107,0,0,0-.106-1.84c-1.035-2.988-2.275-5.911-3.183-8.936-.621-2.07-1.444-3.41-3.891-3.17-.417.041-.926-.856-1.392-1.319.565-.337,1.125-.957,1.695-.966q7.475-.114,14.951,0c.572.01,1.132.646,1.7.991-.494.452-.921,1.129-1.5,1.3a15.923,15.923,0,0,1-3.066.326L51.714,54.887c1.646-5.469,3.178-10.49,4.668-15.525a15.162,15.162,0,0,0-1.866-12.65A17.8,17.8,0,0,1,52.5,23.069a10.46,10.46,0,0,1-.6-4.639c.418-2.51,2.345-3.757,4.951-4C42.579,1.2,20.166,5.936,11.907,20.318c3.179-.147,6.215-.339,9.252-.381a2.075,2.075,0,0,1,1.661.928Zm5.683,43.8a5.161,5.161,0,0,0-.122.731,30.4,30.4,0,0,0,18.345-.5L37.3,39.08C34.284,47.849,31.391,56.254,28.5,64.662Zm-4.75-1.167L9.553,24.541C3.147,37.054,8.02,56.147,23.754,63.495Zm42.93-25.031c.45-5.917-1.591-14.109-3.353-15.236-.2,2.177-.06,4.6-.684,6.8-1.47,5.2-3.267,10.307-5,15.429-1.882,5.568-3.838,11.11-5.761,16.663C60.925,56.767,65.892,48.858,66.684,38.464Z" transform="translate(-1.885 -1.603)" fill="#222" fill-rule="evenodd"/>
</svg>
