<svg xmlns="http://www.w3.org/2000/svg" xmlns:xlink="http://www.w3.org/1999/xlink" width="449" height="280" viewBox="0 0 449 280">
  <defs>
    <linearGradient id="linear-gradient" x1="0.5" x2="0.5" y2="1" gradientUnits="objectBoundingBox">
      <stop offset="0" stop-color="#9763d3"/>
      <stop offset="1" stop-color="#4d5bc3"/>
    </linearGradient>
  </defs>
  <g id="Group_68" data-name="Group 68" transform="translate(-251 -540)">
    <rect id="Rectangle_24" data-name="Rectangle 24" width="449" height="280" transform="translate(251 540)" fill="url(#linear-gradient)"/>
    <g id="Group_5" data-name="Group 5" transform="translate(-60 577)">
      <text id="GYM_FREAK" data-name="GYM FREAK" transform="translate(469 154)" fill="#fff" font-size="24" font-family="LucidaGrande, Lucida Grande"><tspan x="0" y="0">GYM FREAK</tspan></text>
      <g id="Group_4" data-name="Group 4" transform="translate(474.5 47)">
        <path id="Rectangle_1" data-name="Rectangle 1" d="M2,0H8.5a2,2,0,0,1,2,2V22.75a0,0,0,0,1,0,0H0a0,0,0,0,1,0,0V2A2,2,0,0,1,2,0Z" transform="translate(0 10.5)" fill="#fff"/>
        <path id="Rectangle_2" data-name="Rectangle 2" d="M2,0H13.75a2,2,0,0,1,2,2V33.25a0,0,0,0,1,0,0H0a0,0,0,0,1,0,0V2A2,2,0,0,1,2,0Z" transform="translate(14)" fill="#fff"/>
        <path id="Rectangle_3" data-name="Rectangle 3" d="M2,0H13.75a2,2,0,0,1,2,2V33.25a0,0,0,0,1,0,0H0a0,0,0,0,1,0,0V2A2,2,0,0,1,2,0Z" transform="translate(92.75)" fill="#fff"/>
        <path id="Rectangle_4" data-name="Rectangle 4" d="M2,0H8.5a2,2,0,0,1,2,2V22.75a0,0,0,0,1,0,0H0a0,0,0,0,1,0,0V2A2,2,0,0,1,2,0Z" transform="translate(112 10.5)" fill="#fff"/>
        <path id="Rectangle_5" data-name="Rectangle 5" d="M2,0H24.25a2,2,0,0,1,2,2V8.75a0,0,0,0,1,0,0H0a0,0,0,0,1,0,0V2A2,2,0,0,1,2,0Z" transform="translate(33.25 24.5)" fill="#fff"/>
        <path id="Rectangle_6" data-name="Rectangle 6" d="M2,0H24.25a2,2,0,0,1,2,2V8.75a0,0,0,0,1,0,0H0a0,0,0,0,1,0,0V2A2,2,0,0,1,2,0Z" transform="translate(63 24.5)" fill="#fff"/>
        <path id="Rectangle_7" data-name="Rectangle 7" d="M0,0H10.5a0,0,0,0,1,0,0V20.75a2,2,0,0,1-2,2H2a2,2,0,0,1-2-2V0A0,0,0,0,1,0,0Z" transform="translate(0 36.75)" fill="#fff"/>
        <path id="Rectangle_8" data-name="Rectangle 8" d="M0,0H10.5a0,0,0,0,1,0,0V20.75a2,2,0,0,1-2,2H2a2,2,0,0,1-2-2V0A0,0,0,0,1,0,0Z" transform="translate(112 36.75)" fill="#fff"/>
        <path id="Rectangle_9" data-name="Rectangle 9" d="M0,0H15.75a0,0,0,0,1,0,0V31.25a2,2,0,0,1-2,2H2a2,2,0,0,1-2-2V0A0,0,0,0,1,0,0Z" transform="translate(92.75 36.75)" fill="#fff"/>
        <path id="Rectangle_10" data-name="Rectangle 10" d="M0,0H15.75a0,0,0,0,1,0,0V31.25a2,2,0,0,1-2,2H2a2,2,0,0,1-2-2V0A0,0,0,0,1,0,0Z" transform="translate(14 36.75)" fill="#fff"/>
        <path id="Rectangle_11" data-name="Rectangle 11" d="M0,0H26.25a0,0,0,0,1,0,0V6.75a2,2,0,0,1-2,2H2a2,2,0,0,1-2-2V0A0,0,0,0,1,0,0Z" transform="translate(63 36.75)" fill="#fff"/>
        <path id="Rectangle_12" data-name="Rectangle 12" d="M0,0H26.25a0,0,0,0,1,0,0V6.75a2,2,0,0,1-2,2H2a2,2,0,0,1-2-2V0A0,0,0,0,1,0,0Z" transform="translate(33.25 36.75)" fill="#fff"/>
      </g>
    </g>
  </g>
</svg>
