<svg xmlns="http://www.w3.org/2000/svg" xmlns:xlink="http://www.w3.org/1999/xlink" width="449" height="280" viewBox="0 0 449 280">
  <defs>
    <clipPath id="clip-path">
      <path id="path4191" d="M52.861,93.344l-1.5-13.233L30.889,47.654,68.34,36.169l6.741,6.242,12.733-6.741L57.355,7.706,15.41,24.934,7.67,55.643,24.648,95.591l18.226,1.748Z" transform="translate(-7.67 -7.706)" fill="none" stroke="#000" stroke-width="0.165" clip-rule="evenodd"/>
    </clipPath>
  </defs>
  <g id="Group_67" data-name="Group 67" transform="translate(-730 -540)">
    <rect id="Rectangle_26" data-name="Rectangle 26" width="449" height="280" transform="translate(730 540)" fill="#212121"/>
    <g id="keepyourtime" transform="translate(733.377 557.057)">
      <text id="KeepYourTime-2" data-name="KeepYourTime" transform="translate(126.137 148.071)" fill="#85c780" font-size="35" font-family="Helvetica-Bold, Helvetica" font-weight="700"><tspan x="0" y="0">KeepYourTime</tspan></text>
      <g id="g4344" transform="translate(71.892 78.571)">
        <g id="g4351" transform="translate(0 0)">
          <g id="Group_27" data-name="Group 27" transform="translate(0 0)" clip-path="url(#clip-path)">
            <path id="path4151" d="M37.238,79.089c-6.881-1.85-10.762-4.266-16.028-9.979C14.66,62,12.684,56.775,12.75,46.72c.068-10.414,2.438-16.046,9.918-23.565,15.767-15.849,43.119-11.02,53.137,9.381,2.4,4.881,2.8,6.908,2.8,14.184,0,7.119-.425,9.375-2.634,13.982A32.768,32.768,0,0,1,53.675,79.133c-7.163,1.855-9.393,1.849-16.437-.044Z" transform="translate(-2.003 -0.98)" fill="none" stroke="#85c780" stroke-linecap="round" stroke-linejoin="round" stroke-width="2.478"/>
          </g>
          <path id="path4193" d="M26.373,14.2l4.841,7.24,5.021-7.021Z" transform="translate(13.2 -0.464)" fill="#85c780" fill-rule="evenodd"/>
          <path id="path4224" d="M13.374,36.6l7.218-4.875-7.044-4.988Z" transform="translate(-1.305 13.534)" fill="#85c780" fill-rule="evenodd"/>
          <path id="path4241" d="M29.036,41.224l9.116-22.695Z" transform="translate(16.171 4.371)" fill="none" stroke="#85c780" stroke-linecap="round" stroke-linejoin="round" stroke-width="1.841" fill-rule="evenodd"/>
          <path id="path4243" d="M19.124,34.563l20.391-5.595Z" transform="translate(5.111 16.02)" fill="none" stroke="#85c780" stroke-linecap="round" stroke-linejoin="round" stroke-width="2.543" fill-rule="evenodd"/>
        </g>
      </g>
    </g>
  </g>
</svg>
