<svg xmlns="http://www.w3.org/2000/svg" width="50" height="50" viewBox="0 0 50 50">
  <g id="plane" transform="translate(0 0)">
    <g id="Group_222" data-name="Group 222" transform="translate(5.274 0)">
      <g id="Group_221" data-name="Group 221" transform="translate(0 0)">
        <path id="Path_100" data-name="Path 100" d="M98.233.128a.976.976,0,0,0-.981.008l-17.9,10.582a.977.977,0,1,0,.994,1.681l12.84-7.593L69.274,29.622l-11.9-3.639L72.9,16.8a.977.977,0,0,0-.994-1.681L54.479,25.429A.977.977,0,0,0,54.69,27.2L68.9,31.549l6.267,11.408a.231.231,0,0,0,.02.031.974.974,0,0,0,1.518.2l7.206-7.043,13.555,4.147a.977.977,0,0,0,1.262-.934V.976A.977.977,0,0,0,98.233.128ZM75.217,32.151a.977.977,0,0,0-.174.556v5.974l-4.28-7.79L89.7,11.242ZM77,40.167V34.027l4.784,1.464Zm19.777-2.131L77.584,32.164l19.189-27.7Z" transform="translate(-53.999 0)" fill="#2e2e2e"/>
      </g>
    </g>
    <g id="Group_224" data-name="Group 224" transform="translate(5.274 33.657)">
      <g id="Group_223" data-name="Group 223">
        <path id="Path_101" data-name="Path 101" d="M64.783,344.934a.977.977,0,0,0-1.381,0l-9.116,9.116a.977.977,0,0,0,1.381,1.381l9.116-9.116A.977.977,0,0,0,64.783,344.934Z" transform="translate(-53.999 -344.648)" fill="#2e2e2e"/>
      </g>
    </g>
    <g id="Group_226" data-name="Group 226" transform="translate(0 45.801)">
      <g id="Group_225" data-name="Group 225" transform="translate(0)">
        <path id="Path_102" data-name="Path 102" d="M3.913,469.287a.977.977,0,0,0-1.381,0L.286,471.533a.977.977,0,1,0,1.381,1.381l2.246-2.246A.977.977,0,0,0,3.913,469.287Z" transform="translate(0 -469.001)" fill="#2e2e2e"/>
      </g>
    </g>
    <g id="Group_228" data-name="Group 228" transform="translate(12.264 47.989)">
      <g id="Group_227" data-name="Group 227">
        <path id="Path_103" data-name="Path 103" d="M127.247,491.7a.976.976,0,1,0,.286.69A.984.984,0,0,0,127.247,491.7Z" transform="translate(-125.58 -491.41)" fill="#2e2e2e"/>
      </g>
    </g>
    <g id="Group_230" data-name="Group 230" transform="translate(14.701 40.723)">
      <g id="Group_229" data-name="Group 229">
        <path id="Path_104" data-name="Path 104" d="M157.03,417.292a.977.977,0,0,0-1.381,0l-4.829,4.829A.977.977,0,1,0,152.2,423.5l4.829-4.829A.977.977,0,0,0,157.03,417.292Z" transform="translate(-150.534 -417.006)" fill="#2e2e2e"/>
      </g>
    </g>
    <g id="Group_232" data-name="Group 232" transform="translate(31.353 40.352)">
      <g id="Group_231" data-name="Group 231">
        <path id="Path_105" data-name="Path 105" d="M327.562,413.5a.977.977,0,0,0-1.381,0l-4.842,4.842a.977.977,0,1,0,1.381,1.381l4.842-4.842A.977.977,0,0,0,327.562,413.5Z" transform="translate(-321.053 -413.211)" fill="#2e2e2e"/>
      </g>
    </g>
    <g id="Group_234" data-name="Group 234" transform="translate(26.019 13.025)">
      <g id="Group_233" data-name="Group 233">
        <path id="Path_106" data-name="Path 106" d="M268.1,133.666a.976.976,0,1,0,.286.691A.984.984,0,0,0,268.1,133.666Z" transform="translate(-266.43 -133.38)" fill="#2e2e2e"/>
      </g>
    </g>
  </g>
</svg>
