<svg xmlns="http://www.w3.org/2000/svg" width="38.182" height="30" viewBox="0 0 38.182 30">
  <g id="envelope" transform="translate(0 -54.82)">
    <g id="Group_170" data-name="Group 170" transform="translate(0 54.82)">
      <path id="Path_71" data-name="Path 71" d="M3.665,64.067q.724.511,4.368,3.036t5.582,3.888q.213.149.905.65t1.15.81q.458.309,1.108.692A6.429,6.429,0,0,0,18,73.718a3.376,3.376,0,0,0,1.065.192h.043a3.379,3.379,0,0,0,1.065-.192,6.435,6.435,0,0,0,1.225-.575q.65-.384,1.108-.692t1.151-.81q.692-.5.906-.65,1.96-1.363,9.972-6.925a10.122,10.122,0,0,0,2.6-2.621,5.627,5.627,0,0,0,1.044-3.217,3.438,3.438,0,0,0-3.409-3.409H3.409A3.043,3.043,0,0,0,.884,55.928,4.3,4.3,0,0,0,0,58.7a4.977,4.977,0,0,0,1.172,2.909A10.576,10.576,0,0,0,3.665,64.067Z" transform="translate(0 -54.82)" fill="#2e2e2e"/>
      <path id="Path_72" data-name="Path 72" d="M36.051,186.291q-6.988,4.73-10.611,7.351-1.214.895-1.971,1.4a12.166,12.166,0,0,1-2.013,1.023,6.131,6.131,0,0,1-2.343.522H19.07a6.133,6.133,0,0,1-2.344-.522,12.172,12.172,0,0,1-2.013-1.023q-.756-.5-1.971-1.4-2.877-2.109-10.59-7.351A11.286,11.286,0,0,1,0,184.437v16.917a3.282,3.282,0,0,0,1,2.408,3.282,3.282,0,0,0,2.408,1H34.773a3.419,3.419,0,0,0,3.409-3.41V184.437A11.748,11.748,0,0,1,36.051,186.291Z" transform="translate(0 -174.764)" fill="#2e2e2e"/>
    </g>
  </g>
</svg>
