<svg xmlns="http://www.w3.org/2000/svg" width="37.5" height="50" viewBox="0 0 37.5 50">
  <g id="pin" transform="translate(-64)">
    <g id="Group_236" data-name="Group 236" transform="translate(64)">
      <g id="Group_235" data-name="Group 235">
        <path id="Path_107" data-name="Path 107" d="M82.75,0A18.771,18.771,0,0,0,64,18.75c0,13.833,17.3,30.273,18.036,30.967a1.043,1.043,0,0,0,1.428,0C84.2,49.023,101.5,32.583,101.5,18.75A18.771,18.771,0,0,0,82.75,0Zm0,47.5C79.476,44.232,66.083,30.159,66.083,18.75a16.667,16.667,0,0,1,33.333,0C99.417,30.159,86.024,44.232,82.75,47.5Z" transform="translate(-64)" fill="#2e2e2e"/>
        <path id="Path_108" data-name="Path 108" d="M159.75,85.333A10.417,10.417,0,1,0,170.166,95.75,10.429,10.429,0,0,0,159.75,85.333Zm0,18.75a8.333,8.333,0,1,1,8.333-8.333A8.342,8.342,0,0,1,159.75,104.083Z" transform="translate(-141 -77)" fill="#2e2e2e"/>
      </g>
    </g>
  </g>
</svg>
