<svg xmlns="http://www.w3.org/2000/svg" width="81.2" height="70" viewBox="0 0 81.2 70">
  <g id="Group_155" data-name="Group 155" transform="translate(-193 -311)">
    <g id="choice" transform="translate(215.4 332)">
      <path id="Path_67" data-name="Path 67" d="M87.084,13.534a5.475,5.475,0,1,1,10.95,0v4.412a3.721,3.721,0,0,0,2.631-3.553V3.715A3.719,3.719,0,0,0,96.95,0H88.168a3.719,3.719,0,0,0-3.715,3.715V14.393a3.721,3.721,0,0,0,2.631,3.553Z" transform="translate(-82.873)" fill="#2e2e2e"/>
      <path id="Path_68" data-name="Path 68" d="M287.156,0h-8.782a3.719,3.719,0,0,0-3.715,3.715V14.393a3.719,3.719,0,0,0,3.715,3.715h8.782a3.719,3.719,0,0,0,3.715-3.715V3.715A3.719,3.719,0,0,0,287.156,0Z" transform="translate(-254.876)" fill="#2e2e2e"/>
      <path id="Path_69" data-name="Path 69" d="M93.422,126.088a2.632,2.632,0,0,0-2.632,2.632v-1.341a2.632,2.632,0,1,0-5.264,0v-1.127a2.631,2.631,0,0,0-2.42-2.623c-.07-.006-.14-.009-.211-.009a2.632,2.632,0,0,0-2.632,2.632v-9.708a2.632,2.632,0,1,0-5.264,0v22.595l-.114-.014-1.622-6.94a2.632,2.632,0,0,0-3.162-1.964h0a2.052,2.052,0,0,0-2.088,2.632l1.88,8.046c.983,6.3,6.072,11.112,6.072,11.112h15.99a24.916,24.916,0,0,0,4.1-13.684V128.72A2.632,2.632,0,0,0,93.422,126.088Z" transform="translate(-67.945 -103.009)" fill="#2e2e2e"/>
    </g>
    <g id="web-shop" transform="translate(193 311)">
      <path id="Path_61" data-name="Path 61" d="M75.97,33H5.514A5.506,5.506,0,0,0,0,38.411V88.568A5.4,5.4,0,0,0,5.514,93.9H75.97a5.19,5.19,0,0,0,5.23-5.332V38.411A5.231,5.231,0,0,0,75.97,33ZM18.524,36.083a1.982,1.982,0,1,1-1.982,1.982A1.984,1.984,0,0,1,18.524,36.083Zm-5.69,0a1.982,1.982,0,1,1-1.982,1.982A1.984,1.984,0,0,1,12.834,36.083Zm-5.69,0a1.982,1.982,0,1,1-1.982,1.982A1.984,1.984,0,0,1,7.144,36.083ZM76.279,88.825c0,.085.034.154-.051.154H4.921V43.3c0-.085.171-.154.256-.154h71.05c.085,0,.051.069.051.154V88.825ZM74.4,40.074H52.869a2,2,0,0,1,0-3.99l21.53.007a1.992,1.992,0,0,1,0,3.984Z" transform="translate(0 -33)" fill="#2e2e2e"/>
    </g>
  </g>
</svg>
