<svg xmlns="http://www.w3.org/2000/svg" width="1098.623" height="787" viewBox="0 0 1098.623 787">
  <g id="code-review" transform="translate(-27.571)">
    <path id="Path_96" data-name="Path 96" d="M581.768,778.438C339.369,759.991,50.3,572.172,65.014,378.781S359.7,5.358,602.1,23.805,984.031,403.667,969.314,597.058,824.166,796.885,581.768,778.438Z" transform="translate(-36.903 -22.5)" fill="#f2f2f2"/>
    <ellipse id="Ellipse_5" data-name="Ellipse 5" cx="506" cy="31" rx="506" ry="31" transform="translate(59.194 725)" fill="#3f3d56"/>
    <ellipse id="Ellipse_6" data-name="Ellipse 6" cx="431" cy="20.5" rx="431" ry="20.5" transform="translate(134.194 735)" opacity="0.1"/>
    <rect id="Rectangle_106" data-name="Rectangle 106" width="752" height="590" transform="translate(196.194 162)" fill="#3f3d56"/>
    <path id="Path_97" data-name="Path 97" d="M600.541,265.129H415.024a2.251,2.251,0,1,1,0-4.5H600.541a2.251,2.251,0,0,1,0,4.5Z" transform="translate(-36.903 -22.5)" fill="#f2f2f2"/>
    <path id="Path_98" data-name="Path 98" d="M803.62,289.895H511.835a2.251,2.251,0,0,1,0-4.5H803.62a2.251,2.251,0,0,1,0,4.5Z" transform="translate(-36.903 -22.5)" fill="#f2f2f2"/>
    <path id="Path_99" data-name="Path 99" d="M601.442,314.661H415.924a2.251,2.251,0,1,1,0-4.5H601.442a2.251,2.251,0,1,1,0,4.5Z" transform="translate(-36.903 -22.5)" fill="#f2f2f2"/>
    <path id="Path_100" data-name="Path 100" d="M803.62,315.111H618.1a2.251,2.251,0,0,1,0-4.5H803.62a2.251,2.251,0,0,1,0,4.5Z" transform="translate(-36.903 -22.5)" fill="#f2f2f2"/>
    <path id="Path_101" data-name="Path 101" d="M601.892,339.426H416.374a2.251,2.251,0,1,1,0-4.5H601.892a2.251,2.251,0,1,1,0,4.5Z" transform="translate(-36.903 -22.5)" fill="#f2f2f2"/>
    <path id="Path_102" data-name="Path 102" d="M602.342,364.192H416.825a2.251,2.251,0,0,1,0-4.5H602.342a2.251,2.251,0,1,1,0,4.5Z" transform="translate(-36.903 -22.5)" fill="#f2f2f2"/>
    <path id="Path_103" data-name="Path 103" d="M686.546,265.579H633.412a2.251,2.251,0,1,1,0-4.5h53.134a2.251,2.251,0,0,1,0,4.5Z" transform="translate(-36.903 -22.5)" fill="#f2f2f2"/>
    <path id="Path_104" data-name="Path 104" d="M686.546,339.426H633.412a2.251,2.251,0,1,1,0-4.5h53.134a2.251,2.251,0,0,1,0,4.5Z" transform="translate(-36.903 -22.5)" fill="#f2f2f2"/>
    <path id="Path_105" data-name="Path 105" d="M686.546,363.742H633.412a2.251,2.251,0,0,1,0-4.5h53.134a2.251,2.251,0,0,1,0,4.5Z" transform="translate(-36.903 -22.5)" fill="#f2f2f2"/>
    <path id="Path_106" data-name="Path 106" d="M775.7,363.742H722.569a2.251,2.251,0,0,1,0-4.5H775.7a2.251,2.251,0,0,1,0,4.5Z" transform="translate(-36.903 -22.5)" fill="#f2f2f2"/>
    <path id="Path_107" data-name="Path 107" d="M467.707,289.895H414.573a2.251,2.251,0,1,1,0-4.5h53.134a2.251,2.251,0,0,1,0,4.5Z" transform="translate(-36.903 -22.5)" fill="#f2f2f2"/>
    <path id="Path_108" data-name="Path 108" d="M600.766,629.861H415.249a2.251,2.251,0,1,1,0-4.5H600.766a2.251,2.251,0,1,1,0,4.5Z" transform="translate(-36.903 -22.5)" fill="#f2f2f2"/>
    <path id="Path_109" data-name="Path 109" d="M599.866,679.392H414.348a2.251,2.251,0,1,1,0-4.5H599.866a2.251,2.251,0,0,1,0,4.5Z" transform="translate(-36.903 -22.5)" fill="#f2f2f2"/>
    <path id="Path_110" data-name="Path 110" d="M600.316,704.158H414.8a2.251,2.251,0,1,1,0-4.5H600.316a2.251,2.251,0,0,1,0,4.5Z" transform="translate(-36.903 -22.5)" fill="#f2f2f2"/>
    <path id="Path_111" data-name="Path 111" d="M679.566,679.842H626.433a2.251,2.251,0,0,1,0-4.5h53.134a2.251,2.251,0,1,1,0,4.5Z" transform="translate(-36.903 -22.5)" fill="#f2f2f2"/>
    <path id="Path_112" data-name="Path 112" d="M679.566,704.158H626.433a2.251,2.251,0,0,1,0-4.5h53.134a2.251,2.251,0,1,1,0,4.5Z" transform="translate(-36.903 -22.5)" fill="#f2f2f2"/>
    <path id="Path_113" data-name="Path 113" d="M768.723,679.842H715.589a2.251,2.251,0,0,1,0-4.5h53.134a2.251,2.251,0,0,1,0,4.5Z" transform="translate(-36.903 -22.5)" fill="#f2f2f2"/>
    <path id="Path_114" data-name="Path 114" d="M803.845,654.626H512.06a2.251,2.251,0,1,1,0-4.5H803.845a2.251,2.251,0,1,1,0,4.5Z" transform="translate(-36.903 -22.5)" fill="#f2f2f2"/>
    <path id="Path_115" data-name="Path 115" d="M467.932,654.626H414.8a2.251,2.251,0,1,1,0-4.5h53.134a2.251,2.251,0,1,1,0,4.5Z" transform="translate(-36.903 -22.5)" fill="#f2f2f2"/>
    <path id="Path_116" data-name="Path 116" d="M803.845,729.374H512.06a2.251,2.251,0,1,1,0-4.5H803.845a2.251,2.251,0,1,1,0,4.5Z" transform="translate(-36.903 -22.5)" fill="#f2f2f2"/>
    <path id="Path_117" data-name="Path 117" d="M467.932,729.374H414.8a2.251,2.251,0,1,1,0-4.5h53.134a2.251,2.251,0,1,1,0,4.5Z" transform="translate(-36.903 -22.5)" fill="#f2f2f2"/>
    <path id="Path_118" data-name="Path 118" d="M519.06,401.13l-72.046,71.145L519.06,543.42l16.21-16.21-54.484-54.485L535.72,417.79Z" fill="#ffaf19"/>
    <path id="Path_119" data-name="Path 119" d="M625.327,401.13l72.046,71.145L625.327,543.42l-16.21-16.21L663.6,472.725,608.667,417.79Z" fill="#ffaf19"/>
    <circle id="Ellipse_9" data-name="Ellipse 9" cx="9" cy="9" r="9" transform="translate(207.194 168)" fill="#ffaf19"/>
    <circle id="Ellipse_10" data-name="Ellipse 10" cx="9" cy="9" r="9" transform="translate(231.194 168)" fill="#ffaf19"/>
    <circle id="Ellipse_11" data-name="Ellipse 11" cx="9" cy="9" r="9" transform="translate(255.194 168)" fill="#ffaf19"/>
    <rect id="Rectangle_107" data-name="Rectangle 107" width="752" height="3" transform="translate(196.194 192)" opacity="0.1"/>
    <path id="Path_120" data-name="Path 120" d="M1163.1,629.954c0,63.771-37.911,86.038-84.676,86.038s-84.676-22.266-84.676-86.038,84.676-144.9,84.676-144.9S1163.1,566.182,1163.1,629.954Z" transform="translate(-36.903 -22.5)" fill="#f2f2f2"/>
    <path id="Path_121" data-name="Path 121" d="M1038.433,683.736l.867-53.371,36.091-66.027-35.955,57.655.39-24,24.873-47.769-24.77,41.419h0l.7-43.161,26.635-38.031L1040.74,541.7l.438-79.141-2.753,104.769.226-4.322-27.08-41.451,26.646,49.748-2.523,48.2-.075-1.28L1004.4,574.6l31.124,48.141-.315,6.028-.057.091.026.495-6.4,122.3h8.553l1.026-63.168,31.049-48.024Z" fill="#3f3d56"/>
  </g>
</svg>
