<svg xmlns="http://www.w3.org/2000/svg" width="540" height="354.451" viewBox="0 0 540 354.451">
  <g id="Group_246" data-name="Group 246" transform="translate(-1140 -983)">
    <g id="undraw_hacker_mindset_gjwq" transform="translate(1140 983)">
      <ellipse id="Ellipse_6" data-name="Ellipse 6" cx="46.109" cy="3.255" rx="46.109" ry="3.255" transform="translate(0.187 310.512)" fill="#d0cde1"/>
      <ellipse id="Ellipse_7" data-name="Ellipse 7" cx="119.885" cy="5.696" rx="119.885" ry="5.696" transform="translate(66.367 343.06)" fill="#d0cde1"/>
      <path id="Path_127" data-name="Path 127" d="M367.628,720.579c.094,9.653-5.611,13.079-12.689,13.148q-.247,0-.491,0-.492-.006-.974-.035c-6.393-.39-11.391-3.885-11.478-12.862-.091-9.29,11.668-21.13,12.55-22.005h0l.051-.05S367.534,710.927,367.628,720.579Z" transform="translate(-231.953 -386.597)" fill="#d0cde1"/>
      <path id="Path_131" data-name="Path 131" d="M189.487,422.563l40.179-59.751-40.1,66.178.084,6.723q-4.4.034-8.714-.147l1.993-86.425-.055-.667.074-.129.191-8.167-44-63.884,43.949,57.772.156,1.726,1.505-65.3-38-66.233,38.113,54.762-.4-135.28v-.45l.013.443L187,230.357l34.637-43.309-34.524,52.494.756,58.407,31.873-57-31.756,65.59.421,32.477,46.352-79.4-46.211,90.735Z" transform="translate(-139.14 -123.295)" fill="#d0cde1"/>
    </g>
    <g id="undraw_hacker_mind_6y85" transform="translate(1280 1053)">
      <rect id="Rectangle_108" data-name="Rectangle 108" width="400" height="215.168" fill="#3f3d56"/>
      <rect id="Rectangle_109" data-name="Rectangle 109" width="3.527" height="5.644" transform="translate(72.31 30.335)" fill="#ffaf19"/>
      <rect id="Rectangle_110" data-name="Rectangle 110" width="3.527" height="5.644" transform="translate(84.303 28.924)" fill="#ffaf19"/>
      <rect id="Rectangle_111" data-name="Rectangle 111" width="3.527" height="5.644" transform="translate(90.653 28.924)" fill="#ffaf19"/>
      <rect id="Rectangle_112" data-name="Rectangle 112" width="3.527" height="5.644" transform="translate(90.653 45.855)" fill="#ffaf19"/>
      <rect id="Rectangle_113" data-name="Rectangle 113" width="3.527" height="5.644" transform="translate(97.707 37.39)" fill="#ffaf19"/>
      <rect id="Rectangle_114" data-name="Rectangle 114" width="3.527" height="5.644" transform="translate(97.707 46.561)" fill="#ffaf19"/>
      <rect id="Rectangle_115" data-name="Rectangle 115" width="3.527" height="5.644" transform="translate(90.653 64.198)" fill="#ffaf19"/>
      <rect id="Rectangle_116" data-name="Rectangle 116" width="3.527" height="5.644" transform="translate(97.707 73.369)" fill="#ffaf19"/>
      <rect id="Rectangle_117" data-name="Rectangle 117" width="3.527" height="5.644" transform="translate(90.653 107.937)" fill="#ffaf19"/>
      <rect id="Rectangle_118" data-name="Rectangle 118" width="3.527" height="5.644" transform="translate(84.303 73.369)" fill="#ffaf19"/>
      <rect id="Rectangle_119" data-name="Rectangle 119" width="3.527" height="5.644" transform="translate(72.31 39.506)" fill="#ffaf19"/>
      <rect id="Rectangle_120" data-name="Rectangle 120" width="3.527" height="5.644" transform="translate(72.31 127.69)" fill="#ffaf19"/>
      <rect id="Rectangle_121" data-name="Rectangle 121" width="3.527" height="5.644" transform="translate(72.31 146.032)" fill="#ffaf19"/>
      <rect id="Rectangle_122" data-name="Rectangle 122" width="3.527" height="5.644" transform="translate(72.31 155.203)" fill="#ffaf19"/>
      <rect id="Rectangle_123" data-name="Rectangle 123" width="4.938" height="0.705" transform="translate(70.899 49.383)" fill="#ffaf19"/>
      <rect id="Rectangle_124" data-name="Rectangle 124" width="4.938" height="0.705" transform="translate(89.947 57.848)" fill="#ffaf19"/>
      <rect id="Rectangle_125" data-name="Rectangle 125" width="4.938" height="0.705" transform="translate(70.899 94.533)" fill="#ffaf19"/>
      <rect id="Rectangle_126" data-name="Rectangle 126" width="4.938" height="0.705" transform="translate(70.899 102.293)" fill="#ffaf19"/>
      <rect id="Rectangle_127" data-name="Rectangle 127" width="4.938" height="0.705" transform="translate(89.947 147.443)" fill="#ffaf19"/>
      <rect id="Rectangle_128" data-name="Rectangle 128" width="4.938" height="0.705" transform="translate(84.303 164.374)" fill="#ffaf19"/>
      <path id="Path_132" data-name="Path 132" d="M158.179,121.914v1.411h1.411v2.822h-1.411v1.411h3.527v-5.643Z" transform="translate(-85.869 -66.182)" fill="#ffaf19"/>
      <path id="Path_133" data-name="Path 133" d="M184.414,100.309v1.411h1.411v2.822h-1.411v1.411h3.527v-5.643Z" transform="translate(-100.111 -54.453)" fill="#ffaf19"/>
      <path id="Path_134" data-name="Path 134" d="M213.735,120.37v1.411h1.411V124.6h-1.411v1.411h3.527V120.37Z" transform="translate(-116.028 -65.344)" fill="#ffaf19"/>
      <path id="Path_135" data-name="Path 135" d="M213.735,180.556v1.411h1.411v2.822h-1.411V186.2h3.527v-5.643Z" transform="translate(-116.028 -98.016)" fill="#ffaf19"/>
      <path id="Path_136" data-name="Path 136" d="M213.735,200.617v1.411h1.411v2.822h-1.411v1.411h3.527v-5.644Z" transform="translate(-116.028 -108.906)" fill="#ffaf19"/>
      <path id="Path_137" data-name="Path 137" d="M213.735,138.889V140.3h1.411v2.822h-1.411v1.411h3.527v-5.644Z" transform="translate(-116.028 -75.397)" fill="#ffaf19"/>
      <path id="Path_138" data-name="Path 138" d="M198.3,81.79V83.2h1.411v2.821H198.3v1.411h3.528V81.79Z" transform="translate(-107.65 -44.4)" fill="#ffaf19"/>
      <rect id="Rectangle_129" data-name="Rectangle 129" width="3.527" height="5.644" transform="translate(90.653 82.54)" fill="#ffaf19"/>
      <rect id="Rectangle_130" data-name="Rectangle 130" width="3.527" height="5.644" transform="translate(90.653 99.471)" fill="#ffaf19"/>
      <path id="Path_139" data-name="Path 139" d="M198.3,199.074v1.411h1.411v2.822H198.3v1.411h3.528v-5.644Z" transform="translate(-107.65 -108.069)" fill="#ffaf19"/>
      <path id="Path_140" data-name="Path 140" d="M184.414,120.37v1.411h1.411V124.6h-1.411v1.411h3.527V120.37Z" transform="translate(-100.111 -65.344)" fill="#ffaf19"/>
      <path id="Path_141" data-name="Path 141" d="M184.414,140.432v1.411h1.411v2.822h-1.411v1.411h3.527v-5.644Z" transform="translate(-100.111 -76.235)" fill="#ffaf19"/>
      <rect id="Rectangle_131" data-name="Rectangle 131" width="3.527" height="5.644" transform="translate(84.303 91.711)" fill="#ffaf19"/>
      <path id="Path_142" data-name="Path 142" d="M184.414,180.556v1.411h1.411v2.822h-1.411V186.2h3.527v-5.643Z" transform="translate(-100.111 -98.016)" fill="#ffaf19"/>
      <rect id="Rectangle_132" data-name="Rectangle 132" width="3.527" height="5.644" transform="translate(84.303 110.053)" fill="#ffaf19"/>
      <path id="Path_143" data-name="Path 143" d="M184.414,220.679v1.411h1.411v2.822h-1.411v1.411h3.527v-5.644Z" transform="translate(-100.111 -119.797)" fill="#ffaf19"/>
      <rect id="Rectangle_133" data-name="Rectangle 133" width="3.527" height="5.644" transform="translate(84.303 128.395)" fill="#ffaf19"/>
      <rect id="Rectangle_134" data-name="Rectangle 134" width="3.527" height="5.644" transform="translate(90.653 126.984)" fill="#ffaf19"/>
      <path id="Path_144" data-name="Path 144" d="M184.414,260.8v1.411h1.411v2.822h-1.411v1.411h3.527V260.8Z" transform="translate(-100.111 -141.578)" fill="#ffaf19"/>
      <path id="Path_145" data-name="Path 145" d="M213.735,260.8v1.411h1.411v2.822h-1.411v1.411h3.527V260.8Z" transform="translate(-116.028 -141.578)" fill="#ffaf19"/>
      <rect id="Rectangle_135" data-name="Rectangle 135" width="3.527" height="5.644" transform="translate(133.686 37.39)" fill="#ffaf19"/>
      <rect id="Rectangle_136" data-name="Rectangle 136" width="3.527" height="5.644" transform="translate(133.686 46.561)" fill="#ffaf19"/>
      <rect id="Rectangle_137" data-name="Rectangle 137" width="3.527" height="5.644" transform="translate(133.686 73.369)" fill="#ffaf19"/>
      <path id="Path_146" data-name="Path 146" d="M292.438,120.37v1.411h1.411V124.6h-1.411v1.411h3.527V120.37Z" transform="translate(-158.752 -65.344)" fill="#ffaf19"/>
      <path id="Path_147" data-name="Path 147" d="M292.438,180.556v1.411h1.411v2.822h-1.411V186.2h3.527v-5.643Z" transform="translate(-158.752 -98.016)" fill="#ffaf19"/>
      <path id="Path_148" data-name="Path 148" d="M292.438,200.617v1.411h1.411v2.822h-1.411v1.411h3.527v-5.644Z" transform="translate(-158.752 -108.906)" fill="#ffaf19"/>
      <path id="Path_149" data-name="Path 149" d="M292.438,138.889V140.3h1.411v2.822h-1.411v1.411h3.527v-5.644Z" transform="translate(-158.752 -75.397)" fill="#ffaf19"/>
      <path id="Path_150" data-name="Path 150" d="M292.438,260.8v1.411h1.411v2.822h-1.411v1.411h3.527V260.8Z" transform="translate(-158.752 -141.578)" fill="#ffaf19"/>
      <rect id="Rectangle_138" data-name="Rectangle 138" width="3.527" height="5.644" transform="translate(84.303 146.737)" fill="#ffaf19"/>
      <rect id="Rectangle_139" data-name="Rectangle 139" width="3.527" height="5.644" transform="translate(90.653 136.155)" fill="#ffaf19"/>
      <rect id="Rectangle_140" data-name="Rectangle 140" width="3.527" height="5.644" transform="translate(84.303 170.723)" fill="#ffaf19"/>
      <rect id="Rectangle_141" data-name="Rectangle 141" width="3.527" height="5.644" transform="translate(90.653 153.792)" fill="#ffaf19"/>
      <path id="Path_151" data-name="Path 151" d="M184.414,300.926v1.411h1.411v2.822h-1.411v1.411h3.527v-5.644Z" transform="translate(-100.111 -163.36)" fill="#ffaf19"/>
      <path id="Path_152" data-name="Path 152" d="M184.414,395.062v1.411h1.411v2.822h-1.411v1.411h3.527v-5.643Z" transform="translate(-100.111 -214.462)" fill="#ffaf19"/>
      <rect id="Rectangle_142" data-name="Rectangle 142" width="3.527" height="5.644" transform="translate(123.104 28.924)" fill="#ffaf19"/>
      <rect id="Rectangle_143" data-name="Rectangle 143" width="3.527" height="5.644" transform="translate(123.104 73.369)" fill="#ffaf19"/>
      <rect id="Rectangle_144" data-name="Rectangle 144" width="4.938" height="0.705" transform="translate(123.104 164.374)" fill="#ffaf19"/>
      <path id="Path_153" data-name="Path 153" d="M269.29,100.309v1.411H270.7v2.822H269.29v1.411h3.527v-5.643Z" transform="translate(-146.186 -54.453)" fill="#ffaf19"/>
      <path id="Path_154" data-name="Path 154" d="M269.29,120.37v1.411H270.7V124.6H269.29v1.411h3.527V120.37Z" transform="translate(-146.186 -65.344)" fill="#ffaf19"/>
      <path id="Path_155" data-name="Path 155" d="M269.29,140.432v1.411H270.7v2.822H269.29v1.411h3.527v-5.644Z" transform="translate(-146.186 -76.235)" fill="#ffaf19"/>
      <rect id="Rectangle_145" data-name="Rectangle 145" width="3.527" height="5.644" transform="translate(123.104 91.711)" fill="#ffaf19"/>
      <path id="Path_156" data-name="Path 156" d="M269.29,180.556v1.411H270.7v2.822H269.29V186.2h3.527v-5.643Z" transform="translate(-146.186 -98.016)" fill="#ffaf19"/>
      <rect id="Rectangle_146" data-name="Rectangle 146" width="3.527" height="5.644" transform="translate(123.104 110.053)" fill="#ffaf19"/>
      <path id="Path_157" data-name="Path 157" d="M269.29,220.679v1.411H270.7v2.822H269.29v1.411h3.527v-5.644Z" transform="translate(-146.186 -119.797)" fill="#ffaf19"/>
      <rect id="Rectangle_147" data-name="Rectangle 147" width="3.527" height="5.644" transform="translate(123.104 128.395)" fill="#ffaf19"/>
      <path id="Path_158" data-name="Path 158" d="M269.29,260.8v1.411H270.7v2.822H269.29v1.411h3.527V260.8Z" transform="translate(-146.186 -141.578)" fill="#ffaf19"/>
      <rect id="Rectangle_148" data-name="Rectangle 148" width="3.527" height="5.644" transform="translate(123.104 146.737)" fill="#ffaf19"/>
      <rect id="Rectangle_149" data-name="Rectangle 149" width="3.527" height="5.644" transform="translate(123.104 170.723)" fill="#ffaf19"/>
      <path id="Path_159" data-name="Path 159" d="M269.29,300.926v1.411H270.7v2.822H269.29v1.411h3.527v-5.644Z" transform="translate(-146.186 -163.36)" fill="#ffaf19"/>
      <path id="Path_160" data-name="Path 160" d="M269.29,395.062v1.411H270.7v2.822H269.29v1.411h3.527v-5.643Z" transform="translate(-146.186 -214.462)" fill="#ffaf19"/>
      <rect id="Rectangle_150" data-name="Rectangle 150" width="3.527" height="5.644" transform="translate(140.035 28.924)" fill="#ffaf19"/>
      <rect id="Rectangle_151" data-name="Rectangle 151" width="3.527" height="5.644" transform="translate(140.035 73.369)" fill="#ffaf19"/>
      <rect id="Rectangle_152" data-name="Rectangle 152" width="4.938" height="0.705" transform="translate(140.035 164.374)" fill="#ffaf19"/>
      <path id="Path_161" data-name="Path 161" d="M306.327,100.309v1.411h1.411v2.822h-1.411v1.411h3.527v-5.643Z" transform="translate(-166.292 -54.453)" fill="#ffaf19"/>
      <path id="Path_162" data-name="Path 162" d="M306.327,120.37v1.411h1.411V124.6h-1.411v1.411h3.527V120.37Z" transform="translate(-166.292 -65.344)" fill="#ffaf19"/>
      <path id="Path_163" data-name="Path 163" d="M306.327,140.432v1.411h1.411v2.822h-1.411v1.411h3.527v-5.644Z" transform="translate(-166.292 -76.235)" fill="#ffaf19"/>
      <rect id="Rectangle_153" data-name="Rectangle 153" width="3.527" height="5.644" transform="translate(140.035 91.711)" fill="#ffaf19"/>
      <path id="Path_164" data-name="Path 164" d="M306.327,180.556v1.411h1.411v2.822h-1.411V186.2h3.527v-5.643Z" transform="translate(-166.292 -98.016)" fill="#ffaf19"/>
      <rect id="Rectangle_154" data-name="Rectangle 154" width="3.527" height="5.644" transform="translate(140.035 110.053)" fill="#ffaf19"/>
      <path id="Path_165" data-name="Path 165" d="M306.327,220.679v1.411h1.411v2.822h-1.411v1.411h3.527v-5.644Z" transform="translate(-166.292 -119.797)" fill="#ffaf19"/>
      <rect id="Rectangle_155" data-name="Rectangle 155" width="3.527" height="5.644" transform="translate(140.035 128.395)" fill="#ffaf19"/>
      <path id="Path_166" data-name="Path 166" d="M306.327,260.8v1.411h1.411v2.822h-1.411v1.411h3.527V260.8Z" transform="translate(-166.292 -141.578)" fill="#ffaf19"/>
      <rect id="Rectangle_156" data-name="Rectangle 156" width="3.527" height="5.644" transform="translate(140.035 146.737)" fill="#ffaf19"/>
      <rect id="Rectangle_157" data-name="Rectangle 157" width="3.527" height="5.644" transform="translate(140.035 170.723)" fill="#ffaf19"/>
      <path id="Path_167" data-name="Path 167" d="M306.327,300.926v1.411h1.411v2.822h-1.411v1.411h3.527v-5.644Z" transform="translate(-166.292 -163.36)" fill="#ffaf19"/>
      <path id="Path_168" data-name="Path 168" d="M306.327,395.062v1.411h1.411v2.822h-1.411v1.411h3.527v-5.643Z" transform="translate(-166.292 -214.462)" fill="#ffaf19"/>
      <path id="Path_169" data-name="Path 169" d="M198.3,373.457v1.411h1.411v2.822H198.3V379.1h3.528v-5.643Z" transform="translate(-107.65 -202.734)" fill="#ffaf19"/>
      <path id="Path_170" data-name="Path 170" d="M198.3,393.519v1.411h1.411v2.822H198.3v1.411h3.528v-5.643Z" transform="translate(-107.65 -213.625)" fill="#ffaf19"/>
      <path id="Path_171" data-name="Path 171" d="M158.179,160.494V161.9h1.411v2.822h-1.411v1.411h3.527v-5.644Z" transform="translate(-85.869 -87.125)" fill="#ffaf19"/>
      <path id="Path_172" data-name="Path 172" d="M158.179,239.2v1.411h1.411v2.822h-1.411v1.411h3.527V239.2Z" transform="translate(-85.869 -129.85)" fill="#ffaf19"/>
      <path id="Path_173" data-name="Path 173" d="M158.179,259.259v1.411h1.411v2.822h-1.411V264.9h3.527v-5.644Z" transform="translate(-85.869 -140.741)" fill="#ffaf19"/>
      <path id="Path_174" data-name="Path 174" d="M158.179,299.383v1.411h1.411v2.822h-1.411v1.411h3.527v-5.643Z" transform="translate(-85.869 -162.522)" fill="#ffaf19"/>
      <path id="Path_175" data-name="Path 175" d="M158.179,356.481v1.411h1.411v2.822h-1.411v1.411h3.527v-5.644Z" transform="translate(-85.869 -193.518)" fill="#ffaf19"/>
      <path id="Path_176" data-name="Path 176" d="M158.179,373.457v1.411h1.411v2.822h-1.411V379.1h3.527v-5.643Z" transform="translate(-85.869 -202.734)" fill="#ffaf19"/>
      <rect id="Rectangle_158" data-name="Rectangle 158" width="3.527" height="5.644" transform="translate(108.995 30.335)" fill="#ffaf19"/>
      <rect id="Rectangle_159" data-name="Rectangle 159" width="3.527" height="5.644" transform="translate(108.995 39.506)" fill="#ffaf19"/>
      <rect id="Rectangle_160" data-name="Rectangle 160" width="4.938" height="0.705" transform="translate(107.584 49.383)" fill="#ffaf19"/>
      <rect id="Rectangle_161" data-name="Rectangle 161" width="4.938" height="0.705" transform="translate(107.584 94.533)" fill="#ffaf19"/>
      <rect id="Rectangle_162" data-name="Rectangle 162" width="4.938" height="0.705" transform="translate(107.584 102.293)" fill="#ffaf19"/>
      <path id="Path_177" data-name="Path 177" d="M238.426,121.914v1.411h1.411v2.822h-1.411v1.411h3.527v-5.643Z" transform="translate(-129.431 -66.182)" fill="#ffaf19"/>
      <path id="Path_178" data-name="Path 178" d="M238.426,160.494V161.9h1.411v2.822h-1.411v1.411h3.527v-5.644Z" transform="translate(-129.431 -87.125)" fill="#ffaf19"/>
      <path id="Path_179" data-name="Path 179" d="M238.426,239.2v1.411h1.411v2.822h-1.411v1.411h3.527V239.2Z" transform="translate(-129.431 -129.85)" fill="#ffaf19"/>
      <rect id="Rectangle_163" data-name="Rectangle 163" width="3.527" height="5.644" transform="translate(149.206 91.711)" fill="#ffaf19"/>
      <rect id="Rectangle_164" data-name="Rectangle 164" width="3.527" height="5.644" transform="translate(149.206 100.882)" fill="#ffaf19"/>
      <rect id="Rectangle_165" data-name="Rectangle 165" width="4.938" height="0.705" transform="translate(147.795 110.758)" fill="#ffaf19"/>
      <rect id="Rectangle_166" data-name="Rectangle 166" width="4.938" height="0.705" transform="translate(147.795 155.908)" fill="#ffaf19"/>
      <rect id="Rectangle_167" data-name="Rectangle 167" width="4.938" height="0.705" transform="translate(147.795 163.668)" fill="#ffaf19"/>
      <path id="Path_180" data-name="Path 180" d="M326.389,256.173v1.411H327.8v2.822h-1.411v1.411h3.527v-5.644Z" transform="translate(-177.183 -139.065)" fill="#ffaf19"/>
      <path id="Path_181" data-name="Path 181" d="M326.389,294.753v1.411H327.8v2.822h-1.411V300.4h3.527v-5.644Z" transform="translate(-177.183 -160.009)" fill="#ffaf19"/>
      <path id="Path_182" data-name="Path 182" d="M326.389,373.457v1.411H327.8v2.822h-1.411V379.1h3.527v-5.643Z" transform="translate(-177.183 -202.734)" fill="#ffaf19"/>
      <rect id="Rectangle_168" data-name="Rectangle 168" width="3.527" height="5.644" transform="translate(160.494 30.335)" fill="#ffaf19"/>
      <rect id="Rectangle_169" data-name="Rectangle 169" width="3.527" height="5.644" transform="translate(172.487 28.924)" fill="#ffaf19"/>
      <rect id="Rectangle_170" data-name="Rectangle 170" width="3.527" height="5.644" transform="translate(178.836 28.924)" fill="#ffaf19"/>
      <rect id="Rectangle_171" data-name="Rectangle 171" width="3.527" height="5.644" transform="translate(178.836 45.855)" fill="#ffaf19"/>
      <rect id="Rectangle_172" data-name="Rectangle 172" width="3.527" height="5.644" transform="translate(185.891 37.39)" fill="#ffaf19"/>
      <rect id="Rectangle_173" data-name="Rectangle 173" width="3.527" height="5.644" transform="translate(185.891 46.561)" fill="#ffaf19"/>
      <rect id="Rectangle_174" data-name="Rectangle 174" width="3.527" height="5.644" transform="translate(178.836 64.198)" fill="#ffaf19"/>
      <rect id="Rectangle_175" data-name="Rectangle 175" width="3.527" height="5.644" transform="translate(185.891 73.369)" fill="#ffaf19"/>
      <rect id="Rectangle_176" data-name="Rectangle 176" width="3.527" height="5.644" transform="translate(178.836 107.937)" fill="#ffaf19"/>
      <rect id="Rectangle_177" data-name="Rectangle 177" width="3.527" height="5.644" transform="translate(172.487 73.369)" fill="#ffaf19"/>
      <rect id="Rectangle_178" data-name="Rectangle 178" width="3.527" height="5.644" transform="translate(160.494 39.506)" fill="#ffaf19"/>
      <rect id="Rectangle_179" data-name="Rectangle 179" width="3.527" height="5.644" transform="translate(160.494 127.69)" fill="#ffaf19"/>
      <rect id="Rectangle_180" data-name="Rectangle 180" width="3.527" height="5.644" transform="translate(160.494 146.032)" fill="#ffaf19"/>
      <rect id="Rectangle_181" data-name="Rectangle 181" width="3.527" height="5.644" transform="translate(160.494 155.203)" fill="#ffaf19"/>
      <rect id="Rectangle_182" data-name="Rectangle 182" width="4.938" height="0.705" transform="translate(159.083 49.383)" fill="#ffaf19"/>
      <rect id="Rectangle_183" data-name="Rectangle 183" width="4.938" height="0.705" transform="translate(178.131 57.848)" fill="#ffaf19"/>
      <rect id="Rectangle_184" data-name="Rectangle 184" width="4.938" height="0.705" transform="translate(159.083 94.533)" fill="#ffaf19"/>
      <rect id="Rectangle_185" data-name="Rectangle 185" width="4.938" height="0.705" transform="translate(159.083 102.293)" fill="#ffaf19"/>
      <rect id="Rectangle_186" data-name="Rectangle 186" width="4.938" height="0.705" transform="translate(178.131 147.443)" fill="#ffaf19"/>
      <rect id="Rectangle_187" data-name="Rectangle 187" width="4.938" height="0.705" transform="translate(172.487 164.374)" fill="#ffaf19"/>
      <path id="Path_183" data-name="Path 183" d="M351.08,121.914v1.411h1.411v2.822H351.08v1.411h3.527v-5.643Z" transform="translate(-190.586 -66.182)" fill="#ffaf19"/>
      <path id="Path_184" data-name="Path 184" d="M377.315,100.309v1.411h1.411v2.822h-1.411v1.411h3.527v-5.643Z" transform="translate(-204.828 -54.453)" fill="#ffaf19"/>
      <path id="Path_185" data-name="Path 185" d="M406.636,120.37v1.411h1.411V124.6h-1.411v1.411h3.527V120.37Z" transform="translate(-220.745 -65.344)" fill="#ffaf19"/>
      <path id="Path_186" data-name="Path 186" d="M406.636,180.556v1.411h1.411v2.822h-1.411V186.2h3.527v-5.643Z" transform="translate(-220.745 -98.016)" fill="#ffaf19"/>
      <path id="Path_187" data-name="Path 187" d="M406.636,200.617v1.411h1.411v2.822h-1.411v1.411h3.527v-5.644Z" transform="translate(-220.745 -108.906)" fill="#ffaf19"/>
      <path id="Path_188" data-name="Path 188" d="M406.636,138.889V140.3h1.411v2.822h-1.411v1.411h3.527v-5.644Z" transform="translate(-220.745 -75.397)" fill="#ffaf19"/>
      <path id="Path_189" data-name="Path 189" d="M391.2,81.79V83.2h1.411v2.821H391.2v1.411h3.527V81.79Z" transform="translate(-212.368 -44.4)" fill="#ffaf19"/>
      <rect id="Rectangle_188" data-name="Rectangle 188" width="3.527" height="5.644" transform="translate(178.836 82.54)" fill="#ffaf19"/>
      <rect id="Rectangle_189" data-name="Rectangle 189" width="3.527" height="5.644" transform="translate(178.836 99.471)" fill="#ffaf19"/>
      <path id="Path_190" data-name="Path 190" d="M391.2,199.074v1.411h1.411v2.822H391.2v1.411h3.527v-5.644Z" transform="translate(-212.368 -108.069)" fill="#ffaf19"/>
      <path id="Path_191" data-name="Path 191" d="M377.315,120.37v1.411h1.411V124.6h-1.411v1.411h3.527V120.37Z" transform="translate(-204.828 -65.344)" fill="#ffaf19"/>
      <path id="Path_192" data-name="Path 192" d="M377.315,140.432v1.411h1.411v2.822h-1.411v1.411h3.527v-5.644Z" transform="translate(-204.828 -76.235)" fill="#ffaf19"/>
      <rect id="Rectangle_190" data-name="Rectangle 190" width="3.527" height="5.644" transform="translate(172.487 91.711)" fill="#ffaf19"/>
      <path id="Path_193" data-name="Path 193" d="M377.315,180.556v1.411h1.411v2.822h-1.411V186.2h3.527v-5.643Z" transform="translate(-204.828 -98.016)" fill="#ffaf19"/>
      <rect id="Rectangle_191" data-name="Rectangle 191" width="3.527" height="5.644" transform="translate(172.487 110.053)" fill="#ffaf19"/>
      <path id="Path_194" data-name="Path 194" d="M377.315,220.679v1.411h1.411v2.822h-1.411v1.411h3.527v-5.644Z" transform="translate(-204.828 -119.797)" fill="#ffaf19"/>
      <rect id="Rectangle_192" data-name="Rectangle 192" width="3.527" height="5.644" transform="translate(172.487 128.395)" fill="#ffaf19"/>
      <rect id="Rectangle_193" data-name="Rectangle 193" width="3.527" height="5.644" transform="translate(178.836 126.984)" fill="#ffaf19"/>
      <path id="Path_195" data-name="Path 195" d="M377.315,260.8v1.411h1.411v2.822h-1.411v1.411h3.527V260.8Z" transform="translate(-204.828 -141.578)" fill="#ffaf19"/>
      <path id="Path_196" data-name="Path 196" d="M406.636,260.8v1.411h1.411v2.822h-1.411v1.411h3.527V260.8Z" transform="translate(-220.745 -141.578)" fill="#ffaf19"/>
      <rect id="Rectangle_194" data-name="Rectangle 194" width="3.527" height="5.644" transform="translate(221.87 37.39)" fill="#ffaf19"/>
      <rect id="Rectangle_195" data-name="Rectangle 195" width="3.527" height="5.644" transform="translate(221.87 46.561)" fill="#ffaf19"/>
      <rect id="Rectangle_196" data-name="Rectangle 196" width="3.527" height="5.644" transform="translate(221.87 73.369)" fill="#ffaf19"/>
      <path id="Path_197" data-name="Path 197" d="M485.34,120.37v1.411h1.411V124.6H485.34v1.411h3.527V120.37Z" transform="translate(-263.47 -65.344)" fill="#ffaf19"/>
      <path id="Path_198" data-name="Path 198" d="M485.34,180.556v1.411h1.411v2.822H485.34V186.2h3.527v-5.643Z" transform="translate(-263.47 -98.016)" fill="#ffaf19"/>
      <path id="Path_199" data-name="Path 199" d="M485.34,200.617v1.411h1.411v2.822H485.34v1.411h3.527v-5.644Z" transform="translate(-263.47 -108.906)" fill="#ffaf19"/>
      <path id="Path_200" data-name="Path 200" d="M485.34,138.889V140.3h1.411v2.822H485.34v1.411h3.527v-5.644Z" transform="translate(-263.47 -75.397)" fill="#ffaf19"/>
      <path id="Path_201" data-name="Path 201" d="M485.34,260.8v1.411h1.411v2.822H485.34v1.411h3.527V260.8Z" transform="translate(-263.47 -141.578)" fill="#ffaf19"/>
      <rect id="Rectangle_197" data-name="Rectangle 197" width="3.527" height="5.644" transform="translate(172.487 146.737)" fill="#ffaf19"/>
      <rect id="Rectangle_198" data-name="Rectangle 198" width="3.527" height="5.644" transform="translate(178.836 136.155)" fill="#ffaf19"/>
      <rect id="Rectangle_199" data-name="Rectangle 199" width="3.527" height="5.644" transform="translate(172.487 170.723)" fill="#ffaf19"/>
      <rect id="Rectangle_200" data-name="Rectangle 200" width="3.527" height="5.644" transform="translate(178.836 153.792)" fill="#ffaf19"/>
      <path id="Path_202" data-name="Path 202" d="M377.315,300.926v1.411h1.411v2.822h-1.411v1.411h3.527v-5.644Z" transform="translate(-204.828 -163.36)" fill="#ffaf19"/>
      <path id="Path_203" data-name="Path 203" d="M377.315,395.062v1.411h1.411v2.822h-1.411v1.411h3.527v-5.643Z" transform="translate(-204.828 -214.462)" fill="#ffaf19"/>
      <rect id="Rectangle_201" data-name="Rectangle 201" width="3.527" height="5.644" transform="translate(211.287 28.924)" fill="#ffaf19"/>
      <rect id="Rectangle_202" data-name="Rectangle 202" width="3.527" height="5.644" transform="translate(211.287 73.369)" fill="#ffaf19"/>
      <rect id="Rectangle_203" data-name="Rectangle 203" width="4.938" height="0.705" transform="translate(211.287 164.374)" fill="#ffaf19"/>
      <path id="Path_204" data-name="Path 204" d="M462.191,100.309v1.411H463.6v2.822h-1.411v1.411h3.527v-5.643Z" transform="translate(-250.904 -54.453)" fill="#ffaf19"/>
      <path id="Path_205" data-name="Path 205" d="M462.191,120.37v1.411H463.6V124.6h-1.411v1.411h3.527V120.37Z" transform="translate(-250.904 -65.344)" fill="#ffaf19"/>
      <path id="Path_206" data-name="Path 206" d="M462.191,140.432v1.411H463.6v2.822h-1.411v1.411h3.527v-5.644Z" transform="translate(-250.904 -76.235)" fill="#ffaf19"/>
      <rect id="Rectangle_204" data-name="Rectangle 204" width="3.527" height="5.644" transform="translate(211.287 91.711)" fill="#ffaf19"/>
      <path id="Path_207" data-name="Path 207" d="M462.191,180.556v1.411H463.6v2.822h-1.411V186.2h3.527v-5.643Z" transform="translate(-250.904 -98.016)" fill="#ffaf19"/>
      <rect id="Rectangle_205" data-name="Rectangle 205" width="3.527" height="5.644" transform="translate(211.287 110.053)" fill="#ffaf19"/>
      <path id="Path_208" data-name="Path 208" d="M462.191,220.679v1.411H463.6v2.822h-1.411v1.411h3.527v-5.644Z" transform="translate(-250.904 -119.797)" fill="#ffaf19"/>
      <rect id="Rectangle_206" data-name="Rectangle 206" width="3.527" height="5.644" transform="translate(211.287 128.395)" fill="#ffaf19"/>
      <path id="Path_209" data-name="Path 209" d="M462.191,260.8v1.411H463.6v2.822h-1.411v1.411h3.527V260.8Z" transform="translate(-250.904 -141.578)" fill="#ffaf19"/>
      <rect id="Rectangle_207" data-name="Rectangle 207" width="3.527" height="5.644" transform="translate(211.287 146.737)" fill="#ffaf19"/>
      <rect id="Rectangle_208" data-name="Rectangle 208" width="3.527" height="5.644" transform="translate(211.287 170.723)" fill="#ffaf19"/>
      <path id="Path_210" data-name="Path 210" d="M462.191,300.926v1.411H463.6v2.822h-1.411v1.411h3.527v-5.644Z" transform="translate(-250.904 -163.36)" fill="#ffaf19"/>
      <path id="Path_211" data-name="Path 211" d="M462.191,395.062v1.411H463.6v2.822h-1.411v1.411h3.527v-5.643Z" transform="translate(-250.904 -214.462)" fill="#ffaf19"/>
      <rect id="Rectangle_209" data-name="Rectangle 209" width="3.527" height="5.644" transform="translate(228.219 28.924)" fill="#ffaf19"/>
      <rect id="Rectangle_210" data-name="Rectangle 210" width="3.527" height="5.644" transform="translate(228.219 73.369)" fill="#ffaf19"/>
      <rect id="Rectangle_211" data-name="Rectangle 211" width="4.938" height="0.705" transform="translate(228.219 164.374)" fill="#ffaf19"/>
      <path id="Path_212" data-name="Path 212" d="M499.228,100.309v1.411h1.411v2.822h-1.411v1.411h3.527v-5.643Z" transform="translate(-271.009 -54.453)" fill="#ffaf19"/>
      <path id="Path_213" data-name="Path 213" d="M499.228,120.37v1.411h1.411V124.6h-1.411v1.411h3.527V120.37Z" transform="translate(-271.009 -65.344)" fill="#ffaf19"/>
      <path id="Path_214" data-name="Path 214" d="M499.228,140.432v1.411h1.411v2.822h-1.411v1.411h3.527v-5.644Z" transform="translate(-271.009 -76.235)" fill="#ffaf19"/>
      <rect id="Rectangle_212" data-name="Rectangle 212" width="3.527" height="5.644" transform="translate(228.219 91.711)" fill="#ffaf19"/>
      <path id="Path_215" data-name="Path 215" d="M499.228,180.556v1.411h1.411v2.822h-1.411V186.2h3.527v-5.643Z" transform="translate(-271.009 -98.016)" fill="#ffaf19"/>
      <rect id="Rectangle_213" data-name="Rectangle 213" width="3.527" height="5.644" transform="translate(228.219 110.053)" fill="#ffaf19"/>
      <path id="Path_216" data-name="Path 216" d="M499.228,220.679v1.411h1.411v2.822h-1.411v1.411h3.527v-5.644Z" transform="translate(-271.009 -119.797)" fill="#ffaf19"/>
      <rect id="Rectangle_214" data-name="Rectangle 214" width="3.527" height="5.644" transform="translate(228.219 128.395)" fill="#ffaf19"/>
      <path id="Path_217" data-name="Path 217" d="M499.228,260.8v1.411h1.411v2.822h-1.411v1.411h3.527V260.8Z" transform="translate(-271.009 -141.578)" fill="#ffaf19"/>
      <rect id="Rectangle_215" data-name="Rectangle 215" width="3.527" height="5.644" transform="translate(228.219 146.737)" fill="#ffaf19"/>
      <rect id="Rectangle_216" data-name="Rectangle 216" width="3.527" height="5.644" transform="translate(228.219 170.723)" fill="#ffaf19"/>
      <path id="Path_218" data-name="Path 218" d="M499.228,300.926v1.411h1.411v2.822h-1.411v1.411h3.527v-5.644Z" transform="translate(-271.009 -163.36)" fill="#ffaf19"/>
      <path id="Path_219" data-name="Path 219" d="M499.228,395.062v1.411h1.411v2.822h-1.411v1.411h3.527v-5.643Z" transform="translate(-271.009 -214.462)" fill="#ffaf19"/>
      <path id="Path_220" data-name="Path 220" d="M391.2,373.457v1.411h1.411v2.822H391.2V379.1h3.527v-5.643Z" transform="translate(-212.368 -202.734)" fill="#ffaf19"/>
      <path id="Path_221" data-name="Path 221" d="M391.2,393.519v1.411h1.411v2.822H391.2v1.411h3.527v-5.643Z" transform="translate(-212.368 -213.625)" fill="#ffaf19"/>
      <path id="Path_222" data-name="Path 222" d="M351.08,160.494V161.9h1.411v2.822H351.08v1.411h3.527v-5.644Z" transform="translate(-190.586 -87.125)" fill="#ffaf19"/>
      <path id="Path_223" data-name="Path 223" d="M351.08,239.2v1.411h1.411v2.822H351.08v1.411h3.527V239.2Z" transform="translate(-190.586 -129.85)" fill="#ffaf19"/>
      <path id="Path_224" data-name="Path 224" d="M351.08,259.259v1.411h1.411v2.822H351.08V264.9h3.527v-5.644Z" transform="translate(-190.586 -140.741)" fill="#ffaf19"/>
      <path id="Path_225" data-name="Path 225" d="M351.08,299.383v1.411h1.411v2.822H351.08v1.411h3.527v-5.643Z" transform="translate(-190.586 -162.522)" fill="#ffaf19"/>
      <path id="Path_226" data-name="Path 226" d="M351.08,356.481v1.411h1.411v2.822H351.08v1.411h3.527v-5.644Z" transform="translate(-190.586 -193.518)" fill="#ffaf19"/>
      <path id="Path_227" data-name="Path 227" d="M351.08,373.457v1.411h1.411v2.822H351.08V379.1h3.527v-5.643Z" transform="translate(-190.586 -202.734)" fill="#ffaf19"/>
      <rect id="Rectangle_217" data-name="Rectangle 217" width="3.527" height="5.644" transform="translate(197.178 30.335)" fill="#ffaf19"/>
      <rect id="Rectangle_218" data-name="Rectangle 218" width="3.527" height="5.644" transform="translate(197.178 39.506)" fill="#ffaf19"/>
      <rect id="Rectangle_219" data-name="Rectangle 219" width="4.938" height="0.705" transform="translate(195.767 49.383)" fill="#ffaf19"/>
      <rect id="Rectangle_220" data-name="Rectangle 220" width="4.938" height="0.705" transform="translate(195.767 94.533)" fill="#ffaf19"/>
      <rect id="Rectangle_221" data-name="Rectangle 221" width="4.938" height="0.705" transform="translate(195.767 102.293)" fill="#ffaf19"/>
      <path id="Path_228" data-name="Path 228" d="M431.327,121.914v1.411h1.411v2.822h-1.411v1.411h3.527v-5.643Z" transform="translate(-234.149 -66.182)" fill="#ffaf19"/>
      <path id="Path_229" data-name="Path 229" d="M431.327,160.494V161.9h1.411v2.822h-1.411v1.411h3.527v-5.644Z" transform="translate(-234.149 -87.125)" fill="#ffaf19"/>
      <path id="Path_230" data-name="Path 230" d="M431.327,239.2v1.411h1.411v2.822h-1.411v1.411h3.527V239.2Z" transform="translate(-234.149 -129.85)" fill="#ffaf19"/>
      <rect id="Rectangle_222" data-name="Rectangle 222" width="3.527" height="5.644" transform="translate(237.39 91.711)" fill="#ffaf19"/>
      <rect id="Rectangle_223" data-name="Rectangle 223" width="3.527" height="5.644" transform="translate(237.39 100.882)" fill="#ffaf19"/>
      <rect id="Rectangle_224" data-name="Rectangle 224" width="4.938" height="0.705" transform="translate(235.979 110.758)" fill="#ffaf19"/>
      <rect id="Rectangle_225" data-name="Rectangle 225" width="4.938" height="0.705" transform="translate(235.979 155.908)" fill="#ffaf19"/>
      <rect id="Rectangle_226" data-name="Rectangle 226" width="4.938" height="0.705" transform="translate(235.979 163.668)" fill="#ffaf19"/>
      <path id="Path_231" data-name="Path 231" d="M519.29,256.173v1.411H520.7v2.822H519.29v1.411h3.527v-5.644Z" transform="translate(-281.9 -139.065)" fill="#ffaf19"/>
      <path id="Path_232" data-name="Path 232" d="M519.29,294.753v1.411H520.7v2.822H519.29V300.4h3.527v-5.644Z" transform="translate(-281.9 -160.009)" fill="#ffaf19"/>
      <path id="Path_233" data-name="Path 233" d="M519.29,373.457v1.411H520.7v2.822H519.29V379.1h3.527v-5.643Z" transform="translate(-281.9 -202.734)" fill="#ffaf19"/>
      <rect id="Rectangle_227" data-name="Rectangle 227" width="3.527" height="5.644" transform="translate(248.677 30.335)" fill="#ffaf19"/>
      <rect id="Rectangle_228" data-name="Rectangle 228" width="3.527" height="5.644" transform="translate(260.67 28.924)" fill="#ffaf19"/>
      <rect id="Rectangle_229" data-name="Rectangle 229" width="3.527" height="5.644" transform="translate(267.019 28.924)" fill="#ffaf19"/>
      <rect id="Rectangle_230" data-name="Rectangle 230" width="3.527" height="5.644" transform="translate(267.019 45.855)" fill="#ffaf19"/>
      <rect id="Rectangle_231" data-name="Rectangle 231" width="3.527" height="5.644" transform="translate(274.074 37.39)" fill="#ffaf19"/>
      <rect id="Rectangle_232" data-name="Rectangle 232" width="3.527" height="5.644" transform="translate(274.074 46.561)" fill="#ffaf19"/>
      <rect id="Rectangle_233" data-name="Rectangle 233" width="3.527" height="5.644" transform="translate(267.019 64.198)" fill="#ffaf19"/>
      <rect id="Rectangle_234" data-name="Rectangle 234" width="3.527" height="5.644" transform="translate(274.074 73.369)" fill="#ffaf19"/>
      <rect id="Rectangle_235" data-name="Rectangle 235" width="3.527" height="5.644" transform="translate(267.019 107.937)" fill="#ffaf19"/>
      <rect id="Rectangle_236" data-name="Rectangle 236" width="3.527" height="5.644" transform="translate(260.67 73.369)" fill="#ffaf19"/>
      <rect id="Rectangle_237" data-name="Rectangle 237" width="3.527" height="5.644" transform="translate(248.677 39.506)" fill="#ffaf19"/>
      <rect id="Rectangle_238" data-name="Rectangle 238" width="3.527" height="5.644" transform="translate(248.677 127.69)" fill="#ffaf19"/>
      <rect id="Rectangle_239" data-name="Rectangle 239" width="3.527" height="5.644" transform="translate(248.677 146.032)" fill="#ffaf19"/>
      <rect id="Rectangle_240" data-name="Rectangle 240" width="3.527" height="5.644" transform="translate(248.677 155.203)" fill="#ffaf19"/>
      <rect id="Rectangle_241" data-name="Rectangle 241" width="4.938" height="0.705" transform="translate(247.266 49.383)" fill="#ffaf19"/>
      <rect id="Rectangle_242" data-name="Rectangle 242" width="4.938" height="0.705" transform="translate(266.314 57.848)" fill="#ffaf19"/>
      <rect id="Rectangle_243" data-name="Rectangle 243" width="4.938" height="0.705" transform="translate(247.266 94.533)" fill="#ffaf19"/>
      <rect id="Rectangle_244" data-name="Rectangle 244" width="4.938" height="0.705" transform="translate(247.266 102.293)" fill="#ffaf19"/>
      <rect id="Rectangle_245" data-name="Rectangle 245" width="4.938" height="0.705" transform="translate(266.314 147.443)" fill="#ffaf19"/>
      <rect id="Rectangle_246" data-name="Rectangle 246" width="4.938" height="0.705" transform="translate(260.67 164.374)" fill="#ffaf19"/>
      <path id="Path_234" data-name="Path 234" d="M543.981,121.914v1.411h1.411v2.822h-1.411v1.411h3.528v-5.643Z" transform="translate(-295.304 -66.182)" fill="#ffaf19"/>
      <path id="Path_235" data-name="Path 235" d="M570.216,100.309v1.411h1.411v2.822h-1.411v1.411h3.527v-5.643Z" transform="translate(-309.546 -54.453)" fill="#ffaf19"/>
      <path id="Path_236" data-name="Path 236" d="M599.537,120.37v1.411h1.411V124.6h-1.411v1.411h3.527V120.37Z" transform="translate(-325.463 -65.344)" fill="#ffaf19"/>
      <path id="Path_237" data-name="Path 237" d="M599.537,180.556v1.411h1.411v2.822h-1.411V186.2h3.527v-5.643Z" transform="translate(-325.463 -98.016)" fill="#ffaf19"/>
      <path id="Path_238" data-name="Path 238" d="M599.537,200.617v1.411h1.411v2.822h-1.411v1.411h3.527v-5.644Z" transform="translate(-325.463 -108.906)" fill="#ffaf19"/>
      <path id="Path_239" data-name="Path 239" d="M599.537,138.889V140.3h1.411v2.822h-1.411v1.411h3.527v-5.644Z" transform="translate(-325.463 -75.397)" fill="#ffaf19"/>
      <path id="Path_240" data-name="Path 240" d="M584.105,81.79V83.2h1.411v2.821h-1.411v1.411h3.527V81.79Z" transform="translate(-317.086 -44.4)" fill="#ffaf19"/>
      <rect id="Rectangle_247" data-name="Rectangle 247" width="3.527" height="5.644" transform="translate(267.019 82.54)" fill="#ffaf19"/>
      <rect id="Rectangle_248" data-name="Rectangle 248" width="3.527" height="5.644" transform="translate(267.019 99.471)" fill="#ffaf19"/>
      <path id="Path_241" data-name="Path 241" d="M584.105,199.074v1.411h1.411v2.822h-1.411v1.411h3.527v-5.644Z" transform="translate(-317.086 -108.069)" fill="#ffaf19"/>
      <path id="Path_242" data-name="Path 242" d="M570.216,120.37v1.411h1.411V124.6h-1.411v1.411h3.527V120.37Z" transform="translate(-309.546 -65.344)" fill="#ffaf19"/>
      <path id="Path_243" data-name="Path 243" d="M570.216,140.432v1.411h1.411v2.822h-1.411v1.411h3.527v-5.644Z" transform="translate(-309.546 -76.235)" fill="#ffaf19"/>
      <rect id="Rectangle_249" data-name="Rectangle 249" width="3.527" height="5.644" transform="translate(260.67 91.711)" fill="#ffaf19"/>
      <path id="Path_244" data-name="Path 244" d="M570.216,180.556v1.411h1.411v2.822h-1.411V186.2h3.527v-5.643Z" transform="translate(-309.546 -98.016)" fill="#ffaf19"/>
      <rect id="Rectangle_250" data-name="Rectangle 250" width="3.527" height="5.644" transform="translate(260.67 110.053)" fill="#ffaf19"/>
      <path id="Path_245" data-name="Path 245" d="M570.216,220.679v1.411h1.411v2.822h-1.411v1.411h3.527v-5.644Z" transform="translate(-309.546 -119.797)" fill="#ffaf19"/>
      <rect id="Rectangle_251" data-name="Rectangle 251" width="3.527" height="5.644" transform="translate(260.67 128.395)" fill="#ffaf19"/>
      <rect id="Rectangle_252" data-name="Rectangle 252" width="3.527" height="5.644" transform="translate(267.019 126.984)" fill="#ffaf19"/>
      <path id="Path_246" data-name="Path 246" d="M570.216,260.8v1.411h1.411v2.822h-1.411v1.411h3.527V260.8Z" transform="translate(-309.546 -141.578)" fill="#ffaf19"/>
      <path id="Path_247" data-name="Path 247" d="M599.537,260.8v1.411h1.411v2.822h-1.411v1.411h3.527V260.8Z" transform="translate(-325.463 -141.578)" fill="#ffaf19"/>
      <rect id="Rectangle_253" data-name="Rectangle 253" width="3.527" height="5.644" transform="translate(310.053 37.39)" fill="#ffaf19"/>
      <rect id="Rectangle_254" data-name="Rectangle 254" width="3.527" height="5.644" transform="translate(310.053 46.561)" fill="#ffaf19"/>
      <rect id="Rectangle_255" data-name="Rectangle 255" width="3.527" height="5.644" transform="translate(310.053 73.369)" fill="#ffaf19"/>
      <path id="Path_248" data-name="Path 248" d="M678.241,120.37v1.411h1.411V124.6h-1.411v1.411h3.527V120.37Z" transform="translate(-368.188 -65.344)" fill="#ffaf19"/>
      <path id="Path_249" data-name="Path 249" d="M678.241,180.556v1.411h1.411v2.822h-1.411V186.2h3.527v-5.643Z" transform="translate(-368.188 -98.016)" fill="#ffaf19"/>
      <path id="Path_250" data-name="Path 250" d="M678.241,200.617v1.411h1.411v2.822h-1.411v1.411h3.527v-5.644Z" transform="translate(-368.188 -108.906)" fill="#ffaf19"/>
      <path id="Path_251" data-name="Path 251" d="M678.241,138.889V140.3h1.411v2.822h-1.411v1.411h3.527v-5.644Z" transform="translate(-368.188 -75.397)" fill="#ffaf19"/>
      <path id="Path_252" data-name="Path 252" d="M678.241,260.8v1.411h1.411v2.822h-1.411v1.411h3.527V260.8Z" transform="translate(-368.188 -141.578)" fill="#ffaf19"/>
      <rect id="Rectangle_256" data-name="Rectangle 256" width="3.527" height="5.644" transform="translate(260.67 146.737)" fill="#ffaf19"/>
      <rect id="Rectangle_257" data-name="Rectangle 257" width="3.527" height="5.644" transform="translate(267.019 136.155)" fill="#ffaf19"/>
      <rect id="Rectangle_258" data-name="Rectangle 258" width="3.527" height="5.644" transform="translate(260.67 170.723)" fill="#ffaf19"/>
      <rect id="Rectangle_259" data-name="Rectangle 259" width="3.527" height="5.644" transform="translate(267.019 153.792)" fill="#ffaf19"/>
      <path id="Path_253" data-name="Path 253" d="M570.216,300.926v1.411h1.411v2.822h-1.411v1.411h3.527v-5.644Z" transform="translate(-309.546 -163.36)" fill="#ffaf19"/>
      <path id="Path_254" data-name="Path 254" d="M570.216,395.062v1.411h1.411v2.822h-1.411v1.411h3.527v-5.643Z" transform="translate(-309.546 -214.462)" fill="#ffaf19"/>
      <rect id="Rectangle_260" data-name="Rectangle 260" width="3.527" height="5.644" transform="translate(299.471 28.924)" fill="#ffaf19"/>
      <rect id="Rectangle_261" data-name="Rectangle 261" width="3.527" height="5.644" transform="translate(299.471 73.369)" fill="#ffaf19"/>
      <rect id="Rectangle_262" data-name="Rectangle 262" width="4.938" height="0.705" transform="translate(299.471 164.374)" fill="#ffaf19"/>
      <path id="Path_255" data-name="Path 255" d="M655.093,100.309v1.411H656.5v2.822h-1.411v1.411h3.527v-5.643Z" transform="translate(-355.622 -54.453)" fill="#ffaf19"/>
      <path id="Path_256" data-name="Path 256" d="M655.093,120.37v1.411H656.5V124.6h-1.411v1.411h3.527V120.37Z" transform="translate(-355.622 -65.344)" fill="#ffaf19"/>
      <path id="Path_257" data-name="Path 257" d="M655.093,140.432v1.411H656.5v2.822h-1.411v1.411h3.527v-5.644Z" transform="translate(-355.622 -76.235)" fill="#ffaf19"/>
      <rect id="Rectangle_263" data-name="Rectangle 263" width="3.527" height="5.644" transform="translate(299.471 91.711)" fill="#ffaf19"/>
      <path id="Path_258" data-name="Path 258" d="M655.093,180.556v1.411H656.5v2.822h-1.411V186.2h3.527v-5.643Z" transform="translate(-355.622 -98.016)" fill="#ffaf19"/>
      <rect id="Rectangle_264" data-name="Rectangle 264" width="3.527" height="5.644" transform="translate(299.471 110.053)" fill="#ffaf19"/>
      <path id="Path_259" data-name="Path 259" d="M655.093,220.679v1.411H656.5v2.822h-1.411v1.411h3.527v-5.644Z" transform="translate(-355.622 -119.797)" fill="#ffaf19"/>
      <rect id="Rectangle_265" data-name="Rectangle 265" width="3.527" height="5.644" transform="translate(299.471 128.395)" fill="#ffaf19"/>
      <path id="Path_260" data-name="Path 260" d="M655.093,260.8v1.411H656.5v2.822h-1.411v1.411h3.527V260.8Z" transform="translate(-355.622 -141.578)" fill="#ffaf19"/>
      <rect id="Rectangle_266" data-name="Rectangle 266" width="3.527" height="5.644" transform="translate(299.471 146.737)" fill="#ffaf19"/>
      <rect id="Rectangle_267" data-name="Rectangle 267" width="3.527" height="5.644" transform="translate(299.471 170.723)" fill="#ffaf19"/>
      <path id="Path_261" data-name="Path 261" d="M655.093,300.926v1.411H656.5v2.822h-1.411v1.411h3.527v-5.644Z" transform="translate(-355.622 -163.36)" fill="#ffaf19"/>
      <path id="Path_262" data-name="Path 262" d="M655.093,395.062v1.411H656.5v2.822h-1.411v1.411h3.527v-5.643Z" transform="translate(-355.622 -214.462)" fill="#ffaf19"/>
      <rect id="Rectangle_268" data-name="Rectangle 268" width="3.527" height="5.644" transform="translate(316.402 28.924)" fill="#ffaf19"/>
      <rect id="Rectangle_269" data-name="Rectangle 269" width="3.527" height="5.644" transform="translate(316.402 73.369)" fill="#ffaf19"/>
      <rect id="Rectangle_270" data-name="Rectangle 270" width="4.938" height="0.705" transform="translate(316.402 164.374)" fill="#ffaf19"/>
      <path id="Path_263" data-name="Path 263" d="M692.13,100.309v1.411h1.411v2.822H692.13v1.411h3.527v-5.643Z" transform="translate(-375.728 -54.453)" fill="#ffaf19"/>
      <path id="Path_264" data-name="Path 264" d="M692.13,120.37v1.411h1.411V124.6H692.13v1.411h3.527V120.37Z" transform="translate(-375.728 -65.344)" fill="#ffaf19"/>
      <path id="Path_265" data-name="Path 265" d="M692.13,140.432v1.411h1.411v2.822H692.13v1.411h3.527v-5.644Z" transform="translate(-375.728 -76.235)" fill="#ffaf19"/>
      <rect id="Rectangle_271" data-name="Rectangle 271" width="3.527" height="5.644" transform="translate(316.402 91.711)" fill="#ffaf19"/>
      <path id="Path_266" data-name="Path 266" d="M692.13,180.556v1.411h1.411v2.822H692.13V186.2h3.527v-5.643Z" transform="translate(-375.728 -98.016)" fill="#ffaf19"/>
      <rect id="Rectangle_272" data-name="Rectangle 272" width="3.527" height="5.644" transform="translate(316.402 110.053)" fill="#ffaf19"/>
      <path id="Path_267" data-name="Path 267" d="M692.13,220.679v1.411h1.411v2.822H692.13v1.411h3.527v-5.644Z" transform="translate(-375.728 -119.797)" fill="#ffaf19"/>
      <rect id="Rectangle_273" data-name="Rectangle 273" width="3.527" height="5.644" transform="translate(316.402 128.395)" fill="#ffaf19"/>
      <path id="Path_268" data-name="Path 268" d="M692.13,260.8v1.411h1.411v2.822H692.13v1.411h3.527V260.8Z" transform="translate(-375.728 -141.578)" fill="#ffaf19"/>
      <rect id="Rectangle_274" data-name="Rectangle 274" width="3.527" height="5.644" transform="translate(316.402 146.737)" fill="#ffaf19"/>
      <rect id="Rectangle_275" data-name="Rectangle 275" width="3.527" height="5.644" transform="translate(316.402 170.723)" fill="#ffaf19"/>
      <path id="Path_269" data-name="Path 269" d="M692.13,300.926v1.411h1.411v2.822H692.13v1.411h3.527v-5.644Z" transform="translate(-375.728 -163.36)" fill="#ffaf19"/>
      <path id="Path_270" data-name="Path 270" d="M692.13,395.062v1.411h1.411v2.822H692.13v1.411h3.527v-5.643Z" transform="translate(-375.728 -214.462)" fill="#ffaf19"/>
      <path id="Path_271" data-name="Path 271" d="M584.105,373.457v1.411h1.411v2.822h-1.411V379.1h3.527v-5.643Z" transform="translate(-317.086 -202.734)" fill="#ffaf19"/>
      <path id="Path_272" data-name="Path 272" d="M584.105,393.519v1.411h1.411v2.822h-1.411v1.411h3.527v-5.643Z" transform="translate(-317.086 -213.625)" fill="#ffaf19"/>
      <path id="Path_273" data-name="Path 273" d="M543.981,160.494V161.9h1.411v2.822h-1.411v1.411h3.528v-5.644Z" transform="translate(-295.304 -87.125)" fill="#ffaf19"/>
      <path id="Path_274" data-name="Path 274" d="M543.981,239.2v1.411h1.411v2.822h-1.411v1.411h3.528V239.2Z" transform="translate(-295.304 -129.85)" fill="#ffaf19"/>
      <path id="Path_275" data-name="Path 275" d="M543.981,259.259v1.411h1.411v2.822h-1.411V264.9h3.528v-5.644Z" transform="translate(-295.304 -140.741)" fill="#ffaf19"/>
      <path id="Path_276" data-name="Path 276" d="M543.981,299.383v1.411h1.411v2.822h-1.411v1.411h3.528v-5.643Z" transform="translate(-295.304 -162.522)" fill="#ffaf19"/>
      <path id="Path_277" data-name="Path 277" d="M543.981,356.481v1.411h1.411v2.822h-1.411v1.411h3.528v-5.644Z" transform="translate(-295.304 -193.518)" fill="#ffaf19"/>
      <path id="Path_278" data-name="Path 278" d="M543.981,373.457v1.411h1.411v2.822h-1.411V379.1h3.528v-5.643Z" transform="translate(-295.304 -202.734)" fill="#ffaf19"/>
      <rect id="Rectangle_276" data-name="Rectangle 276" width="3.527" height="5.644" transform="translate(285.362 30.335)" fill="#ffaf19"/>
      <rect id="Rectangle_277" data-name="Rectangle 277" width="3.527" height="5.644" transform="translate(285.362 39.506)" fill="#ffaf19"/>
      <rect id="Rectangle_278" data-name="Rectangle 278" width="4.938" height="0.705" transform="translate(283.951 49.383)" fill="#ffaf19"/>
      <rect id="Rectangle_279" data-name="Rectangle 279" width="4.938" height="0.705" transform="translate(283.951 94.533)" fill="#ffaf19"/>
      <rect id="Rectangle_280" data-name="Rectangle 280" width="4.938" height="0.705" transform="translate(283.951 102.293)" fill="#ffaf19"/>
      <path id="Path_279" data-name="Path 279" d="M624.228,121.914v1.411h1.411v2.822h-1.411v1.411h3.527v-5.643Z" transform="translate(-338.867 -66.182)" fill="#ffaf19"/>
      <path id="Path_280" data-name="Path 280" d="M624.228,160.494V161.9h1.411v2.822h-1.411v1.411h3.527v-5.644Z" transform="translate(-338.867 -87.125)" fill="#ffaf19"/>
      <path id="Path_281" data-name="Path 281" d="M624.228,239.2v1.411h1.411v2.822h-1.411v1.411h3.527V239.2Z" transform="translate(-338.867 -129.85)" fill="#ffaf19"/>
      <rect id="Rectangle_281" data-name="Rectangle 281" width="3.527" height="5.644" transform="translate(325.573 91.711)" fill="#ffaf19"/>
      <rect id="Rectangle_282" data-name="Rectangle 282" width="3.527" height="5.644" transform="translate(325.573 100.882)" fill="#ffaf19"/>
      <rect id="Rectangle_283" data-name="Rectangle 283" width="4.938" height="0.705" transform="translate(324.162 110.758)" fill="#ffaf19"/>
      <rect id="Rectangle_284" data-name="Rectangle 284" width="4.938" height="0.705" transform="translate(324.162 155.908)" fill="#ffaf19"/>
      <rect id="Rectangle_285" data-name="Rectangle 285" width="4.938" height="0.705" transform="translate(324.162 163.668)" fill="#ffaf19"/>
      <path id="Path_282" data-name="Path 282" d="M712.191,256.173v1.411H713.6v2.822h-1.411v1.411h3.527v-5.644Z" transform="translate(-386.618 -139.065)" fill="#ffaf19"/>
      <path id="Path_283" data-name="Path 283" d="M712.191,294.753v1.411H713.6v2.822h-1.411V300.4h3.527v-5.644Z" transform="translate(-386.618 -160.009)" fill="#ffaf19"/>
      <path id="Path_284" data-name="Path 284" d="M712.191,373.457v1.411H713.6v2.822h-1.411V379.1h3.527v-5.643Z" transform="translate(-386.618 -202.734)" fill="#ffaf19"/>
    </g>
  </g>
</svg>
