<svg id="fast" xmlns="http://www.w3.org/2000/svg" xmlns:xlink="http://www.w3.org/1999/xlink" width="942" height="745.583" viewBox="0 0 942 745.583">
  <defs>
    <linearGradient id="linear-gradient" x1="0.5" y1="1" x2="0.5" gradientUnits="objectBoundingBox">
      <stop offset="0" stop-color="gray" stop-opacity="0.251"/>
      <stop offset="0.54" stop-color="gray" stop-opacity="0.122"/>
      <stop offset="1" stop-color="gray" stop-opacity="0.102"/>
    </linearGradient>
  </defs>
  <g id="Group_212" data-name="Group 212" opacity="0.5">
    <rect id="Rectangle_108" data-name="Rectangle 108" width="334.33" height="505.38" rx="4.5" transform="translate(52.32)" fill="url(#linear-gradient)"/>
  </g>
  <rect id="Rectangle_109" data-name="Rectangle 109" width="325.76" height="495.16" rx="4.5" transform="translate(56.6 3.71)" fill="#f2f2f2"/>
  <g id="Group_213" data-name="Group 213" opacity="0.5">
    <rect id="Rectangle_110" data-name="Rectangle 110" width="65.15" height="58.64" rx="4.5" transform="translate(89.18 94.93)" fill="#ffaf19"/>
  </g>
  <rect id="Rectangle_111" data-name="Rectangle 111" width="175.91" height="6.52" rx="2.82" transform="translate(173.88 94.93)" fill="#e0e0e0"/>
  <rect id="Rectangle_112" data-name="Rectangle 112" width="146.23" height="6.52" rx="2.82" transform="translate(173.88 114.47)" fill="#e0e0e0"/>
  <g id="Group_214" data-name="Group 214" opacity="0.5">
    <rect id="Rectangle_113" data-name="Rectangle 113" width="65.15" height="58.64" rx="4.5" transform="translate(89.18 186.14)" fill="#ffaf19"/>
  </g>
  <rect id="Rectangle_114" data-name="Rectangle 114" width="175.91" height="6.52" rx="2.82" transform="translate(173.88 186.14)" fill="#e0e0e0"/>
  <rect id="Rectangle_115" data-name="Rectangle 115" width="175.91" height="6.52" rx="2.82" transform="translate(173.88 205.68)" fill="#e0e0e0"/>
  <g id="Group_215" data-name="Group 215" opacity="0.5">
    <rect id="Rectangle_116" data-name="Rectangle 116" width="65.15" height="58.64" rx="4.5" transform="translate(89.18 277.35)" fill="#ffaf19"/>
  </g>
  <rect id="Rectangle_117" data-name="Rectangle 117" width="175.91" height="6.52" rx="2.82" transform="translate(173.88 277.35)" fill="#e0e0e0"/>
  <rect id="Rectangle_118" data-name="Rectangle 118" width="19.55" height="6.52" rx="2.82" transform="translate(173.88 296.9)" fill="#e0e0e0"/>
  <g id="Group_216" data-name="Group 216" opacity="0.5">
    <rect id="Rectangle_119" data-name="Rectangle 119" width="329.32" height="297.06" rx="4.5" transform="translate(260.36 162.72)" fill="url(#linear-gradient)"/>
  </g>
  <rect id="Rectangle_120" data-name="Rectangle 120" width="319.7" height="287.73" rx="4.5" transform="translate(265.45 165.7)" fill="#fff"/>
  <g id="Group_217" data-name="Group 217" opacity="0.5">
    <rect id="Rectangle_121" data-name="Rectangle 121" width="68.69" height="61.82" rx="4.5" transform="translate(296.84 227.52)" fill="#ffaf19"/>
  </g>
  <rect id="Rectangle_122" data-name="Rectangle 122" width="185.46" height="6.87" rx="2.98" transform="translate(386.14 227.52)" fill="#e0e0e0"/>
  <rect id="Rectangle_123" data-name="Rectangle 123" width="185.46" height="6.87" rx="2.98" transform="translate(386.14 248.13)" fill="#e0e0e0"/>
  <rect id="Rectangle_124" data-name="Rectangle 124" width="281.63" height="6.87" rx="2.98" transform="translate(289.97 322.92)" fill="#e0e0e0"/>
  <rect id="Rectangle_125" data-name="Rectangle 125" width="281.63" height="6.87" rx="2.98" transform="translate(289.97 343.53)" fill="#e0e0e0"/>
  <rect id="Rectangle_126" data-name="Rectangle 126" width="281.63" height="6.87" rx="2.98" transform="translate(289.97 371)" fill="#e0e0e0"/>
  <rect id="Rectangle_127" data-name="Rectangle 127" width="212.94" height="6.87" rx="2.98" transform="translate(289.97 391.61)" fill="#e0e0e0"/>
  <g id="Group_218" data-name="Group 218" opacity="0.5">
    <path id="Path_135" data-name="Path 135" d="M726.64,352.64h0l1.17-5.22-1.64,5.1a510.06,510.06,0,0,0-130.8-17.64C277.05,333,129,614.33,129,614.33L430.66,773.49s37-114.74,168.41-111a226.2,226.2,0,0,1,27,2.36L586.09,789.38a22.2,22.2,0,1,0,37.07,24.4h0v-.06a22.07,22.07,0,0,0,3.27-11.2,19,19,0,0,0-.07-2l28.9-129.14c86.1,26.48,112.19,102.1,112.19,102.1L1071,621.73S957,415.2,726.64,352.64Z" transform="translate(-129 -78.76)" fill="url(#linear-gradient)"/>
  </g>
  <path id="Path_136" data-name="Path 136" d="M595.43,338C281.17,336.17,135,613.89,135,613.89L432.82,771s36.54-113.28,166.27-109.63a223.2,223.2,0,0,1,27.29,2.42L725,355.54A503.551,503.551,0,0,0,595.43,338Z" transform="translate(-129 -78.76)" fill="#ffaf19"/>
  <path id="Path_137" data-name="Path 137" d="M725,355.54,626.38,663.82C734,680.17,765.35,771,765.35,771L1065,621.2S952.41,417.3,725,355.54Z" transform="translate(-129 -78.76)" fill="#e0e0e0"/>
  <path id="Path_138" data-name="Path 138" d="M626.06,797.71,726.18,350.38,586.26,786.71a21.92,21.92,0,1,0,36.59,24.09h0v-.06a21.789,21.789,0,0,0,3.23-11.05A11.865,11.865,0,0,0,626.06,797.71Z" transform="translate(-129 -78.76)" fill="#535461"/>
</svg>
