<svg xmlns="http://www.w3.org/2000/svg" width="92.62" height="100" viewBox="0 0 92.62 100">
  <g id="undraw_drag_5i9w" transform="translate(-79.021 -39.649)">
    <path id="Path_436" data-name="Path 436" d="M310.167,203.053v11.332a.4.4,0,0,1-.4.4h-.281v59.034a6.16,6.16,0,0,1-6.159,6.16H266.444a6.158,6.158,0,0,1-6.158-6.159V216.851h-.2a.279.279,0,0,1-.28-.278v-6.449a.279.279,0,0,1,.28-.28h.2v-2.429h-.205a.293.293,0,0,1-.292-.293V200.76a.292.292,0,0,1,.292-.292h.205v-3.316h-.209a.258.258,0,0,1-.259-.259v-3.471a.26.26,0,0,1,.259-.261h.209v-7.029a6.158,6.158,0,0,1,6.158-6.158h36.887a6.16,6.16,0,0,1,6.16,6.158v16.526h.281A.4.4,0,0,1,310.167,203.053Z" transform="translate(-160.787 -140.325)" fill="#3f3d56"/>
    <rect id="Rectangle_376" data-name="Rectangle 376" width="6.871" height="1.395" rx="0.698" transform="translate(119.445 42.808)" fill="#e6e8ec"/>
    <circle id="Ellipse_58" data-name="Ellipse 58" cx="0.791" cy="0.791" r="0.791" transform="translate(127.355 42.714)" fill="#e6e8ec"/>
    <path id="Path_437" data-name="Path 437" d="M323.93,203.982v86.975a3.908,3.908,0,0,1-3.908,3.906h-35.31a3.9,3.9,0,0,1-3.908-3.906V203.982a3.908,3.908,0,0,1,3.908-3.908H290v.678a3.218,3.218,0,0,0,3.218,3.218h17.958a3.218,3.218,0,0,0,3.218-3.218v-.678h5.632A3.907,3.907,0,0,1,323.93,203.982Z" transform="translate(-178.176 -156.957)" fill="#ffaf19"/>
    <rect id="Rectangle_377" data-name="Rectangle 377" width="40.029" height="19.497" transform="translate(104.351 71.629)" opacity="0.2"/>
    <rect id="Rectangle_379" data-name="Rectangle 379" width="40.029" height="19.497" transform="translate(104.351 101.182)" fill="#3f3d56"/>
    <circle id="Ellipse_59" data-name="Ellipse 59" cx="3.451" cy="3.451" r="3.451" transform="translate(136.789 50.283)" fill="#fff"/>
    <path id="Path_438" data-name="Path 438" d="M427.934,113.721h-1.442v-1.442h-.222v1.442h-1.442v.222h1.442v1.442h.222v-1.442h1.442Z" transform="translate(-286.142 -60.098)" fill="#3f3d56"/>
    <path id="Path_441" data-name="Path 441" d="M382.685,577a12.45,12.45,0,0,0,4.637,6.272,10.719,10.719,0,0,0-3.795-14.027A12.451,12.451,0,0,0,382.685,577Z" transform="translate(-262.218 -462.436)" fill="#fff"/>
    <path id="Path_442" data-name="Path 442" d="M358.665,594.818a12.45,12.45,0,0,1,3.227,7.1,10.719,10.719,0,0,1-10.412-10.136A12.451,12.451,0,0,1,358.665,594.818Z" transform="translate(-236.657 -481.081)" fill="#ffaf19"/>
    <path id="Path_443" data-name="Path 443" d="M411.656,577a12.45,12.45,0,0,1-4.637,6.272,10.719,10.719,0,0,1,3.794-14.027A12.45,12.45,0,0,1,411.656,577Z" transform="translate(-281.656 -462.436)" fill="#fff"/>
    <path id="Path_444" data-name="Path 444" d="M415.054,594.818a12.45,12.45,0,0,0-3.227,7.1,10.719,10.719,0,0,0,10.413-10.136A12.451,12.451,0,0,0,415.054,594.818Z" transform="translate(-286.594 -481.081)" fill="#ffaf19"/>
    <path id="Path_445" data-name="Path 445" d="M664.459,460.551h-3.406v-3.406h3.406Zm-3.144-.262H664.2v-2.882h-2.882Z" transform="translate(-492.818 -369.673)" fill="#3f3d56"/>
    <path id="Path_446" data-name="Path 446" d="M151.3,575.879l-2.323-2.491,2.491-2.323,2.323,2.491Zm-1.953-2.478,1.966,2.108,2.108-1.966-1.966-2.108Z" transform="translate(-69.091 -463.937)" fill="#2f2e41"/>
    <circle id="Ellipse_60" data-name="Ellipse 60" cx="1.739" cy="1.739" r="1.739" transform="translate(82.306 54.872)" fill="#3f3d56"/>
    <path id="Path_447" data-name="Path 447" d="M149.012,259.212a5.024,5.024,0,1,1,5.024-5.024A5.024,5.024,0,0,1,149.012,259.212Zm0-9.661a4.637,4.637,0,1,0,4.637,4.637,4.637,4.637,0,0,0-4.637-4.637Z" transform="translate(-64.967 -197.578)" fill="#2f2e41"/>
    <rect id="Rectangle_382" data-name="Rectangle 382" width="40.029" height="19.497" transform="translate(112.978 68.524)" fill="#3f3d56"/>
    <rect id="Rectangle_383" data-name="Rectangle 383" width="0.345" height="12.839" transform="translate(132.845 75.209)" fill="#fff"/>
    <circle id="Ellipse_61" data-name="Ellipse 61" cx="1.816" cy="1.816" r="1.816" transform="translate(131.202 73.566)" fill="#ffaf19"/>
    <path id="Path_448" data-name="Path 448" d="M430.2,408.035s-.259-5.579-5.576-4.93" transform="translate(-297.18 -324.913)" fill="#fff"/>
    <path id="Path_450" data-name="Path 450" d="M502.395,397.1a.539.539,0,0,1-.5.3.791.791,0,0,1-.2-.027,2.748,2.748,0,0,1-1.4-1.321,2.845,2.845,0,0,1-.459-1.8,1.441,1.441,0,0,1,.192-.082.888.888,0,0,1,.105-.031,2.238,2.238,0,0,0,.377,1.792,2.535,2.535,0,0,0,1.243,1.2.338.338,0,0,0,.465-.269l.031.041.11.148Z" transform="translate(-359.398 -317.537)" fill="#3f3d56"/>
    <path id="Path_451" data-name="Path 451" d="M477.345,580.668l-.015-.01-.22-.138a2.475,2.475,0,0,0-.858-1.515,2.64,2.64,0,0,0-1.481-.822,1.329,1.329,0,0,1,.156-.156h0c.025-.021.051-.042.078-.062a3.235,3.235,0,0,1,1.419.863A2.449,2.449,0,0,1,477.345,580.668Z" transform="translate(-338.677 -469.647)" fill="#3f3d56"/>
  </g>
</svg>
