<svg xmlns="http://www.w3.org/2000/svg" width="69.995" height="70" viewBox="0 0 69.995 70">
  <path id="layers" d="M68.985,32.554l-11.241-5.62,11.241-5.621a2.737,2.737,0,0,0,0-4.891L36.72.288a2.737,2.737,0,0,0-2.446,0L2.008,16.421a2.737,2.737,0,0,0,0,4.891l11.241,5.621L2.008,32.554a2.737,2.737,0,0,0,0,4.891l11.241,5.621L2.008,48.687a2.737,2.737,0,0,0,0,4.891L34.274,69.711a2.736,2.736,0,0,0,2.446,0L68.985,53.579a2.737,2.737,0,0,0,0-4.891l-11.241-5.62,11.241-5.621A2.737,2.737,0,0,0,68.985,32.554ZM35.5,5.791,61.648,18.867,35.5,31.943,9.345,18.867ZM61.648,51.133,35.5,64.208,9.345,51.133l10.018-5.009,14.91,7.455a2.736,2.736,0,0,0,2.446,0l14.91-7.455ZM35.5,48.076,9.345,35l10.018-5.009,14.91,7.455a2.736,2.736,0,0,0,2.446,0l14.91-7.455L61.648,35Zm0,0" transform="translate(-0.499)" fill="#2e2e2e"/>
</svg>
