<svg id="undraw_click_here_2li1" xmlns="http://www.w3.org/2000/svg" width="108.103" height="100" viewBox="0 0 108.103 100">
  <path id="Path_452" data-name="Path 452" d="M341.671,28.115V35.76l-7.073-3.1-2.871-1.26-2.233-.98-11.482-5.041-2.233-.98-2.871-1.26L271.6,5h17.417Z" transform="translate(-233.568 -4.3)" fill="#f2f2f2"/>
  <circle id="Ellipse_62" data-name="Ellipse 62" cx="9.242" cy="9.242" r="9.242" transform="translate(83.598)" fill="#ffaf19"/>
  <path id="Path_453" data-name="Path 453" d="M901.68,425.228a1.68,1.68,0,1,1,1.68-1.68A1.68,1.68,0,0,1,901.68,425.228Zm0-3.081a1.4,1.4,0,1,0,1.4,1.4A1.4,1.4,0,0,0,901.68,422.147Z" transform="translate(-803.939 -372.857)" fill="#3f3d56"/>
  <path id="Path_454" data-name="Path 454" d="M217.641,258.508H214v-3.641h3.641Zm-3.361-.28h3.081v-3.081H214.28Z" transform="translate(-214 -229.242)" fill="#3f3d56"/>
  <path id="Path_455" data-name="Path 455" d="M604.641,79.508H601V75.867h3.641Zm-3.361-.28h3.081V76.147H601.28Z" transform="translate(-546.808 -75.307)" fill="#3f3d56"/>
  <rect id="Rectangle_389" data-name="Rectangle 389" width="26.046" height="21.145" transform="translate(16.594 22.772)" fill="#ffaf19"/>
  <rect id="Rectangle_390" data-name="Rectangle 390" width="72.115" height="2.24" transform="translate(16.594 50.358)" fill="#f2f2f2"/>
  <path id="Path_456" data-name="Path 456" d="M344.826,245.912H318.5V224.487h26.326Zm-26.046-.28h25.766V224.767H318.78Z" transform="translate(-303.867 -203.116)" fill="#3f3d56"/>
  <rect id="Rectangle_391" data-name="Rectangle 391" width="25.205" height="2.24" transform="translate(53.001 28.583)" fill="#ffaf19"/>
  <rect id="Rectangle_392" data-name="Rectangle 392" width="35.708" height="2.24" transform="translate(53.001 34.604)" fill="#ffaf19" opacity="0.3"/>
  <path id="Path_457" data-name="Path 457" d="M603.985,268.508H578.5v-2.521h25.485Zm-25.205-.28h24.925v-1.96H578.78Z" transform="translate(-527.459 -238.804)" fill="#3f3d56"/>
  <path id="Path_458" data-name="Path 458" d="M614.488,311.508H578.5v-2.521h35.988Zm-35.708-.28h35.428v-1.96H578.78Z" transform="translate(-527.459 -275.783)" fill="#3f3d56"/>
  <path id="Path_459" data-name="Path 459" d="M390.9,424.008H318.5v-2.521h72.4Zm-72.115-.28h71.835v-1.96H318.78Z" transform="translate(-303.867 -372.53)" fill="#3f3d56"/>
  <rect id="Rectangle_393" data-name="Rectangle 393" width="72.115" height="2.24" transform="translate(16.594 57.359)" fill="#f2f2f2"/>
  <path id="Path_460" data-name="Path 460" d="M390.9,474.008H318.5v-2.521h72.4Zm-72.115-.28h71.835v-1.96H318.78Z" transform="translate(-303.867 -415.528)" fill="#3f3d56"/>
  <rect id="Rectangle_394" data-name="Rectangle 394" width="72.115" height="2.24" transform="translate(16.594 64.361)" fill="#f2f2f2"/>
  <path id="Path_461" data-name="Path 461" d="M390.9,524.008H318.5v-2.521h72.4Zm-72.115-.28h71.835v-1.96H318.78Z" transform="translate(-303.867 -458.527)" fill="#3f3d56"/>
  <rect id="Rectangle_395" data-name="Rectangle 395" width="72.115" height="2.24" transform="translate(16.594 71.362)" fill="#f2f2f2"/>
  <path id="Path_462" data-name="Path 462" d="M390.9,574.008H318.5v-2.521h72.4Zm-72.115-.28h71.835v-1.96H318.78Z" transform="translate(-303.867 -501.525)" fill="#3f3d56"/>
  <rect id="Rectangle_396" data-name="Rectangle 396" width="72.115" height="2.24" transform="translate(16.594 78.364)" fill="#f2f2f2"/>
  <path id="Path_463" data-name="Path 463" d="M390.9,624.008H318.5v-2.521h72.4Zm-72.115-.28h71.835v-1.96H318.78Z" transform="translate(-303.867 -544.524)" fill="#3f3d56"/>
  <rect id="Rectangle_397" data-name="Rectangle 397" width="72.115" height="2.24" transform="translate(16.594 85.365)" fill="#f2f2f2"/>
  <path id="Path_464" data-name="Path 464" d="M390.9,674.008H318.5v-2.521h72.4Zm-72.115-.28h71.835v-1.96H318.78Z" transform="translate(-303.867 -587.522)" fill="#3f3d56"/>
  <path id="Path_465" data-name="Path 465" d="M371.548,227.438H289V136.487h82.548Zm-82.268-.28h81.988V136.767H289.28Z" transform="translate(-278.498 -127.438)" fill="#3f3d56"/>
  <path id="Path_487" data-name="Path 487" d="M257.605,372.809a.734.734,0,0,0,.275.1.886.886,0,0,0,.733-.11Z" transform="translate(-251.499 -330.661)" opacity="0.1"/>
</svg>
