<svg id="web-shop" xmlns="http://www.w3.org/2000/svg" width="93.333" height="70" viewBox="0 0 93.333 70">
  <path id="Path_61" data-name="Path 61" d="M87.322,33H6.337A6.328,6.328,0,0,0,0,39.22V96.871A6.21,6.21,0,0,0,6.337,103H87.322a5.966,5.966,0,0,0,6.011-6.129V39.22A6.012,6.012,0,0,0,87.322,33Zm-66.03,3.544a2.278,2.278,0,1,1-2.278,2.278A2.281,2.281,0,0,1,21.292,36.544Zm-6.54,0a2.278,2.278,0,1,1-2.278,2.278A2.281,2.281,0,0,1,14.752,36.544Zm-6.54,0a2.278,2.278,0,1,1-2.278,2.278A2.281,2.281,0,0,1,8.211,36.544ZM87.677,97.167c0,.1.039.177-.059.177H5.657v-52.5c0-.1.2-.177.294-.177H87.618c.1,0,.059.079.059.177V97.167Zm-2.16-56.035H60.769a2.293,2.293,0,0,1,0-4.587l24.747.008a2.29,2.29,0,0,1,0,4.579Z" transform="translate(0 -33)" fill="#2e2e2e"/>
  <g id="Group_154" data-name="Group 154" transform="translate(11.824 21.217)">
    <path id="Path_62" data-name="Path 62" d="M35.723,97.6H60.471a2.291,2.291,0,0,0,0-4.583l-24.747-.008a2.3,2.3,0,0,0,0,4.591Z" transform="translate(-33.445 -93.013)" fill="#2e2e2e"/>
    <path id="Path_63" data-name="Path 63" d="M60.471,115.021l-24.747-.008a2.3,2.3,0,0,0,0,4.591H60.471a2.291,2.291,0,0,0,0-4.583Z" transform="translate(-33.445 -107.235)" fill="#2e2e2e"/>
    <path id="Path_64" data-name="Path 64" d="M60.471,137.021l-24.747-.008a2.3,2.3,0,0,0,0,4.591H60.471a2.291,2.291,0,0,0,0-4.583Z" transform="translate(-33.445 -121.457)" fill="#2e2e2e"/>
    <path id="Path_65" data-name="Path 65" d="M60.471,159.021l-24.747-.008a2.3,2.3,0,0,0,0,4.591H60.471a2.291,2.291,0,0,0,0-4.583Z" transform="translate(-33.445 -135.68)" fill="#2e2e2e"/>
  </g>
  <path id="Path_66" data-name="Path 66" d="M162.7,91H136.537A4.526,4.526,0,0,0,132,95.419v26.338A4.345,4.345,0,0,0,136.36,126H162.7a4.325,4.325,0,0,0,4.3-4.419V95.419A4.325,4.325,0,0,0,162.7,91Z" transform="translate(-85.333 -70.495)" fill="#2e2e2e"/>
</svg>
