<svg xmlns="http://www.w3.org/2000/svg" width="142.955" height="115.13" viewBox="0 0 142.955 115.13">
  <g id="Group_1" data-name="Group 1" transform="translate(-911.211 -256.65)">
    <path id="Path_2" data-name="Path 2" d="M876.418,322.447c28.832-24.081,58.642,0,58.642,0s19.3,12.127,33.372,10.1a45.215,45.215,0,0,0,22.72-10.1" transform="translate(48.879 -45)" fill="none" stroke="rgba(255,255,255,0.75)" stroke-linecap="round" stroke-linejoin="round" stroke-width="20"/>
    <path id="Path_3" data-name="Path 3" d="M876.418,322.447c28.832-24.081,58.642,0,58.642,0s19.3,12.127,33.372,10.1a45.215,45.215,0,0,0,22.72-10.1" transform="translate(48.879 -9)" fill="none" stroke="rgba(255,255,255,0.75)" stroke-linecap="round" stroke-linejoin="round" stroke-width="20"/>
    <path id="Path_4" data-name="Path 4" d="M876.418,322.447c28.832-24.081,58.642,0,58.642,0s19.3,12.127,33.372,10.1a45.215,45.215,0,0,0,22.72-10.1" transform="translate(48.879 29)" fill="none" stroke="rgba(255,255,255,0.75)" stroke-linecap="round" stroke-linejoin="round" stroke-width="20"/>
  </g>
</svg>
