<svg xmlns="http://www.w3.org/2000/svg" width="511.662" height="500" viewBox="0 0 511.662 500">
  <g id="icon" transform="translate(0 -0.289)">
    <path id="Path_93" data-name="Path 93" d="M393.576,436.98c0,14.064-1.773,63.309-51,63.309-26.375,0-38.687-43.966-96.676-43.966-38.666,0-31.655,15.8-103.708,15.8-72.094,0-114.287-35.14-114.287-87.871,0-63.309,38.364-42.958,77.353-73.827,42.213-33.408,38.687-59.783,91.437-59.783,43.925,0,68.467,60.065,98.429,72.074C339.072,340.284,393.576,400.067,393.576,436.98ZM73.988,230.631c1.149-30.043-11.566-55.491-35.825-55.491C12.714,175.14,0,200.589,0,221.363,0,250.277,16.18,278,38.163,278,60.125,277.982,72.819,260.694,73.988,230.631Zm182.593-27.746c21.963,0,50.857-40.44,52.005-70.5,1.169-30.063-2.3-61.234-26.577-61.234-25.428,0-61.254,38.122-61.254,69.334C220.755,169.378,234.638,202.886,256.581,202.886Zm87.851,73.968c32.34,0,52.025-35.825,53.174-65.888s-5.783-55.491-30.063-55.491c-39.271,0-58.937,38.163-58.937,69.354C308.606,253.723,322.469,276.854,344.432,276.854Zm102.842-24.26c-39.291,0-62.4,45.034-62.4,76.265,0,28.914,18.477,49.708,40.46,49.708,32.34,0,53.174-32.34,54.3-62.4C480.782,286.082,471.533,252.594,447.274,252.594ZM135.242,213.283c21.963,0,39.291-16.16,39.291-46.243,0-50.837,23.091-101.693-1.148-101.693-48.56,0-76.305,70.482-76.305,91.3C97.079,185.558,113.259,213.283,135.242,213.283ZM41.366,157.852c6.73,1.834,13.016,5.239,12.835-4.272-.3-14.85,1.229-39.09-6.105-39.714-4.372-.343-16.6,25.126-20.109,37.78C24.723,163.675,33.609,155.757,41.366,157.852ZM178.24,41.309c7.355,2.237,14.185,6.025,14.608-2.982.725-14.084,4.131-36.853-4.01-38.022-4.8-.705-20.25,22.325-25.046,33.992C159.3,45.4,169.758,38.629,178.24,41.309Zm130.285,8.342c6.73,1.834,13.157,5.239,12.855-4.292-.6-17.107-1.813-40.822-9.128-41.447C307.9,3.549,298.088,25.351,294.6,38,291.318,50.054,300.788,47.535,308.526,49.651ZM415.9,115.317c6.73,1.854,13.178,5.259,12.835-4.272-.584-17.107-4.634-49.124-11.969-49.708-4.352-.363-10.82,25.086-16.019,38.848C396.356,111.831,408.164,113.222,415.9,115.317Zm84.244,71.691c-4.352-.363-11.263,17.429-14.749,30.1-3.264,12.029,5.662,10.7,13.419,12.815,6.73,1.834,13.158,5.239,12.835-4.272C511.026,208.548,507.48,187.613,500.145,187.008Z" transform="translate(0 0)" fill="#2e2e2e"/>
  </g>
</svg>
