<svg xmlns="http://www.w3.org/2000/svg" width="23.989" height="30" viewBox="0 0 23.989 30">
  <g id="XMLID_122_" transform="translate(-141.949 0)">
    <g id="Group_198" data-name="Group 198" transform="translate(141.949 0)">
      <path id="Path_84" data-name="Path 84" d="M71.74,12.58a17.179,17.179,0,0,0,.2-2.343,7.925,7.925,0,0,0-2.126-5.644c.5-2.814-.083-4.094-.357-4.532-1.007-.358-3.5.923-4.869,1.824-2.225-.651-6.926-.588-8.689.169C52.644-.275,50.924.08,50.924.08a6.864,6.864,0,0,0-.294,4.912,6.6,6.6,0,0,0-1.868,4.886,15.106,15.106,0,0,0,.1,1.748c.922,4.846,4.762,6.937,8.534,7.3a3.4,3.4,0,0,0-1.343,2.193,4.381,4.381,0,0,1-3.264.263c-1.563-.494-2.162-3.589-4.5-3.148-.507.095-.406.429.033.714a4.6,4.6,0,0,1,1.9,2.268A3.837,3.837,0,0,0,54.1,23.846a11.859,11.859,0,0,0,1.785-.124s.02,2.407.02,3.346c0,1.08-1.458,1.384-1.458,1.9,0,.206.483.226.871.226.767,0,2.361-.638,2.361-1.762,0-.892.014-3.891.014-4.417a1.7,1.7,0,0,1,.615-1.513s.075,6.126-.148,6.947c-.262.966-.736.829-.736,1.258,0,.641,1.917.157,2.553-1.247.492-1.1.272-7.1.272-7.1l.513-.011s.006,2.751-.012,4.008c-.018,1.3-.153,2.948.62,3.724.508.511,2.062,1.407,2.062.588,0-.475-1.089-.867-1.089-2.153V21.591c.661,0,.8,1.948.8,1.948l.238,3.618a1.846,1.846,0,0,0,1.426,1.871c.559.2,1.756.249,1.812-.08s-1.441-.817-1.455-1.839c-.008-.622.028-.987.028-3.694s-.363-3.707-1.63-4.5C67.237,18.534,71.052,16.894,71.74,12.58Z" transform="translate(-47.949 0)" fill="#2e2e2e"/>
    </g>
  </g>
</svg>
