<svg xmlns="http://www.w3.org/2000/svg" width="29.994" height="30" viewBox="0 0 29.994 30">
  <g id="instagram" transform="translate(-0.449)">
    <path id="Path_85" data-name="Path 85" d="M30.367,8.82a10.962,10.962,0,0,0-.7-3.639A7.685,7.685,0,0,0,25.28.791a10.99,10.99,0,0,0-3.639-.7C20.035.018,19.525,0,15.452,0S10.869.018,9.269.088a10.965,10.965,0,0,0-3.639.7A7.32,7.32,0,0,0,2.969,2.52,7.386,7.386,0,0,0,1.24,5.175a10.992,10.992,0,0,0-.7,3.639C.467,10.42.449,10.93.449,15s.018,4.583.088,6.183a10.961,10.961,0,0,0,.7,3.639,7.684,7.684,0,0,0,4.389,4.389,10.992,10.992,0,0,0,3.639.7c1.6.071,2.11.088,6.183.088s4.583-.017,6.183-.088a10.959,10.959,0,0,0,3.639-.7,7.673,7.673,0,0,0,4.39-4.389,11,11,0,0,0,.7-3.639c.07-1.6.088-2.11.088-6.183S30.438,10.42,30.367,8.82Zm-2.7,12.249a8.223,8.223,0,0,1-.516,2.784A4.976,4.976,0,0,1,24.3,26.7a8.252,8.252,0,0,1-2.784.516c-1.582.071-2.057.088-6.06.088s-4.483-.017-6.06-.088A8.219,8.219,0,0,1,6.614,26.7a4.616,4.616,0,0,1-1.723-1.119,4.664,4.664,0,0,1-1.119-1.723,8.253,8.253,0,0,1-.516-2.784c-.071-1.582-.088-2.057-.088-6.06s.017-4.483.088-6.06a8.219,8.219,0,0,1,.516-2.784A4.56,4.56,0,0,1,4.9,4.448,4.657,4.657,0,0,1,6.62,3.329,8.258,8.258,0,0,1,9.4,2.813c1.582-.07,2.057-.088,6.06-.088s4.483.018,6.06.088a8.223,8.223,0,0,1,2.784.516A4.613,4.613,0,0,1,26.03,4.448,4.663,4.663,0,0,1,27.15,6.171a8.256,8.256,0,0,1,.516,2.784c.07,1.582.088,2.057.088,6.06S27.736,19.486,27.666,21.069Zm0,0" transform="translate(0 0)" fill="#2e2e2e"/>
    <path id="Path_86" data-name="Path 86" d="M132.656,124.5a7.707,7.707,0,1,0,7.707,7.707A7.709,7.709,0,0,0,132.656,124.5Zm0,12.706a5,5,0,1,1,5-5A5,5,0,0,1,132.656,137.206Zm0,0" transform="translate(-117.204 -117.204)" fill="#2e2e2e"/>
    <path id="Path_87" data-name="Path 87" d="M366.048,90.4a1.8,1.8,0,1,1-1.8-1.8A1.8,1.8,0,0,1,366.048,90.4Zm0,0" transform="translate(-340.785 -83.409)" fill="#2e2e2e"/>
  </g>
</svg>
