<svg xmlns="http://www.w3.org/2000/svg" width="61.641" height="70" viewBox="0 0 61.641 70">
  <path id="css3-plain" d="M8.76,1l5.61,62.981L39.543,71l25.243-7.044L70.4,1H8.76ZM58.746,15.429,56.878,36.41l.006.113-.008.261v0l-1.327,14.67-.146,1.3L39.58,57.132h0l-.012.011-15.8-4.4L22.7,40.613h7.746L31,46.781l8.584,2.327,0,0h0L48.2,46.751l.911-10.043H31.1l-.155-1.7-.352-3.978L30.4,28.9H49.792l.705-7.811H20.968l-.155-1.7-.351-3.979-.185-2.136H58.93l-.185,2.155Z" transform="translate(-8.76 -1)" fill="#2e2e2e"/>
</svg>
