<svg xmlns="http://www.w3.org/2000/svg" width="72.663" height="70" viewBox="0 0 72.663 70">
  <path id="jquery-plain" d="M38.794,64.037c-.483-.109-.953-.26-1.424-.4l-.355-.108q-.691-.212-1.372-.446l-.188-.068c-.407-.143-.81-.294-1.21-.449l-.339-.134c-.439-.173-.875-.354-1.305-.543l-.261-.115c-.37-.168-.737-.337-1.1-.513l-.318-.153c-.286-.139-.57-.288-.852-.433-.189-.1-.381-.194-.569-.3-.345-.185-.684-.377-1.021-.573l-.345-.192c-.449-.264-.892-.537-1.33-.815l-.359-.239c-.318-.2-.635-.414-.947-.629l-.305-.214q-.451-.319-.895-.647l-.4-.3c-.271-.207-.541-.416-.807-.631l-.36-.289c-.339-.279-.674-.559-1.006-.848l-.11-.093c-.358-.314-.71-.637-1.057-.961l-.3-.286c-.257-.245-.51-.492-.759-.745l-.3-.3q-.475-.486-.933-.986l-.045-.049c-.323-.352-.637-.712-.946-1.076l-.247-.294q-.346-.416-.681-.841l-.249-.31c-.268-.348-.53-.694-.786-1.046-7.087-9.668-9.634-23-3.969-33.951l-5.023,6.37C-.1,29.683.7,41.714,5.611,51.539c.117.236.24.467.36.7l.23.443.143.255.256.458q.229.4.47.8l.267.441c.177.286.359.569.545.852l.232.358c.255.382.518.764.789,1.138l.023.029.133.18c.233.323.475.641.719.956l.27.344q.326.41.664.816l.254.3c.3.356.611.71.925,1.057l.019.019.036.04c.307.335.622.663.94.991l.3.3c.247.248.5.493.751.736l.307.292c.338.319.68.632,1.029.937l.016.013.179.153c.307.266.619.53.935.789l.387.309q.386.31.779.609l.416.317q.433.319.874.627l.318.226.087.062c.279.192.564.377.849.562l.367.245c.437.276.881.55,1.329.814l.367.207q.494.285,1,.559c.182.1.369.191.552.285.237.124.473.25.715.371l.165.08.292.141c.374.178.751.354,1.132.523l.239.107q.654.286,1.32.549l.321.127c.411.158.827.314,1.245.461l.156.054c.458.16.922.309,1.389.454l.335.1a13.547,13.547,0,0,0,1.434.4c31.113,5.674,40.151-18.7,40.151-18.7C65.033,64.333,51.56,66.942,38.794,64.037ZM27.587,38.82a16.34,16.34,0,0,0,2.394,2.991c.335.369.686.73,1.044,1.084l.275.271c.348.337.7.668,1.066.99l.043.037.011.01c.4.355.821.695,1.245,1.031l.282.22c.425.326.859.646,1.3.951l.038.029c.2.135.4.261.595.392l.281.186c.317.2.639.4.966.592l.136.079c.282.162.568.322.853.477l.3.158c.2.1.4.209.6.309l.09.041c.409.2.823.4,1.246.58l.275.113c.337.143.678.283,1.021.414l.437.16c.311.115.623.22.938.326l.424.136a10.38,10.38,0,0,0,1.356.392c24.022,3.98,29.568-14.516,29.568-14.516-5,7.2-14.681,10.635-25.012,7.953-.459-.121-.911-.251-1.361-.393L47.6,43.7q-.479-.155-.952-.328l-.429-.16c-.345-.133-.686-.269-1.024-.413l-.276-.117q-.636-.276-1.253-.583c-.212-.1-.421-.212-.629-.32L42.67,41.6c-.267-.145-.533-.3-.8-.449l-.19-.108c-.325-.19-.645-.386-.962-.588l-.29-.194c-.209-.135-.418-.274-.624-.412-.443-.306-.873-.625-1.3-.95l-.292-.23a28.967,28.967,0,0,1-9.811-13.982A21.7,21.7,0,0,1,30.1,7.278l-3.8,5.366c-4.653,6.7-4.4,15.658-.771,22.739a29.381,29.381,0,0,0,2.058,3.437Zm25.32-8.282c.2.073.4.138.6.206l.263.083a7.629,7.629,0,0,0,.856.247c13.264,2.563,16.862-6.807,17.819-8.186-3.152,4.538-8.447,5.627-14.946,4.049-.513-.124-1.078-.31-1.573-.485a19,19,0,0,1-5.141-2.772C44.966,19.268,41.354,10.851,45.148,4L43.1,6.827a14,14,0,0,0-1.109,13.507,19.026,19.026,0,0,0,10.92,10.2Z" transform="translate(-1.714 -3.997)" fill="#2e2e2e"/>
</svg>
