<svg id="nestjs-seeklogo.com" xmlns="http://www.w3.org/2000/svg" width="70.276" height="70" viewBox="0 0 70.276 70">
  <path id="Path_60" data-name="Path 60" d="M41.379,0a4.454,4.454,0,0,0-1.416.254,4,4,0,0,1,1.688,2.359c.018.127.054.218.073.345a1.994,1.994,0,0,1,.036.327c.073,1.6-.417,1.8-.762,2.74A3.878,3.878,0,0,0,41.252,9.6a2.168,2.168,0,0,0,.218.4c-.69-4.592,3.14-5.281,3.848-6.715.054-1.252-.98-2.087-1.8-2.668A4.01,4.01,0,0,0,41.379,0ZM47.15,1.034a2.1,2.1,0,0,0-.036.526c-.018.145-.018.327-.036.472a3.943,3.943,0,0,1-.127.436,4.078,4.078,0,0,1-.145.436c-.073.145-.127.272-.2.417-.054.073-.091.145-.145.218l-.109.163c-.091.127-.181.254-.272.363a2.777,2.777,0,0,1-.327.327V4.41c-.109.091-.218.2-.345.29-.381.29-.817.508-1.216.78a2.706,2.706,0,0,0-.363.272,2.653,2.653,0,0,0-.345.29,2.936,2.936,0,0,0-.327.345,2.705,2.705,0,0,0-.272.363c-.091.127-.181.254-.254.381-.073.145-.127.272-.2.417a3.8,3.8,0,0,0-.145.417c-.054.163-.091.309-.127.454-.018.073-.018.163-.036.236s-.018.145-.036.218c0,.145-.018.309-.018.454a1.97,1.97,0,0,0,.018.327,2.06,2.06,0,0,0,.054.454,3.72,3.72,0,0,0,.091.436c.054.145.091.29.145.436.036.091.091.181.127.254L38.33,9.619c-.708-.2-1.4-.381-2.105-.544L35.082,8.8c-1.089-.218-2.2-.381-3.3-.49-.036,0-.054-.018-.091-.018a32.449,32.449,0,0,0-3.249-.163c-.8,0-1.6.036-2.378.091-1.107.073-2.214.218-3.321.4-.272.036-.544.091-.817.145-.563.109-1.107.236-1.633.363l-.817.218c-.272.109-.526.236-.78.345l-.6.272c-.036.018-.073.018-.091.036-.181.091-.345.163-.508.254a.884.884,0,0,0-.127.054c-.2.091-.4.2-.563.29-.127.054-.254.127-.363.181a1.636,1.636,0,0,1-.163.091c-.163.091-.327.181-.472.272a4.567,4.567,0,0,0-.436.272c-.127.091-.254.163-.363.254-.018.018-.036.018-.054.036a4.192,4.192,0,0,0-.345.254L14.573,12l-.272.218c-.036.018-.073.054-.109.073-.091.073-.181.163-.272.236-.018.036-.054.054-.073.073-.109.109-.218.2-.327.309-.018,0-.018.018-.036.036-.109.091-.218.2-.327.309-.018.018-.018.036-.036.036-.091.091-.181.181-.272.29-.036.036-.091.073-.127.109-.091.109-.2.218-.309.327-.018.036-.054.054-.073.091-.145.145-.272.29-.417.436l-.054.054a10.712,10.712,0,0,1-.926.889,10.316,10.316,0,0,1-1.016.8c-.363.254-.708.472-1.089.69a11.061,11.061,0,0,1-1.143.544c-.381.163-.78.309-1.18.436a20.31,20.31,0,0,1-2.214.526,3.861,3.861,0,0,0-.454.054c-.163.036-.309.073-.454.109l-.436.163a4.64,4.64,0,0,0-.436.2c-.127.091-.272.163-.4.254a2.962,2.962,0,0,0-.363.309,3.108,3.108,0,0,0-.363.327c-.109.127-.218.236-.309.363-.091.145-.2.272-.272.417a3.2,3.2,0,0,0-.254.417c-.073.163-.145.309-.2.472-.054.145-.109.309-.163.472a3.716,3.716,0,0,0-.091.436c0,.018-.018.036-.018.054-.036.163-.036.381-.054.49A2.456,2.456,0,0,0,0,23.376a1.033,1.033,0,0,0,.018.236,1.925,1.925,0,0,0,.073.345,2.425,2.425,0,0,0,.127.327V24.3a3.157,3.157,0,0,0,.2.327,3.686,3.686,0,0,0,.236.327c.091.091.2.2.309.29a2.654,2.654,0,0,0,.345.29,4.223,4.223,0,0,0,1.107.8c.091.054.181.091.29.145.018,0,.036.018.054.018a.163.163,0,0,0,.018.091,3.723,3.723,0,0,0,.091.436,2.446,2.446,0,0,0,.145.436c.054.109.091.218.145.327a.4.4,0,0,0,.054.091c.073.145.145.272.218.4l.272.381c.091.109.2.236.309.345s.218.2.345.309a.063.063,0,0,0,.036.018,3.982,3.982,0,0,0,.327.254,2.888,2.888,0,0,0,.4.236,2.95,2.95,0,0,0,.417.2,2.135,2.135,0,0,0,.363.127c.018.018.036.018.073.036.073.018.163.036.236.054a7.22,7.22,0,0,0,.073,2.232c.163.363.962-.744,1.76-2.015a11.075,11.075,0,0,0,0,3.158c.2.454,1.289-.962,2.232-2.523A20.975,20.975,0,0,1,36.116,49.564a3.555,3.555,0,0,0-3.757-2.777A9.466,9.466,0,0,1,29.4,50.925a11.637,11.637,0,0,0-.181-3.63,11.738,11.738,0,0,1-2.25,4.573,5.069,5.069,0,0,1-4.356-1.96c-.073-.054-.091-.163-.145-.236a3.271,3.271,0,0,1-.145-.381,1.507,1.507,0,0,1-.109-.381,2.805,2.805,0,0,1-.018-.4v-.272a2.906,2.906,0,0,1,.091-.381,3.127,3.127,0,0,1,.127-.381,4.083,4.083,0,0,1,.218-.381c.309-.871.309-1.579-.254-2a2.067,2.067,0,0,0-.345-.181c-.073-.018-.163-.054-.236-.073-.054-.018-.091-.036-.145-.054a2.9,2.9,0,0,0-.381-.091,1.383,1.383,0,0,0-.381-.054,2.959,2.959,0,0,0-.4-.036c-.091,0-.181.018-.272.018a1.417,1.417,0,0,0-.4.054,2.818,2.818,0,0,0-.381.073,3.127,3.127,0,0,0-.381.127c-.127.054-.236.109-.363.163-.109.054-.218.127-.345.181-4.229,2.759-1.706,9.22,1.18,11.089a9.061,9.061,0,0,0-2.5.672l-.036.036a17.1,17.1,0,0,0,2.45,1.216c1.162.381,2.4.726,2.94.871v.018a17.558,17.558,0,0,0,4.573.327A17.263,17.263,0,0,0,42.777,44.719c.036.163.073.309.109.472.054.327.127.671.163,1.016v.018c.036.163.054.327.073.472v.073a4.456,4.456,0,0,1,.036.472c.018.2.036.4.036.6v.29c0,.091.018.2.018.29,0,.109-.018.218-.018.327V49c0,.127-.018.236-.018.363a1.115,1.115,0,0,1-.018.236c0,.127-.018.254-.018.4a.5.5,0,0,0-.018.163c-.018.145-.036.272-.054.417a.5.5,0,0,1-.018.163c-.018.181-.054.345-.073.526v.036c-.036.163-.073.345-.109.508v.054l-.109.49c0,.018-.018.054-.018.073a4.869,4.869,0,0,1-.127.49v.054c-.054.181-.109.345-.145.508a.056.056,0,0,0-.018.036l-.163.544c-.073.181-.127.345-.2.526s-.127.363-.2.526c-.073.181-.145.345-.218.526h-.018c-.073.163-.145.345-.236.508h0a.884.884,0,0,1-.054.127c-.018.018-.018.036-.036.054a17.178,17.178,0,0,1-5.1,6.1c-.145.091-.29.2-.436.309h0c-.036.036-.091.054-.127.091-.127.091-.254.181-.4.272l.054.109h.018L36.1,63.1h.018c.472-.073.944-.163,1.416-.254a3.168,3.168,0,0,0,.4-.091c.091-.018.163-.036.254-.054.127-.018.254-.054.381-.073.109-.036.218-.054.327-.091A34.394,34.394,0,0,0,44.156,60.8,29.065,29.065,0,0,1,32.885,70a29.861,29.861,0,0,0,6.189-1.071,29,29,0,0,0,17.151-13.7A28.969,28.969,0,0,1,51.343,66.9,28.52,28.52,0,0,0,63.829,47.441a28.9,28.9,0,0,1,.526,8.748c13.1-18.276,1.089-37.223-3.938-42.214-.018-.036-.036-.054-.036-.091-.018.018-.018.018-.018.036,0-.018,0-.018-.018-.036,0,.218-.018.436-.036.653-.054.417-.109.817-.181,1.216-.091.4-.2.8-.309,1.2-.127.381-.272.78-.436,1.162-.163.363-.345.744-.544,1.107-.2.345-.417.708-.653,1.034-.236.345-.49.672-.744.98-.272.327-.563.617-.853.907-.181.163-.345.309-.526.454l-.417.363a10.128,10.128,0,0,1-1.016.708c-.345.218-.708.436-1.071.617-.381.181-.762.345-1.143.508-.381.145-.78.272-1.18.381s-.817.2-1.216.272c-.417.073-.835.109-1.234.145-.29.018-.581.036-.871.036-.417,0-.835-.036-1.234-.073a12.214,12.214,0,0,1-2.45-.49H44.21c.4-.036.8-.073,1.2-.145.417-.073.817-.163,1.216-.272s.8-.236,1.18-.381a10.9,10.9,0,0,0,1.143-.508c.381-.181.726-.381,1.089-.6.345-.236.69-.472,1.016-.726a9.923,9.923,0,0,0,.926-.817,9.874,9.874,0,0,0,.853-.889q.408-.49.762-.98c.036-.054.073-.127.109-.181.181-.29.363-.581.526-.871.2-.363.381-.726.544-1.107s.309-.762.436-1.162c.127-.381.218-.78.309-1.18.073-.417.145-.817.181-1.216.036-.417.073-.835.073-1.234,0-.29-.018-.581-.036-.871-.036-.417-.091-.817-.145-1.216-.073-.417-.163-.817-.272-1.216-.127-.381-.254-.78-.4-1.162s-.327-.762-.508-1.125c-.2-.363-.4-.726-.617-1.071-.236-.345-.472-.672-.726-1-.272-.309-.544-.617-.835-.926-.145-.145-.309-.309-.472-.454-.817-.635-1.67-1.234-2.523-1.779a3.379,3.379,0,0,0-.363-.181,7.072,7.072,0,0,0-1.724-.762Z" fill="#2e2e2e"/>
</svg>
