<svg id="next-js-seeklogo.com" xmlns="http://www.w3.org/2000/svg" width="116.031" height="70" viewBox="0 0 116.031 70">
  <path id="Path_58" data-name="Path 58" d="M27.378,18.257H49.263V20H29.384V33.088H48.077v1.739H29.384V49.2H49.491v1.739H27.378Zm23.845,0h2.325l10.3,14.373L74.384,18.257,88.709,0,65.175,34.141,77.3,50.939H74.886L63.852,35.651,52.773,50.939H50.4l12.219-16.8ZM78.168,20V18.257h24.939V20H91.618V50.939H89.612V20ZM0,18.257H2.508L37.086,70,22.8,50.939,2.1,20.729,2.006,50.939H0ZM102.905,48.675a.728.728,0,1,1,.717-.728A.709.709,0,0,1,102.905,48.675Zm1.971-1.915h1.073a.981.981,0,0,0,1.064.972c.7,0,1.093-.42,1.093-1.207V41.542H109.2V46.53a2.02,2.02,0,0,1-2.176,2.233A1.966,1.966,0,0,1,104.877,46.76Zm5.753-.064h1.083c.093.669.747,1.094,1.688,1.094.878,0,1.522-.454,1.522-1.08,0-.537-.41-.86-1.342-1.08l-.908-.22c-1.273-.3-1.854-.914-1.854-1.949,0-1.256,1.025-2.091,2.562-2.091a2.3,2.3,0,0,1,2.537,2.023h-1.064a1.345,1.345,0,0,0-1.488-1.055c-.864,0-1.439.415-1.439,1.05,0,.5.371.791,1.288,1.006l.776.191c1.444.337,2.04.923,2.04,1.984,0,1.348-1.044,2.194-2.713,2.194C111.756,48.763,110.707,47.957,110.629,46.7Z" fill="#2e2e2e"/>
</svg>
