<svg xmlns="http://www.w3.org/2000/svg" width="61.942" height="70" viewBox="0 0 61.942 70">
  <path id="nodejs-original" d="M69.494,19.051,43.966,4.229a5.5,5.5,0,0,0-5.329,0l-25.8,14.823A5.546,5.546,0,0,0,10,23.725V53.331a5.593,5.593,0,0,0,2.868,4.679l6.817,3.872c3.258,1.6,4.409,1.6,5.892,1.6,4.824,0,7.58-2.917,7.58-8.005V26.253c0-.413-.215-1.027-.62-1.027H29.281c-.412,0-1.335.614-1.335,1.026V55.481c0,2.255-2.04,4.5-5.853,2.593l-7.043-4.06a.8.8,0,0,1-.419-.684V23.725c0-.279.321-.559.568-.7l25.717-14.8a.9.9,0,0,1,.833,0l25.4,14.794c.243.146.157.418.157.706V53.331c0,.283.106.557-.134.694L41.655,68.83a.725.725,0,0,1-.73,0l-6.546-3.907a.631.631,0,0,0-.621-.05,17.037,17.037,0,0,1-3.865,1.762c-.42.146-1.04.4.237,1.117L38.7,72.82a5.4,5.4,0,0,0,5.392,0L69.494,58.01a5.216,5.216,0,0,0,2.449-4.679V23.725a5.2,5.2,0,0,0-2.448-4.673ZM49.313,48.64c-6.788,0-8.283-1.873-8.782-5.248-.058-.364-.366-.8-.736-.8H36.477c-.41,0-.74.5-.74.907,0,4.322,2.35,9.559,13.577,9.559,8.127,0,12.787-3.158,12.787-8.747,0-5.541-3.744-7-11.625-8.039C42.508,35.22,41.7,34.688,41.7,32.822c0-1.539.685-3.591,6.584-3.591,5.271,0,7.214,1.131,8.013,4.684a.731.731,0,0,0,.718.574h3.331a.762.762,0,0,0,.544-.229.749.749,0,0,0,.194-.567c-.516-6.118-4.58-8.969-12.8-8.969-7.312,0-11.674,3.088-11.674,8.264,0,5.614,4.34,7.166,11.359,7.86,8.4.823,9.05,2.05,9.05,3.7,0,2.868-2.3,4.091-7.7,4.091Z" transform="translate(-10 -3.541)" fill="#2e2e2e"/>
</svg>
