<svg xmlns="http://www.w3.org/2000/svg" width="78.39" height="70" viewBox="0 0 78.39 70">
  <g id="react-original" transform="translate(-1.4 -8.1)">
    <circle id="Ellipse_4" data-name="Ellipse 4" cx="7.138" cy="7.138" r="7.138" transform="translate(33.457 35.962)" fill="#2e2e2e"/>
    <path id="Path_41" data-name="Path 41" d="M67.706,31.329c-1.377-.5-2.818-1-4.32-1.44.376-1.5.689-3.005.939-4.445C65.64,17.179,64.2,11.356,60.192,9.1a7.778,7.778,0,0,0-4.007-1c-4.383,0-9.955,3.256-15.59,8.7C34.96,11.356,29.387,8.1,25,8.1A7.778,7.778,0,0,0,21,9.1c-4.007,2.317-5.447,8.14-4.132,16.342.25,1.44.564,2.943.939,4.445a43.665,43.665,0,0,0-4.32,1.44C5.658,34.334,1.4,38.467,1.4,43.1s4.32,8.766,12.084,11.771c1.377.5,2.818,1,4.32,1.44-.376,1.5-.689,3.005-.939,4.445C15.55,69.021,16.99,74.844,21,77.1A7.778,7.778,0,0,0,25,78.1c4.445,0,10.018-3.256,15.59-8.7,5.635,5.447,11.208,8.7,15.59,8.7a7.778,7.778,0,0,0,4.007-1c4.007-2.317,5.447-8.14,4.132-16.342-.25-1.44-.564-2.943-.939-4.445a43.663,43.663,0,0,0,4.32-1.44C75.532,51.866,79.79,47.733,79.79,43.1S75.532,34.334,67.706,31.329Zm-9.267-19.1c2.567,1.5,3.444,6.136,2.379,12.71a37.7,37.7,0,0,1-.877,4.132A74.386,74.386,0,0,0,49.611,27.51,90.339,90.339,0,0,0,43.1,19.37c4.633-4.571,9.329-7.7,13.148-7.7a4.23,4.23,0,0,1,2.191.564ZM51.427,49.361c-1.127,2-2.442,4.007-3.819,6.011-2.317.188-4.633.25-7.013.25-2.442,0-4.758-.063-7.013-.25q-2.066-3.005-3.757-6.011c-1.19-2.066-2.317-4.195-3.318-6.261,1-2.066,2.129-4.195,3.318-6.261,1.127-2,2.442-4.007,3.819-6.011,2.317-.188,4.633-.25,7.013-.25,2.442,0,4.758.063,7.013.25q2.066,3.005,3.757,6.011c1.19,2.066,2.317,4.195,3.318,6.261C53.681,45.166,52.616,47.232,51.427,49.361Zm5.2-2.066c.939,2.191,1.691,4.32,2.379,6.449-2.129.5-4.383.877-6.762,1.19.751-1.19,1.565-2.442,2.254-3.757.751-1.315,1.44-2.63,2.129-3.882ZM40.595,64.263c-1.5-1.628-2.943-3.381-4.32-5.2,1.44.063,2.88.125,4.32.125s2.88-.063,4.32-.125C43.538,60.882,42.1,62.635,40.595,64.263ZM28.949,54.871c-2.379-.313-4.633-.689-6.762-1.19.689-2.066,1.44-4.258,2.379-6.449.689,1.252,1.377,2.567,2.129,3.819.751,1.377,1.5,2.567,2.254,3.819ZM24.566,38.905c-.939-2.191-1.691-4.32-2.379-6.449,2.129-.5,4.383-.877,6.762-1.19-.751,1.19-1.565,2.442-2.254,3.757C25.944,36.338,25.255,37.653,24.566,38.905ZM40.595,21.937c1.5,1.628,2.943,3.381,4.32,5.2-1.44-.063-2.88-.125-4.32-.125s-2.88.063-4.32.125c1.377-1.816,2.818-3.569,4.32-5.2Zm13.9,13.148-2.254-3.757c2.379.313,4.633.689,6.762,1.19-.689,2.066-1.44,4.258-2.379,6.449C55.935,37.653,55.246,36.338,54.495,35.086ZM20.371,24.943c-1.064-6.574-.188-11.208,2.379-12.71a4.23,4.23,0,0,1,2.191-.564c3.757,0,8.453,3.068,13.148,7.7a82.3,82.3,0,0,0-6.512,8.14,85.125,85.125,0,0,0-10.331,1.565c-.376-1.44-.626-2.818-.877-4.132ZM4.906,43.1c0-2.943,3.569-6.073,9.83-8.39A37.54,37.54,0,0,1,18.743,33.4,91.261,91.261,0,0,0,22.5,43.163a78.9,78.9,0,0,0-3.757,9.7C10.1,50.363,4.906,46.606,4.906,43.1ZM22.751,73.968c-2.567-1.5-3.444-6.136-2.379-12.71a37.7,37.7,0,0,1,.877-4.132A74.386,74.386,0,0,0,31.579,58.69a90.339,90.339,0,0,0,6.512,8.14c-4.633,4.571-9.329,7.7-13.148,7.7a4.23,4.23,0,0,1-2.191-.564Zm38.068-12.71c1.064,6.574.188,11.208-2.379,12.71a4.23,4.23,0,0,1-2.191.564c-3.757,0-8.453-3.068-13.148-7.7a82.306,82.306,0,0,0,6.512-8.14,85.124,85.124,0,0,0,10.331-1.565C60.318,58.565,60.568,59.943,60.819,61.257Zm5.635-9.767A37.539,37.539,0,0,1,62.447,52.8a91.26,91.26,0,0,0-3.757-9.767,78.9,78.9,0,0,0,3.757-9.7c8.64,2.5,13.837,6.261,13.837,9.767C76.284,46.043,72.652,49.173,66.454,51.49Z" fill="#2e2e2e"/>
  </g>
</svg>
