<svg id="redux-original" xmlns="http://www.w3.org/2000/svg" width="70" height="70" viewBox="0 0 70 70">
  <path id="Path_42" data-name="Path 42" d="M0,0H70V70H0Z" fill="none"/>
  <path id="Path_43" data-name="Path 43" d="M48.5,49.653A34.227,34.227,0,0,1,23.561,68.712a21.727,21.727,0,0,1-5.343.623c-6.563,0-12.578-2.734-15.5-7.213C-1.2,56.156-2.536,43.506,10.392,34.149c.262,1.427.8,3.385,1.154,4.545A20.912,20.912,0,0,0,5.47,45.82a13.087,13.087,0,0,0,.711,13.809,12.468,12.468,0,0,0,9.095,5.277,24.062,24.062,0,0,0,14.52-2.734c6.951-3.653,11.583-8.017,14.612-13.984a5.1,5.1,0,0,1-1.427-3.281,4.988,4.988,0,0,1,4.8-5.157h.186a5,5,0,0,1,.547,9.98ZM64.182,38.606c6.677,7.569,6.858,16.477,4.277,21.645-2.406,4.72-8.75,9.445-17.281,9.445a27.606,27.606,0,0,1-11.484-2.762c1.252-.891,3.03-2.319,4.009-3.21a22.717,22.717,0,0,0,8.75,1.87,13.072,13.072,0,0,0,12.2-7.3,12.348,12.348,0,0,0,.18-10.511,23.849,23.849,0,0,0-9.445-11.4,33.906,33.906,0,0,0-19-5.791h-1.6a5.037,5.037,0,0,1-4.375,3.03h-.17a4.993,4.993,0,0,1-.164-9.98h.18a4.922,4.922,0,0,1,4.375,2.674h1.427c11.375,0,21.361,4.364,28.12,12.294ZM18.929,51.185a4,4,0,0,1,.623-2.587C14.565,39.957,11.9,29,15.992,17.6,18.929,9.031,26.322,3.24,34.34,3.24c8.553,0,17.462,7.487,18.528,21.913-1.334-.443-3.281-1.094-4.452-1.334-.29-4.72-4.277-16.477-13.721-16.3-3.385.093-8.373,1.7-10.938,4.988a23.893,23.893,0,0,0-5.272,13.809,32.6,32.6,0,0,0,4.632,19.775A1.5,1.5,0,0,1,23.741,46h.175a4.988,4.988,0,1,1,.18,9.975h-.18a5.009,5.009,0,0,1-4.987-4.807Z" transform="translate(-0.001 -1.468)" fill="#2e2e2e"/>
</svg>
