<svg xmlns="http://www.w3.org/2000/svg" width="70" height="70" viewBox="0 0 70 70">
  <path id="plain" d="M2,36.41v35H72v-70H2Zm56.409-2.8a8.714,8.714,0,0,1,4.379,2.52,11.525,11.525,0,0,1,1.68,2.24c0,.09-3.024,2.134-4.866,3.276-.067.045-.336-.246-.633-.689a3.97,3.97,0,0,0-3.287-1.977c-2.122-.146-3.489.969-3.478,2.8a2.565,2.565,0,0,0,.3,1.31c.465.969,1.333,1.546,4.054,2.722,5.012,2.156,7.157,3.578,8.49,5.6a10.163,10.163,0,0,1,.812,8.534c-1.12,2.912-3.864,4.889-7.745,5.544a21.459,21.459,0,0,1-5.331-.056,12.88,12.88,0,0,1-7.106-3.668,12.306,12.306,0,0,1-1.82-2.7,5.23,5.23,0,0,1,.644-.409L47.08,57.18l2.01-1.165.42.622a9.4,9.4,0,0,0,2.654,2.542c2.24,1.176,5.3,1.014,6.81-.347a3.041,3.041,0,0,0,.386-3.875c-.56-.778-1.68-1.434-4.81-2.8-3.612-1.557-5.169-2.52-6.591-4.054a9.229,9.229,0,0,1-1.921-3.5,14,14,0,0,1-.123-4.48,8.514,8.514,0,0,1,7.179-6.647,17.729,17.729,0,0,1,5.314.146Zm-16.43,2.934v2.867H32.89V65.3H26.444V39.406H17.333v-2.8a27.546,27.546,0,0,1,.078-2.89c.034-.045,5.6-.067,12.32-.056H41.945Z" transform="translate(-2 -1.41)" fill="#2e2e2e"/>
</svg>
