<svg xmlns="http://www.w3.org/2000/svg" width="31.697" height="20" viewBox="0 0 31.697 20">
  <g id="black" transform="translate(-12.115 -18.661)">
    <g id="behance" transform="translate(12.115 18.661)">
      <path id="Path_395" data-name="Path 395" d="M20.789,1.726V3.773h8.188V1.726ZM.115.661l9.448.1s5.188-.274,5.9,3.846S12.857,9.7,12.857,9.7s4.106.933,3.535,5.744-6.179,4.861-6.179,4.861H.115Zm4.3,7.82,3.91.024a7.121,7.121,0,0,0,1.449-.15,2.447,2.447,0,0,0,.994-.491,2.309,2.309,0,0,0,.5-.834,3.373,3.373,0,0,0,.168-.985,2.149,2.149,0,0,0-.168-.855,1.834,1.834,0,0,0-.5-.68,2.407,2.407,0,0,0-.856-.449A4.168,4.168,0,0,0,8.675,3.9L4.414,3.876Zm0,8.263,4.272.027a7.694,7.694,0,0,0,1.583-.165,2.661,2.661,0,0,0,1.086-.543,2.556,2.556,0,0,0,.551-.921,3.765,3.765,0,0,0,.184-1.088,2.4,2.4,0,0,0-.184-.945,2.024,2.024,0,0,0-.551-.752,2.619,2.619,0,0,0-.935-.5,4.5,4.5,0,0,0-1.35-.179l-4.655-.027Zm17.278-2.617c.006.114,0,2.937,2.312,3.585a3.274,3.274,0,0,0,3.974-1.736h3.516c-.091.424-1.52,6.189-9.3,4.31C17.423,19.132,17.669,13.48,17.669,13a7.658,7.658,0,0,1,1.943-5,6.934,6.934,0,0,1,5.217-2.187c.555,0,3.407,0,5.145,1.93,2.249,2.5,1.8,6.5,1.8,6.5Zm6.159-2.473a3.9,3.9,0,0,0-.266-1.223,2.981,2.981,0,0,0-.62-.969,2.838,2.838,0,0,0-.947-.644,3.129,3.129,0,0,0-1.234-.234,2.637,2.637,0,0,0-1.138.247,3,3,0,0,0-.92.67,3.37,3.37,0,0,0-.634.976,3.533,3.533,0,0,0-.279,1.177Z" transform="translate(-0.115 -0.661)" fill="#bbb" fill-rule="evenodd"/>
    </g>
  </g>
</svg>
