<svg xmlns="http://www.w3.org/2000/svg" width="990.473" height="652.743" viewBox="0 0 990.473 652.743">
  <g id="landscape" data-name="Group 273" transform="translate(-700 -174.797)">
    <circle id="sunshine" data-name="Ellipse 12" cx="83.337" cy="83.337" r="83.337" transform="translate(906.538 174.797)" fill="#ffaf19"/>
    <g id="mountains" data-name="Group 254" transform="translate(541 305.994)">
      <g id="mountain1" data-name="Group 252">
        <path id="Path_315" data-name="Path 315" d="M821.565,520.817H159.71L241.6,432.051,392.891,254.592l10.2-11.959L539.942,82.1l94.7,149.981,2.479,3.925L757.591,426.789Z" transform="translate(0.153 0)" fill="#f2f2f2"/>
        <path id="Path_318" data-name="Path 318" d="M591.522,232.085l-14.45,25.388-32.4-33.943-35.5,33.943L489.108,218.9,456.7,257.473l-9.261-24.683-21.6,24.683L387.254,232.79l-27.284,9.844L496.825,82.1Z" transform="translate(43.27 0)" opacity="0.1"/>
      </g>
      <g id="mountain2" data-name="Group 253">
        <path id="Path_316" data-name="Path 316" d="M1057.715,493.54,894.236,300.647,814.094,206.09l-77.457,97.119-70.651,88.614L585.18,493.139" transform="translate(91.759 26.695)" fill="#f2f2f2"/>
        <path id="Path_319" data-name="Path 319" d="M867.4,300.647l-40.018,48.967-32.408-38.581-49.384,40.124L709.8,303.209l77.458-97.119Z" transform="translate(118.591 26.695)" opacity="0.1"/>
      </g>
    </g>
    <g id="plants" data-name="Group 272">
      <g id="plant1" data-name="Group 256" transform="translate(390 219)">
        <path id="Path_338" data-name="Path 338" d="M777.429,633.081c0,38.029,23.857,68.8,53.341,68.8" transform="translate(-56 -106.019)" fill="#3f3d56"/>
        <path id="Path_339" data-name="Path 339" d="M830.769,701.882c0-38.456,26.623-69.575,59.525-69.575" transform="translate(-56 -106.019)" fill="#ffaf19"/>
        <path id="Path_340" data-name="Path 340" d="M796.755,636.528c0,36.124,15.213,65.354,34.014,65.354" transform="translate(-56 -106.019)" fill="#ffaf19"/>
        <path id="Path_341" data-name="Path 341" d="M830.769,701.882c0-49.139,30.773-88.9,68.8-88.9" transform="translate(-56 -106.019)" fill="#3f3d56"/>
        <path id="Path_342" data-name="Path 342" d="M819.548,702.367s7.565-.233,9.844-1.856,11.636-3.562,12.2-.958,11.368,12.949,2.828,13.018-19.844-1.33-22.119-2.716S819.548,702.367,819.548,702.367Z" transform="translate(-56 -106.019)" fill="#a8a8a8"/>
        <path id="Path_343" data-name="Path 343" d="M844.574,711.664c-8.54.069-19.844-1.33-22.119-2.716-1.733-1.056-2.423-4.843-2.654-6.59l-.253.01s.479,6.1,2.755,7.487,13.579,2.785,22.119,2.716c2.465-.02,3.317-.9,3.27-2.2C847.349,711.159,846.409,711.649,844.574,711.664Z" transform="translate(-56 -106.019)" opacity="0.2"/>
      </g>
      <g id="plant2" data-name="Group 257" transform="translate(809 219)">
        <path id="Path_338-2" data-name="Path 338" d="M777.429,633.081c0,38.029,23.857,68.8,53.341,68.8" transform="translate(-56 -106.019)" fill="#3f3d56"/>
        <path id="Path_339-2" data-name="Path 339" d="M830.769,701.882c0-38.456,26.623-69.575,59.525-69.575" transform="translate(-56 -106.019)" fill="#ffaf19"/>
        <path id="Path_340-2" data-name="Path 340" d="M796.755,636.528c0,36.124,15.213,65.354,34.014,65.354" transform="translate(-56 -106.019)" fill="#ffaf19"/>
        <path id="Path_341-2" data-name="Path 341" d="M830.769,701.882c0-49.139,30.773-88.9,68.8-88.9" transform="translate(-56 -106.019)" fill="#3f3d56"/>
        <path id="Path_342-2" data-name="Path 342" d="M819.548,702.367s7.565-.233,9.844-1.856,11.636-3.562,12.2-.958,11.368,12.949,2.828,13.018-19.844-1.33-22.119-2.716S819.548,702.367,819.548,702.367Z" transform="translate(-56 -106.019)" fill="#a8a8a8"/>
        <path id="Path_343-2" data-name="Path 343" d="M844.574,711.664c-8.54.069-19.844-1.33-22.119-2.716-1.733-1.056-2.423-4.843-2.654-6.59l-.253.01s.479,6.1,2.755,7.487,13.579,2.785,22.119,2.716c2.465-.02,3.317-.9,3.27-2.2C847.349,711.159,846.409,711.649,844.574,711.664Z" transform="translate(-56 -106.019)" opacity="0.2"/>
      </g>
      <g id="tree" data-name="Group 259" transform="translate(409 502)">
        <path id="Path_366" data-name="Path 366" d="M649.063,343.731c.027,55.231-32.8,74.529-73.3,74.549q-1.411,0-2.809-.03-2.816-.059-5.572-.254c-36.554-2.57-64.964-22.829-64.989-74.194-.026-53.156,67.879-120.272,72.972-125.234,0,0,0,0,.009,0,.193-.189.292-.284.292-.284S649.037,288.5,649.063,343.731Z" transform="translate(-123.825 -95)" fill="#ffaf19"/>
        <path id="Path_367" data-name="Path 367" d="M652.437,409.833l26.8-37.488-26.869,41.6-.07,4.3q-2.816-.059-5.572-.254l2.863-55.255-.023-.428.049-.081.272-5.221-26.977-41.679L649.97,353.1l.068,1.107,2.163-41.747-23.1-43.072,23.377,35.735,2.231-86.555.009-.288v.284l-.345,68.257,22.955-27.071L654.279,292.7l-.589,37.381L675.128,294.2l-21.521,41.379-.327,20.786,31.113-49.949-31.231,57.2Z" transform="translate(-203.17 -95)" fill="#3f3d56"/>
      </g>
    </g>
    <g id="cloud1" data-name="Group 270" transform="translate(666.04 344)">
      <rect id="Rectangle_296" data-name="Rectangle 296" width="231.881" height="25.04" rx="9.96" transform="translate(641.18 24.91)" fill="#f2f2f2"/>
      <rect id="Rectangle_297" data-name="Rectangle 297" width="231.881" height="25.04" rx="9.96" transform="translate(693.119 46.244)" fill="#f2f2f2"/>
      <rect id="Rectangle_298" data-name="Rectangle 298" width="231.881" height="25.04" rx="9.96" transform="translate(605 64.796)" fill="#f2f2f2"/>
    </g>
    <g id="cloud2" data-name="Group 271" transform="translate(309.04 266)">
      <rect id="Rectangle_296-2" data-name="Rectangle 296" width="231.881" height="25.04" rx="9.96" transform="translate(641.18 24.91)" fill="#f2f2f2"/>
      <rect id="Rectangle_297-2" data-name="Rectangle 297" width="231.881" height="25.04" rx="9.96" transform="translate(693.119 46.244)" fill="#f2f2f2"/>
      <rect id="Rectangle_298-2" data-name="Rectangle 298" width="231.881" height="25.04" rx="9.96" transform="translate(605 64.796)" fill="#f2f2f2"/>
    </g>
  </g>
</svg>
