<svg xmlns="http://www.w3.org/2000/svg" width="70.847" height="57.162" viewBox="0 0 70.847 57.162">
  <g id="Group_240" data-name="Group 240" transform="translate(-214.08 -263.192)">
    <g id="Group_237" data-name="Group 237" transform="translate(210.793 251.73)">
      <path id="path4209" d="M87.329,47.569H138.62l-25.646,57.162Z" transform="translate(-64.486 -36.107)" fill="#222" fill-rule="evenodd"/>
    </g>
    <g id="Group_238" data-name="Group 238" transform="translate(210.793 251.73)">
      <path id="path4207" d="M44.587,47.569H95.878L70.232,104.731Z" transform="translate(-38.841 -36.107)" fill="rgba(255,175,25,0.8)" fill-rule="evenodd"/>
    </g>
    <rect id="rect4154" width="11" height="6.399" rx="3.199" transform="translate(218.77 270.18)" fill="#222"/>
    <rect id="rect4158" width="15" height="6.399" rx="3.199" transform="translate(233.769 270.18)" fill="#222"/>
    <rect id="rect4160" width="11" height="6.399" rx="3.199" transform="translate(214.08 279.108)" fill="#222"/>
    <rect id="rect4166" width="15" height="6.399" rx="3.199" transform="translate(229.08 279.108)" fill="#222"/>
    <rect id="rect4168" width="15" height="6.399" rx="3.199" transform="translate(219.77 288.03)" fill="#222"/>
    <rect id="rect4174" width="11" height="6.399" rx="3.199" transform="translate(238.757 288.03)" fill="#222"/>
    <rect id="rect4176" width="8" height="6.399" rx="3.199" transform="translate(248.108 279.108)" fill="#222"/>
    <rect id="rect4178" width="11" height="6.399" rx="3.199" transform="translate(215.74 296.96)" fill="#222"/>
    <rect id="rect4184" width="15" height="6.399" rx="3.199" transform="translate(230.769 296.96)" fill="#222"/>
    <rect id="rect4186" width="15" height="6.399" rx="3.199" transform="translate(224.029 306.388)" fill="#222"/>
  </g>
</svg>
