<svg xmlns="http://www.w3.org/2000/svg" width="139.335" height="40.106" viewBox="0 0 139.335 40.106">
  <g id="Group_285" data-name="Group 285" transform="translate(-236.639 -55.679)">
    <g id="Group_284" data-name="Group 284">
      <g id="Group_277" data-name="Group 277" transform="translate(250.793 35.728)">
        <rect id="rect4154" width="19.391" height="6.399" rx="3.199" transform="translate(-7.427 19.951)" fill="#ffaf19"/>
      </g>
      <g id="Group_276" data-name="Group 276" transform="translate(250.793 35.728)">
        <rect id="rect4158" width="19.952" height="6.399" rx="3.199" transform="translate(15.976 19.951)" fill="#222"/>
      </g>
      <g id="Group_278" data-name="Group 278" transform="translate(250.793 35.728)">
        <rect id="rect4160" width="21.353" height="6.399" rx="3.199" transform="translate(-14.014 28.378)" fill="#222"/>
      </g>
      <g id="Group_283" data-name="Group 283" transform="translate(250.793 35.728)">
        <rect id="rect4166" width="19.952" height="6.399" rx="3.199" transform="translate(11.491 28.378)" fill="#222"/>
      </g>
      <g id="Group_279" data-name="Group 279" transform="translate(250.793 35.728)">
        <rect id="rect4168" width="24.577" height="6.399" rx="3.199" transform="translate(-4.625 36.805)" fill="#222"/>
      </g>
      <g id="Group_282" data-name="Group 282" transform="translate(250.793 35.728)">
        <rect id="rect4174" width="7.981" height="6.399" rx="3.199" transform="translate(23.964 36.805)" fill="#222"/>
      </g>
      <g id="Group_275" data-name="Group 275" transform="translate(250.793 35.728)">
        <rect id="rect4176" width="7.981" height="6.399" rx="3.199" transform="translate(35.315 28.378)" fill="#ffaf19"/>
      </g>
      <g id="Group_280" data-name="Group 280" transform="translate(250.793 35.728)">
        <rect id="rect4178" width="25.978" height="6.399" rx="3.199" transform="translate(-14.154 45.231)" fill="#222"/>
      </g>
      <g id="Group_274" data-name="Group 274" transform="translate(250.793 35.728)">
        <rect id="rect4184" width="19.952" height="6.399" rx="3.199" transform="translate(15.976 45.231)" fill="#ffaf19"/>
      </g>
      <g id="Group_281" data-name="Group 281" transform="translate(250.793 35.728)">
        <rect id="rect4186" width="28.08" height="6.399" rx="3.199" transform="translate(-4.765 53.658)" fill="#222"/>
      </g>
    </g>
    <path id="Path_488" data-name="Path 488" d="M0-5.832,2-6.84v-5.634H4.806v4.23L7-9.36l.882,1.818L4.806-5.976v3.564h5.526V0H2V-4.572L.882-4.014ZM20.034-.324A14.949,14.949,0,0,1,18.27.045,14.5,14.5,0,0,1,16,.216a5.385,5.385,0,0,1-2.007-.324,3.047,3.047,0,0,1-1.269-.909,3.548,3.548,0,0,1-.666-1.4,7.5,7.5,0,0,1-.2-1.782V-9.468h2.682v4.95a3.836,3.836,0,0,0,.342,1.872,1.361,1.361,0,0,0,1.278.576q.288,0,.612-.027t.576-.063V-9.468h2.682Zm5.2-5.744q.4-.429.818-.895t.818-.922q.4-.456.746-.868t.6-.716H31.41q-.954,1.1-1.863,2.093T27.558-5.319a12.344,12.344,0,0,1,1.116,1.163q.576.676,1.116,1.4t.99,1.442Q31.23-.6,31.536,0H28.452q-.287-.469-.656-1.038t-.782-1.137q-.413-.568-.871-1.092a7.289,7.289,0,0,0-.907-.884V0H22.554V-13.536l2.682-.432Zm11.178,4.2q.4,0,.756-.018a5.26,5.26,0,0,0,.576-.054V-3.978q-.162-.036-.486-.072a5.413,5.413,0,0,0-.594-.036,5.316,5.316,0,0,0-.711.045,1.857,1.857,0,0,0-.585.171,1,1,0,0,0-.4.342.953.953,0,0,0-.144.54.92.92,0,0,0,.423.873A2.338,2.338,0,0,0,36.414-1.872ZM36.2-9.72a6.211,6.211,0,0,1,1.98.27,3.075,3.075,0,0,1,1.269.774,2.845,2.845,0,0,1,.675,1.224,6.037,6.037,0,0,1,.2,1.6V-.27q-.576.126-1.6.3A15.394,15.394,0,0,1,36.234.2,7.875,7.875,0,0,1,34.569.036,3.614,3.614,0,0,1,33.282-.5a2.43,2.43,0,0,1-.828-.963,3.324,3.324,0,0,1-.288-1.458,2.763,2.763,0,0,1,.333-1.4,2.563,2.563,0,0,1,.891-.918,4.026,4.026,0,0,1,1.278-.5,7.17,7.17,0,0,1,1.494-.153,8.482,8.482,0,0,1,.927.045,4.126,4.126,0,0,1,.657.117v-.252a1.484,1.484,0,0,0-.414-1.1,2,2,0,0,0-1.44-.414,9.169,9.169,0,0,0-1.35.1,5.791,5.791,0,0,0-1.152.279l-.342-2.16q.234-.072.585-.153t.765-.144q.414-.063.873-.108T36.2-9.72Zm9.27,7.794a2.677,2.677,0,0,0,1.044-.144.556.556,0,0,0,.306-.558.683.683,0,0,0-.4-.567,7.526,7.526,0,0,0-1.206-.549,12.359,12.359,0,0,1-1.143-.486,3.36,3.36,0,0,1-.873-.6,2.439,2.439,0,0,1-.558-.837,3.1,3.1,0,0,1-.2-1.17,2.53,2.53,0,0,1,.99-2.106,4.306,4.306,0,0,1,2.718-.774,8.716,8.716,0,0,1,1.656.153,7.706,7.706,0,0,1,1.26.333L48.6-7.146a9.848,9.848,0,0,0-1.017-.288A5.527,5.527,0,0,0,46.35-7.56q-1.26,0-1.26.7a.725.725,0,0,0,.054.288.615.615,0,0,0,.216.243,3.072,3.072,0,0,0,.441.253q.279.136.711.3a10.955,10.955,0,0,1,1.458.644,3.477,3.477,0,0,1,.909.686,2.118,2.118,0,0,1,.468.817,3.627,3.627,0,0,1,.135,1.042A2.4,2.4,0,0,1,48.429-.466,5.251,5.251,0,0,1,45.45.252a8.562,8.562,0,0,1-2.1-.216,8.5,8.5,0,0,1-1.161-.36l.45-2.178a8.8,8.8,0,0,0,1.4.423A6.827,6.827,0,0,0,45.468-1.926ZM58.446-7.668l-.875.972q-.55.612-1.182,1.35T55.118-3.8q-.64.81-1.163,1.566h4.581V0h-7.83V-1.584q.378-.648.909-1.4t1.116-1.5q.585-.756,1.161-1.467t1.062-1.287H50.922V-9.468h7.524ZM9.823,6.858q.216.738.476,1.665t.557,1.917q.3.99.6,1.98t.593,1.836q.235-.918.479-2t.461-2.232q.217-1.152.425-2.295t.389-2.2h2.917q-.634,3.132-1.458,6.354T13.481,18H10.913q-.629-1.728-1.222-3.627T8.523,10.566q-.577,1.908-1.153,3.807T6.162,18H3.6q-.958-2.9-1.781-6.12T.36,5.526H3.4q.181,1.062.4,2.2t.452,2.295q.235,1.152.479,2.232t.5,2q.325-.882.631-1.872t.6-1.98q.289-.99.532-1.908t.442-1.638Zm11.615,9.27q.4,0,.756-.018a5.26,5.26,0,0,0,.576-.054V14.022q-.162-.036-.486-.072a5.412,5.412,0,0,0-.594-.036,5.316,5.316,0,0,0-.711.045,1.857,1.857,0,0,0-.585.171,1,1,0,0,0-.4.342.953.953,0,0,0-.144.54.92.92,0,0,0,.423.873A2.338,2.338,0,0,0,21.438,16.128ZM21.222,8.28a6.211,6.211,0,0,1,1.98.27,3.075,3.075,0,0,1,1.269.774,2.845,2.845,0,0,1,.675,1.224,6.038,6.038,0,0,1,.2,1.6v5.58q-.576.126-1.6.3a15.394,15.394,0,0,1-2.484.171,7.875,7.875,0,0,1-1.665-.162,3.614,3.614,0,0,1-1.287-.531,2.43,2.43,0,0,1-.828-.963,3.324,3.324,0,0,1-.288-1.458,2.763,2.763,0,0,1,.333-1.4,2.563,2.563,0,0,1,.891-.918,4.026,4.026,0,0,1,1.278-.495,7.169,7.169,0,0,1,1.494-.153,8.482,8.482,0,0,1,.927.045,4.126,4.126,0,0,1,.657.117v-.252a1.484,1.484,0,0,0-.414-1.1,2,2,0,0,0-1.44-.414,9.169,9.169,0,0,0-1.35.1,5.791,5.791,0,0,0-1.152.279l-.342-2.16q.234-.072.585-.153t.765-.144q.414-.063.873-.108T21.222,8.28ZM33.48,10.908q-.36-.09-.846-.189a5.228,5.228,0,0,0-1.044-.1,4.844,4.844,0,0,0-.6.045,3.549,3.549,0,0,0-.531.1V18H27.774V9.036a16.111,16.111,0,0,1,1.7-.477,9.8,9.8,0,0,1,2.187-.225q.216,0,.522.027t.612.072q.306.045.612.108a2.88,2.88,0,0,1,.522.153Zm1.26,2.358a5.581,5.581,0,0,1,.333-1.935,4.529,4.529,0,0,1,2.493-2.655,5.048,5.048,0,0,1,2.052-.4A6.623,6.623,0,0,1,41,8.415a6.747,6.747,0,0,1,1.224.387l-.558,2.142a6.76,6.76,0,0,0-.828-.252,4.327,4.327,0,0,0-1.008-.108,2.125,2.125,0,0,0-1.773.738,3.038,3.038,0,0,0-.585,1.944,3.147,3.147,0,0,0,.549,1.98,2.3,2.3,0,0,0,1.917.7,6.577,6.577,0,0,0,1.044-.09,4.438,4.438,0,0,0,1.026-.288l.378,2.2a6.292,6.292,0,0,1-1.17.342,7.718,7.718,0,0,1-1.548.144,5.827,5.827,0,0,1-2.232-.387A4.2,4.2,0,0,1,35.9,16.812a4.108,4.108,0,0,1-.882-1.575A6.688,6.688,0,0,1,34.74,13.266ZM44.19,18V4.464l2.682-.432V8.568a5.559,5.559,0,0,1,.693-.171,4.352,4.352,0,0,1,.819-.081,5.062,5.062,0,0,1,1.917.315,2.976,2.976,0,0,1,1.224.891,3.445,3.445,0,0,1,.648,1.368,7.61,7.61,0,0,1,.189,1.764V18H49.68V12.978a3.7,3.7,0,0,0-.333-1.836,1.331,1.331,0,0,0-1.233-.54,3.44,3.44,0,0,0-.675.063q-.315.063-.567.135V18Zm19.458-4.752a6.157,6.157,0,0,1-.324,2.043,4.439,4.439,0,0,1-.936,1.584,4.212,4.212,0,0,1-1.467,1.017,5.236,5.236,0,0,1-3.816,0,4.212,4.212,0,0,1-1.467-1.017,4.657,4.657,0,0,1-.954-1.584,5.862,5.862,0,0,1-.342-2.043,5.654,5.654,0,0,1,.351-2.034,4.613,4.613,0,0,1,.972-1.566A4.365,4.365,0,0,1,57.141,8.64a5.047,5.047,0,0,1,3.744,0,4.271,4.271,0,0,1,1.467,1.008,4.575,4.575,0,0,1,.954,1.566A5.787,5.787,0,0,1,63.648,13.248Zm-2.736,0a3.372,3.372,0,0,0-.495-1.953A1.619,1.619,0,0,0,59,10.584a1.641,1.641,0,0,0-1.422.711,3.326,3.326,0,0,0-.5,1.953,3.413,3.413,0,0,0,.5,1.971A1.629,1.629,0,0,0,59,15.948a1.607,1.607,0,0,0,1.413-.729A3.46,3.46,0,0,0,60.912,13.248Zm3.366-2.322L66.2,9.972V4.464l2.682-.432V8.64l1.278-.648.81,1.656-2.088,1.044v3.654a3.533,3.533,0,0,0,.054.648,1.118,1.118,0,0,0,.207.486,1.1,1.1,0,0,0,.441.324,2.417,2.417,0,0,0,.774.162l-.378,2.214a6.7,6.7,0,0,1-1.9-.252,2.813,2.813,0,0,1-1.152-.657,2.18,2.18,0,0,1-.576-1.026,5.536,5.536,0,0,1-.153-1.359V12.024l-1.116.558Z" transform="translate(305 74)" fill="#222"/>
  </g>
</svg>
