<svg xmlns="http://www.w3.org/2000/svg" width="140.361" height="40.106" viewBox="0 0 140.361 40.106">
  <g id="Group_285" data-name="Group 285" transform="translate(-236.639 -55.679)">
    <g id="Group_284" data-name="Group 284">
      <g id="Group_277" data-name="Group 277" transform="translate(250.793 35.728)">
        <rect id="rect4154" width="19.391" height="6.399" rx="3.199" transform="translate(-7.427 19.951)" fill="#ffaf19"/>
      </g>
      <g id="Group_276" data-name="Group 276" transform="translate(250.793 35.728)">
        <rect id="rect4158" width="19.952" height="6.399" rx="3.199" transform="translate(15.976 19.951)" fill="#222"/>
      </g>
      <g id="Group_278" data-name="Group 278" transform="translate(250.793 35.728)">
        <rect id="rect4160" width="21.353" height="6.399" rx="3.199" transform="translate(-14.014 28.378)" fill="#222"/>
      </g>
      <g id="Group_283" data-name="Group 283" transform="translate(250.793 35.728)">
        <rect id="rect4166" width="19.952" height="6.399" rx="3.199" transform="translate(11.491 28.378)" fill="#222"/>
      </g>
      <g id="Group_279" data-name="Group 279" transform="translate(250.793 35.728)">
        <rect id="rect4168" width="24.577" height="6.399" rx="3.199" transform="translate(-4.625 36.805)" fill="#222"/>
      </g>
      <g id="Group_282" data-name="Group 282" transform="translate(250.793 35.728)">
        <rect id="rect4174" width="7.981" height="6.399" rx="3.199" transform="translate(23.964 36.805)" fill="#222"/>
      </g>
      <g id="Group_275" data-name="Group 275" transform="translate(250.793 35.728)">
        <rect id="rect4176" width="7.981" height="6.399" rx="3.199" transform="translate(35.315 28.378)" fill="#ffaf19"/>
      </g>
      <g id="Group_280" data-name="Group 280" transform="translate(250.793 35.728)">
        <rect id="rect4178" width="25.978" height="6.399" rx="3.199" transform="translate(-14.154 45.231)" fill="#222"/>
      </g>
      <g id="Group_274" data-name="Group 274" transform="translate(250.793 35.728)">
        <rect id="rect4184" width="19.952" height="6.399" rx="3.199" transform="translate(15.976 45.231)" fill="#ffaf19"/>
      </g>
      <g id="Group_281" data-name="Group 281" transform="translate(250.793 35.728)">
        <rect id="rect4186" width="28.08" height="6.399" rx="3.199" transform="translate(-4.765 53.658)" fill="#222"/>
      </g>
    </g>
    <text id="Łukasz_Warchoł" data-name="Łukasz
Warchoł" transform="translate(305 74)" fill="#222" font-size="18" font-family="Ubuntu-Bold, Ubuntu" font-weight="700"><tspan x="0" y="0">Łukasz</tspan><tspan x="0" y="18">Warchoł</tspan></text>
  </g>
</svg>
