<svg xmlns="http://www.w3.org/2000/svg" width="70" height="70" viewBox="0 0 70 70">
  <path id="bootstrap-plain" d="M42.833,37.618c-1.307-.43-3.189-.338-5.645-.338H27.32V50.16H37.873a18.761,18.761,0,0,0,3.474-.3,8.331,8.331,0,0,0,2.948-1.11,5.686,5.686,0,0,0,1.948-2.173,6.775,6.775,0,0,0,.763-3.265,5.958,5.958,0,0,0-1.106-3.6A5.6,5.6,0,0,0,42.833,37.618Zm-1.355-5.889a5.452,5.452,0,0,0,2.934-1.953,5.579,5.579,0,0,0,.987-3.385A6.235,6.235,0,0,0,44.477,23a4.243,4.243,0,0,0-2.631-1.711c-1.141-.359-3.1-.25-5.869-.25H27.32v11.2h9.289a17.974,17.974,0,0,0,4.869-.511ZM71,11.31A9.31,9.31,0,0,0,61.69,2H10.31A9.31,9.31,0,0,0,1,11.31V62.69A9.31,9.31,0,0,0,10.31,72H61.69A9.31,9.31,0,0,0,71,62.69ZM51.15,48.337a9.753,9.753,0,0,1-2.829,3.592A11.887,11.887,0,0,1,44.1,53.916a25.277,25.277,0,0,1-6.223.724H22.28V16H37.635a18.013,18.013,0,0,1,7.092,1.121A9.076,9.076,0,0,1,48.913,20.7a9.465,9.465,0,0,1,1.513,5.08,8.733,8.733,0,0,1-1.342,4.652,9.576,9.576,0,0,1-4.053,3.524,10.08,10.08,0,0,1,5.382,3.5A9.373,9.373,0,0,1,52.294,43.3a11.261,11.261,0,0,1-1.145,5.038Z" transform="translate(-1 -2)" fill="#222"/>
</svg>
