<svg xmlns="http://www.w3.org/2000/svg" width="63.1" height="70" viewBox="0 0 63.1 70">
  <g id="plain" transform="translate(-7.21 -1)">
    <path id="Path_52" data-name="Path 52" d="M68.366,54.944,40,71V58.494l17.644-9.717Zm1.944-1.756V19.639l-10.378,6V47.2L70.3,53.183ZM9.154,54.944,37.488,70.989V58.494l-17.65-9.717ZM7.21,53.189V19.639l10.378,6V47.2ZM8.427,17.467,37.516,1V13.089L18.877,23.339l-.15.083Zm60.656,0L40,1V13.089L58.643,23.333l.15.083,10.3-5.95Z" fill="#222"/>
    <path id="Path_53" data-name="Path 53" d="M47.809,67.054,30.37,57.46V38.471L47.809,48.516Zm2.489,0,17.439-9.583v-19L50.3,48.516ZM31.553,36.293l17.5-9.633,17.5,9.633-17.5,10.089Z" transform="translate(-10.293 -11.404)" fill="#222"/>
  </g>
</svg>
